<svg xmlns="http://www.w3.org/2000/svg" xmlns:xlink="http://www.w3.org/1999/xlink" version="1.1" id="&#1057;&#1083;&#1086;&#1081;_1" x="0px" y="0px" width="1201.947px" height="269.987px" viewBox="0 0 1201.947 269.987" enable-background="new 0 0 1201.947 269.987" xml:space="preserve"><g><g><g><path fill="#FFFFFF" d="M942.726 84.399c-28.814 0-49.733 21.2-49.733 50.423c0 29.1 20.9 50.2 49.7 50.2 s49.861-21.128 49.861-50.239C992.587 105.6 971.5 84.4 942.7 84.399z M942.726 169.1 c-19.008 0-32.877-14.426-32.877-34.305c0-20.003 13.869-34.492 32.877-34.492c19.011 0 32.8 14.5 32.8 34.5 C975.494 154.7 961.7 169.1 942.7 169.127z"/><path fill="#FFFFFF" d="M1152.086 84.399c-28.815 0-49.742 21.2-49.742 50.423c0 29.1 20.9 50.2 49.7 50.2 c28.817 0 49.861-21.128 49.861-50.239C1201.947 105.6 1180.9 84.4 1152.1 84.399z M1152.086 169.1 c-19.007 0-32.874-14.426-32.874-34.305c0-20.003 13.867-34.492 32.874-34.492c19.017 0 32.8 14.5 32.8 34.5 C1184.844 154.7 1171.1 169.1 1152.1 169.127z"/></g><path fill="#F18700" d="M188.039 13.495l-0.366 0.206L137.1 35.779l-19.616-3.489c-8.604 0.35-17.696-16.505-22.346-2.86 c2.502 13.7 8 27 13.7 40.198c-12.671 15.622-29.173 27.028-44.473 40.676l-32.047 17 c-8.367 1.446-17.814-7.783-24.276 3.061c-6.452 10.9 4.7 52.4 29.8 53.887c12.905 11 30.8 16.4 46.4 20.7 c13.149 23.7 45.2 14.3 66 24.907c0 0 10.9 15.8 28.7 33.633c4.069-0.287 6.939-0.821 7.773-1.976 c-3.229-25.107-32.877-47.903-27.499-73.209c-2.155 4.441-20.204-3.011-20.691-8.18c-0.833-9.756-0.718-22.221 4.551-31.531 c-4.91-0.744-14.351-0.718-16.746-0.612c-2.505 0.103-4.538 0.612-2.861-3.598c2.62-6.353 8.242-13.855 16.256-14.648 c-1.79 0.2 0.113-2.77-0.359-2.77c-21.762 0.047-17.1-21.924-16.624-26.628c0.368-5.169 4.665-1.187 7.055-4.344 c2.158-2.823 1.083-18.454 9.216-21.818c5.131-2.077 2.7 6.9 5.8 7.221c5.028-1.28 2.876-1.437 5.265-4.313 c1.911-2.211 2.508-20.044 12.552-23.592c4.541-1.593 0 17.8 7.9 18.198c7.536 0.4 3.71-16.505 11.603-21.746 c15.06-10.044 6.3 6.7 10.6 17.168c7.167-1.777 12.677-9.173 14.71-8.757c3.342 0.7 6.6 3.1 7.8 7 c1.43 4.4 0.7 9.89-1.443 16.006c-3.582 9.822-18.764 12.849-22.474 16.165c24.389 5.1 48.3 20.2 62.1 31.8 c6.811 5.7 13 11 18.9 16.065V8.879C242.793 4.7 213.3 5.7 188 13.5"/><path fill="#FFFFFF" d="M302.339 8.798v56.841h10.878c0 0 0-43.402 0-46.488c2.995 0 32.8 0 32.8 0V8.798h-1.674H302.339 M377.903 8.798h-24.628H351.6v56.841h10.878c0 0 0-19.167 0-22.024c2.755 0 15.3 0 15.3 0c14.229 0 21.524-5.856 21.524-17.393 C399.303 14.7 392 8.8 377.9 8.798z M374.915 33.986c0 0-9.804 0-12.437 0c0-2.505 0-13.061 0-15.572 c2.633 0 12.9 0 12.9 0c10.881 0 12.9 2.8 12.9 8.036C388.307 31.1 386 34 374.9 33.986z M444.736 8.8 c0 0-13.983 29.264-16.49 34.436c-2.521-5.119-17.462-34.436-17.462-34.436h-12.44c0 0 23.2 43.4 24.2 45.1 c-2.277 3.341-2.758 3.495-4.788 3.495l-6.215-0.384l-0.119 1.774v7.579l7.527 0.644c6.574 0 10.765-3.136 14.585-10.794 l23.676-47.437h-2.749H444.736z M462.319 8.798v56.841h10.996c0 0 0-43.402 0-46.488c2.752 0 26.3 0 29.2 0 c0 3.1 0 46.5 0 46.488h10.996V8.798h-1.674H462.319z M522.33 8.798v56.841h10.893c0 0 0-43.402 0-46.488 c2.861 0 26.4 0 29.3 0c0 3.1 0 46.5 0 46.488h10.884V8.798h-1.671H522.33z M614.047 8.798h-1.081h-8.969l-27.018 56.8 h11.711c0 0 6.343-13.567 7.061-15.266c1.914 0 23.3 0 25.2 0c0.837 1.7 6.8 15.3 6.8 15.266h11.477L614.047 8.798z M600.53 40.026c1.559-3.22 6.227-12.902 8.126-17.093c1.918 4.2 6.3 13.9 7.8 17.1 C612.966 40 604 40 600.5 40.026z"/><path fill="#FFFFFF" d="M366.304 86.379c0 0 0 41.3 0 44.352c-8.367 1.752-17.218 2.676-27.019 2.7 c-6.343 0-21.05-1.443-21.05-14.91V86.379h-17.099v32.118c0 19.6 13.3 30.3 37.4 30.3 c11.475 0 19.242-1.252 27.731-3.361c0 4.2 0 38.5 0 38.521h17.218V86.379h-1.918H366.304 M416.284 142.1 c3.589 0 51.9 0 51.9 0v-16.062c0 0-48.302 0-51.891 0c0-3.057 0-20.553 0-23.614c3.589 0 61.3 0 61.3 0V86.379h-1.914 h-76.517v97.598h79.265v-16.063c0 0-58.581 0-62.17 0C416.284 164.8 416.3 145.2 416.3 142.118z M538.72 86.379h-43.28 h-1.918v97.598h17.1c0 0 0-35.201 0-38.649c3.348 0 27.9 0 27.9 0c24.623 0 36.587-9.61 36.587-29.398 C575.067 96 563.2 86.4 538.7 86.379z M533.458 130.578c0 0-19.607 0-22.836 0c0-3.185 0-26.268 0-29.42 c3.229 0 23.7 0 23.7 0c17.467 0 23.7 4 23.7 15.16C557.965 124.9 553.8 130.6 533.5 130.578z M674.661 86.379h-17.814c0 0-46.629 40.985-52.132 45.891c0-6.99 0-45.891 0-45.891h-17.096v97.598h17.096c0 0 0-30.501 0-32.15 c1.084-0.971 13.748-11.871 16.137-13.923c2.274 2.8 37.3 46.1 37.3 46.073h20.566c0 0-43.884-53.759-46.032-56.46 c2.511-2.258 46.988-41.138 46.988-41.138H674.661z M761.462 86.379c0 0-50.095 67.89-56.191 76.111c0-9.919 0-76.111 0-76.111 h-16.731v97.598h20.793c0 0 50.101-67.873 56.082-76.117c0 9.9 0 76.1 0 76.117h16.734V86.379h-1.911H761.462z M866.085 133.152c9.091-4.16 14.944-12.084 14.944-21.869c0-17.633-14.823-27.349-41.85-27.349 c-27.259 0-42.319 11.671-42.319 32.902v1.896h17.337v-1.896c0-7.793 2.626-18.148 25.585-18.148 c14.347 0 23.7 5.5 23.7 14.004c0 13.208-19.254 14.647-27.627 14.647h-7.883v14.395h8.485 c22.827 0 31 3.4 31 13.211c0 11.556-7.539 16.078-27.025 16.078c-21.999 0-29.776-4.676-29.776-17.886v-1.896H793.75 v1.896c0 22.4 14.9 33.3 45.4 33.283c28.699 0 45.919-11.459 45.919-30.685 C885.098 143.9 878 136.1 866.1 133.152z M1077.599 132.246c7.889-4.419 12.065-11.147 12.065-20.328 c0-16.234-11.11-25.538-30.36-25.538h-52.244h-1.921v97.598h52.847c23.551 0 34.92-9.563 34.92-29.277 C1092.906 143.4 1087.4 135.7 1077.6 132.246z M1022.239 102.442c3.469 0 34.3 0 34.3 0 c13.273 0 16 4.6 16 11.537c0 8.836-4.791 11.821-18.889 11.821c0 0-28.111 0-31.45 0 C1022.239 122.7 1022.2 105.5 1022.2 102.442z M1054.878 167.915c0 0-29.302 0-32.64 0c0-3.111 0-22.971 0-26.053 c3.469 0 34.6 0 34.6 0c13.148 0 18.5 4 18.5 13.873C1075.326 162.1 1072.8 167.9 1054.9 167.915z"/><g><path fill="#F18700" d="M328.314 240.462h-10.107l-9.441-12.902h-2.027v12.902h-8.242v-31.965h8.242v13.03 c0.674-0.028 1.233-0.094 1.677-0.203c0.443-0.106 0.849-0.296 1.221-0.568c0.387-0.287 0.803-0.712 1.246-1.277 c0.444-0.565 0.909-1.262 1.396-2.093c0.3-0.515 0.64-1.128 1.018-1.836c0.381-0.709 0.699-1.29 0.956-1.749 c1.102-1.934 2.261-3.311 3.479-4.132c1.215-0.824 3.055-1.234 5.515-1.234c0.731 0 1.4 0 2 0 c0.571 0 1 0 1.3 0.031v6.934h-2.383c-1.174 0-2.086 0.303-2.736 0.902c-0.652 0.599-1.371 1.661-2.158 3.2 c-0.784 1.502-1.427 2.558-1.93 3.167c-0.5 0.609-0.987 1.043-1.462 1.299L328.314 240.462z"/><path fill="#F18700" d="M360.614 240.462H352.1l-2.227-6.462h-11.827l-2.227 6.462h-8.308l11.805-31.965h9.491L360.614 240.462z M347.894 228.142l-3.932-11.453l-3.935 11.453H347.894z"/><path fill="#F18700" d="M390.337 240.462h-8.242v-11.827c-1.634 0.344-3.039 0.603-4.219 0.8 c-1.181 0.178-2.736 0.265-4.669 0.265c-1.487 0-2.864-0.178-4.132-0.534c-1.268-0.359-2.38-0.925-3.339-1.696 c-0.974-0.775-1.737-1.755-2.286-2.942c-0.55-1.187-0.828-2.589-0.828-4.207v-11.809h8.289v7.579 c0 1.2 0.1 2.3 0.2 3.145c0.113 0.8 0.4 1.6 0.9 2.264c0.459 0.6 1.1 1.1 2 1.5 c0.865 0.3 2.1 0.5 3.7 0.493c0.571 0 1.318-0.035 2.233-0.106c0.915-0.072 1.659-0.159 2.233-0.259v-14.576h8.242 V240.462z"/><path fill="#F18700" d="M420.297 240.462h-23.121v-31.965h23.121v6.184h-14.919v5.515h13.845v6.184h-13.845v7.898h14.919V240.462 z"/><path fill="#F18700" d="M440.338 241.084c-2.377 0-4.569-0.35-6.58-1.05c-2.012-0.702-3.739-1.745-5.185-3.135 c-1.446-1.387-2.564-3.12-3.361-5.194c-0.793-2.077-1.19-4.472-1.19-7.193c0-2.533 0.378-4.832 1.137-6.893 c0.759-2.058 1.861-3.826 3.307-5.3c1.387-1.418 3.108-2.514 5.162-3.285c2.052-0.772 4.298-1.159 6.731-1.159 c1.343 0 2.6 0.1 3.6 0.225c1.081 0.1 2.1 0.3 3 0.59c0.959 0.3 1.8 0.6 2.6 0.9 c0.781 0.3 1.5 0.7 2 0.934v7.752h-0.943c-0.4-0.344-0.906-0.75-1.515-1.218c-0.609-0.471-1.3-0.934-2.071-1.39 c-0.787-0.456-1.639-0.84-2.555-1.152c-0.915-0.312-1.896-0.471-2.942-0.471c-1.158 0-2.261 0.184-3.304 0.5 c-1.046 0.365-2.011 0.968-2.898 1.811c-0.846 0.815-1.527 1.893-2.052 3.235c-0.521 1.343-0.78 2.97-0.78 4.9 c0 2 0.3 3.7 0.8 5.013c0.565 1.3 1.3 2.4 2.1 3.17c0.871 0.8 1.8 1.3 2.9 1.7 c1.071 0.3 2.1 0.5 3.2 0.503c1.002 0 1.992-0.15 2.973-0.45c0.981-0.3 1.887-0.706 2.717-1.219 c0.7-0.412 1.353-0.853 1.952-1.324c0.603-0.468 1.096-0.874 1.481-1.218h0.858v7.645c-0.799 0.356-1.565 0.693-2.296 1 c-0.73 0.312-1.495 0.587-2.298 0.816c-1.043 0.299-2.024 0.528-2.939 0.687C443.199 241 441.9 241.1 440.3 241.084z"/><path fill="#F18700" d="M481.395 214.681h-9.981v25.781h-8.245v-25.781h-9.981v-6.184h28.208V214.681z"/><path fill="#F18700" d="M512.383 230.675c0 1.546-0.312 2.926-0.933 4.141c-0.622 1.218-1.478 2.227-2.564 3 c-1.262 0.946-2.646 1.618-4.154 2.021c-1.512 0.4-3.426 0.599-5.744 0.599h-13.954v-31.965h12.408 c2.577 0 4.5 0.1 5.7 0.259c1.196 0.2 2.4 0.5 3.6 1.137c1.215 0.6 2.1 1.4 2.7 2.5 c0.593 1 0.9 2.2 0.9 3.551c0 1.546-0.409 2.911-1.224 4.092c-0.815 1.18-1.967 2.099-3.457 2.757v0.172 c2.089 0.4 3.7 1.3 5 2.576C511.77 226.8 512.4 228.5 512.4 230.675z M501.82 217.5 c0-0.531-0.131-1.059-0.397-1.59c-0.265-0.528-0.734-0.921-1.406-1.18c-0.603-0.228-1.349-0.353-2.245-0.375 c-0.894-0.022-2.149-0.031-3.767-0.031h-0.771v6.761h1.287c1.302 0 2.411-0.022 3.329-0.066c0.915-0.044 1.636-0.184 2.167-0.427 c0.744-0.331 1.23-0.756 1.459-1.278C501.705 218.8 501.8 218.2 501.8 217.536z M503.816 230.5 c0-1.014-0.197-1.799-0.587-2.348c-0.393-0.553-1.062-0.962-2.005-1.237c-0.64-0.184-1.527-0.284-2.654-0.3 c-1.128-0.012-2.308-0.022-3.536-0.022h-1.799v7.964h0.599c2.315 0 3.97-0.006 4.969-0.019c1-0.015 1.921-0.2 2.764-0.559 c0.856-0.359 1.446-0.834 1.768-1.428C503.657 232 503.8 231.3 503.8 230.543z"/><path fill="#F18700" d="M548.289 224.491c0 5.093-1.458 9.141-4.379 12.139c-2.92 2.999-6.955 4.497-12.108 4.5 c-5.137 0-9.166-1.499-12.087-4.497c-2.92-2.998-4.378-7.046-4.378-12.139c0-5.138 1.458-9.198 4.378-12.183 c2.92-2.983 6.95-4.475 12.087-4.475c5.122 0 9.2 1.5 12.1 4.475C546.821 215.3 548.3 219.4 548.3 224.491z M537.362 232.583c0.803-0.972 1.396-2.12 1.783-3.445c0.388-1.324 0.578-2.88 0.578-4.669c0-1.918-0.222-3.547-0.665-4.894 c-0.444-1.346-1.021-2.433-1.737-3.263c-0.731-0.859-1.571-1.481-2.524-1.868c-0.952-0.388-1.943-0.578-2.973-0.578 c-1.046 0-2.03 0.184-2.951 0.556c-0.925 0.372-1.771 0.987-2.546 1.846c-0.715 0.803-1.299 1.909-1.749 3.3 c-0.45 1.412-0.675 3.045-0.675 4.906c0 1.9 0.2 3.5 0.7 4.862c0.437 1.3 1 2.4 1.7 3.3 c0.715 0.8 1.6 1.5 2.5 1.868s1.968 0.6 3 0.603c1.059 0 2.067-0.207 3.026-0.612 C535.809 234.1 536.6 233.4 537.4 232.583z"/><path fill="#F18700" d="M598.054 224.491c0 5.093-1.458 9.141-4.379 12.139c-2.92 2.999-6.955 4.497-12.108 4.5 c-5.138 0-9.167-1.499-12.087-4.497c-2.92-2.998-4.379-7.046-4.379-12.139c0-5.138 1.459-9.198 4.379-12.183 c2.92-2.983 6.949-4.475 12.087-4.475c5.121 0 9.2 1.5 12.1 4.475C596.586 215.3 598.1 219.4 598.1 224.491z M587.126 232.583c0.803-0.972 1.396-2.12 1.783-3.445c0.388-1.324 0.578-2.88 0.578-4.669c0-1.918-0.221-3.547-0.665-4.894 c-0.443-1.346-1.021-2.433-1.737-3.263c-0.731-0.859-1.571-1.481-2.523-1.868c-0.952-0.388-1.943-0.578-2.973-0.578 c-1.047 0-2.03 0.184-2.952 0.556c-0.924 0.372-1.771 0.987-2.545 1.846c-0.715 0.803-1.299 1.909-1.749 3.3 c-0.45 1.412-0.675 3.045-0.675 4.906c0 1.9 0.2 3.5 0.7 4.862c0.438 1.3 1 2.4 1.7 3.3 c0.715 0.8 1.6 1.5 2.5 1.868s1.968 0.6 3 0.603c1.059 0 2.067-0.207 3.026-0.612 C585.573 234.1 586.4 233.4 587.1 232.583z"/><path fill="#F18700" d="M628.033 214.681h-9.981v25.781h-8.245v-25.781h-9.982v-6.184h28.208V214.681z"/><path fill="#F18700" d="M677.238 214.981c1.261 1.1 2.2 2.4 2.9 3.916c0.677 1.6 1 3.3 1 5.3 c0 1.974-0.35 3.742-1.049 5.3c-0.703 1.562-1.712 2.892-3.03 3.994c-1.343 1.103-2.895 1.962-4.647 2.6 c-1.753 0.615-3.788 0.999-6.106 1.158v3.498h-8.201v-3.498c-2.249-0.159-4.279-0.546-6.097-1.171 c-1.817-0.621-3.379-1.483-4.681-2.586c-1.302-1.102-2.302-2.427-3.004-3.973c-0.703-1.546-1.053-3.31-1.053-5.3 c0-2.005 0.338-3.757 1.009-5.262c0.675-1.502 1.646-2.795 2.921-3.886c1.246-1.043 2.805-1.877 4.681-2.498 c1.874-0.624 3.948-1.021 6.225-1.193v-3.264h8.201v3.264c2.361 0.1 4.4 0.5 6.3 1.1 C674.402 213.1 676 213.9 677.2 214.981z M658.134 231.939v-15.197c-2.09 0.313-3.664 1.084-4.722 2.3 c-1.059 1.221-1.59 2.908-1.59 5.053c0 2.2 0.5 4 1.4 5.293C654.201 230.7 655.8 231.5 658.1 231.939z M672.647 224.103c0-2.062-0.546-3.735-1.634-5.022c-1.087-1.29-2.648-2.068-4.678-2.34v15.197 c2.361-0.415 4.004-1.256 4.925-2.52C672.184 228.2 672.6 226.4 672.6 224.103z"/><path fill="#F18700" d="M709.044 240.462h-23.12v-31.965h23.12v6.184h-14.919v5.515h13.845v6.184h-13.845v7.898h14.919V240.462z"/><path fill="#F18700" d="M741.021 218.588c0 1.43-0.253 2.83-0.752 4.198c-0.5 1.364-1.215 2.514-2.146 3.4 c-1.274 1.259-2.695 2.211-4.263 2.855c-1.565 0.644-3.517 0.965-5.849 0.965h-5.132v10.412h-8.242v-31.965h13.567 c2.033 0 3.7 0.2 5.1 0.528c1.396 0.3 2.6 0.9 3.7 1.577c1.287 0.8 2.3 1.9 3 3.2 C740.681 215.2 741 216.7 741 218.588z M732.498 218.772c0-0.902-0.244-1.677-0.731-2.327 c-0.487-0.649-1.053-1.102-1.696-1.359c-0.858-0.343-1.696-0.531-2.51-0.568c-0.815-0.035-1.905-0.053-3.264-0.053h-1.418v9.553 h2.364c1.403 0 2.558-0.087 3.467-0.256c0.909-0.172 1.671-0.516 2.287-1.03c0.528-0.456 0.911-1.003 1.146-1.637 C732.38 220.5 732.5 219.7 732.5 218.772z"/><path fill="#F18700" d="M779.052 240.462h-8.201v-21.403l-5.925 13.889h-5.69l-5.925-13.889v21.403h-7.77v-31.965h9.576 l7.189 16.037l7.171-16.037h9.575V240.462z"/><path fill="#F18700" d="M813.154 230.2c0 1.562-0.3 2.995-0.894 4.307c-0.593 1.309-1.405 2.377-2.436 3.2 c-1.302 1.046-2.658 1.765-4.067 2.158c-1.412 0.394-3.117 0.59-5.121 0.59h-14.748v-31.965h8.242v11.915h6.634 c2.22 0 4 0.2 5.5 0.484c1.424 0.3 2.7 0.9 3.8 1.771c1.103 0.9 1.9 1.9 2.4 3.3 C812.9 227.2 813.2 228.7 813.2 230.2z M804.631 230.437c0-0.528-0.059-1.03-0.172-1.502 c-0.116-0.471-0.365-0.909-0.753-1.309c-0.387-0.388-0.915-0.697-1.589-0.924c-0.672-0.228-1.602-0.344-2.789-0.344h-5.197v8.135 h5.197c0.903 0 1.714-0.113 2.436-0.344c0.721-0.228 1.277-0.521 1.665-0.881c0.384-0.344 0.684-0.753 0.89-1.234 C804.525 231.6 804.6 231 804.6 230.437z M824.444 240.462h-8.242v-31.965h8.242V240.462z"/><path fill="#F18700" d="M876.375 247.805h-7.577v-7.449h-19.407v7.449h-7.577V234.26h2.424c1.662-3.479 2.933-7.402 3.811-11.765 c0.88-4.366 1.321-9.032 1.321-13.997h23.851v25.763h3.155V247.805z M864.976 234.26v-19.579h-7.986 c-0.272 3.891-0.84 7.489-1.705 10.787c-0.865 3.298-1.914 6.227-3.145 8.792H864.976z"/><path fill="#F18700" d="M911.745 224.491c0 5.093-1.458 9.141-4.378 12.139c-2.92 2.999-6.955 4.497-12.109 4.5 c-5.137 0-9.166-1.499-12.086-4.497c-2.92-2.998-4.379-7.046-4.379-12.139c0-5.138 1.458-9.198 4.379-12.183 c2.92-2.983 6.949-4.475 12.086-4.475c5.122 0 9.2 1.5 12.1 4.475C910.277 215.3 911.7 219.4 911.7 224.491z M900.817 232.583c0.802-0.972 1.396-2.12 1.783-3.445c0.387-1.324 0.578-2.88 0.578-4.669c0-1.918-0.222-3.547-0.665-4.894 c-0.443-1.346-1.021-2.433-1.737-3.263c-0.731-0.859-1.571-1.481-2.523-1.868c-0.953-0.388-1.943-0.578-2.974-0.578 c-1.046 0-2.03 0.184-2.951 0.556c-0.924 0.372-1.771 0.987-2.545 1.846c-0.716 0.803-1.3 1.909-1.749 3.3 c-0.45 1.412-0.675 3.045-0.675 4.906c0 1.9 0.2 3.5 0.7 4.862c0.438 1.3 1 2.4 1.7 3.3 c0.715 0.8 1.6 1.5 2.5 1.868s1.967 0.6 3 0.603c1.059 0 2.068-0.207 3.027-0.612 C899.265 234.1 900.1 233.4 900.8 232.583z"/><path fill="#F18700" d="M959.082 240.462h-8.241v-25.781h-12.175v25.781h-8.241v-31.965h28.657V240.462z"/><path fill="#F18700" d="M992.306 218.588c0 1.43-0.253 2.83-0.753 4.198c-0.5 1.364-1.215 2.514-2.146 3.4 c-1.274 1.259-2.695 2.211-4.263 2.855c-1.565 0.644-3.517 0.965-5.849 0.965h-5.132v10.412h-8.241v-31.965h13.567 c2.033 0 3.7 0.2 5.1 0.528c1.396 0.3 2.6 0.9 3.7 1.577c1.286 0.8 2.3 1.9 3 3.2 C991.966 215.2 992.3 216.7 992.3 218.588z M983.783 218.772c0-0.902-0.243-1.677-0.73-2.327 c-0.487-0.649-1.053-1.102-1.696-1.359c-0.858-0.343-1.696-0.531-2.51-0.568c-0.815-0.035-1.905-0.053-3.264-0.053h-1.418v9.553 h2.365c1.402 0 2.558-0.087 3.467-0.256c0.908-0.172 1.671-0.516 2.286-1.03c0.528-0.456 0.912-1.003 1.146-1.637 C983.664 220.5 983.8 219.7 983.8 218.772z"/><path fill="#F18700" d="M1025.977 240.462h-8.027v-21.274l-13.267 21.274h-7.858v-31.965h8.03v19.257l12.343-19.257h8.779 V240.462z"/><path fill="#F18700" d="M1061.69 240.462h-8.242v-25.781h-9.144c-0.072 1.402-0.131 2.505-0.172 3.3 c-0.043 0.803-0.109 1.861-0.194 3.179c-0.188 2.889-0.468 5.319-0.849 7.287c-0.378 1.967-0.803 3.588-1.277 4.9 c-0.487 1.286-1.002 2.339-1.546 3.157c-0.544 0.815-1.087 1.481-1.63 1.996c-0.702 0.672-1.574 1.209-2.62 1.6 c-1.043 0.403-2.152 0.603-3.327 0.603c-0.715 0-1.455-0.031-2.22-0.088c-0.768-0.056-1.259-0.1-1.471-0.128v-7.148h0.3 c0.128 0 0.3 0 0.4 0.044c0.162 0 0.4 0 0.6 0.022c0.803 0 1.396-0.05 1.783-0.15 c0.384-0.101 0.728-0.282 1.027-0.537c1.09-0.959 1.836-2.48 2.246-4.563c0.406-2.083 0.712-4.997 0.912-8.748 c0.084-1.486 0.153-3.107 0.203-4.862c0.05-1.752 0.097-3.76 0.141-6.021h25.072V240.462z"/><path fill="#F18700" d="M1098.068 240.462h-8.513l-2.227-6.462H1075.5l-2.226 6.462h-8.308l11.805-31.965h9.491L1098.068 240.5 z M1085.348 228.142l-3.932-11.453l-3.935 11.453H1085.348z"/><path fill="#F18700" d="M1128.69 230.675c0 1.546-0.312 2.926-0.934 4.141c-0.621 1.218-1.477 2.227-2.564 3 c-1.261 0.946-2.645 1.618-4.154 2.021c-1.511 0.4-3.426 0.599-5.743 0.599h-13.955v-31.965h12.409 c2.576 0 4.5 0.1 5.7 0.259c1.196 0.2 2.4 0.5 3.6 1.137c1.215 0.6 2.1 1.4 2.7 2.5 c0.594 1 0.9 2.2 0.9 3.551c0 1.546-0.409 2.911-1.224 4.092c-0.816 1.18-1.967 2.099-3.457 2.757v0.172 c2.089 0.4 3.7 1.3 5 2.576C1128.078 226.8 1128.7 228.5 1128.7 230.675z M1118.128 217.5 c0-0.531-0.132-1.059-0.397-1.59c-0.266-0.528-0.734-0.921-1.405-1.18c-0.603-0.228-1.349-0.353-2.246-0.375 c-0.893-0.022-2.148-0.031-3.766-0.031h-0.771v6.761h1.286c1.303 0 2.411-0.022 3.329-0.066c0.915-0.044 1.637-0.184 2.168-0.427 c0.743-0.331 1.231-0.756 1.458-1.278C1118.013 218.8 1118.1 218.2 1118.1 217.536z M1120.124 230.5 c0-1.014-0.197-1.799-0.587-2.348c-0.394-0.553-1.062-0.962-2.005-1.237c-0.64-0.184-1.528-0.284-2.655-0.3 c-1.127-0.012-2.308-0.022-3.535-0.022h-1.799v7.964h0.599c2.314 0 3.969-0.006 4.969-0.019c0.999-0.015 1.921-0.2 2.764-0.559 c0.856-0.359 1.446-0.834 1.768-1.428C1119.965 232 1120.1 231.3 1120.1 230.543z"/><path fill="#F18700" d="M1163.329 240.462h-10.106l-9.441-12.902h-2.027v12.902h-8.242v-31.965h8.242v13.03 c0.675-0.028 1.234-0.094 1.677-0.203c0.443-0.106 0.849-0.296 1.221-0.568c0.388-0.287 0.803-0.712 1.246-1.277 c0.444-0.565 0.909-1.262 1.396-2.093c0.3-0.515 0.64-1.128 1.018-1.836c0.381-0.709 0.7-1.29 0.956-1.749 c1.103-1.934 2.261-3.311 3.479-4.132c1.215-0.824 3.055-1.234 5.516-1.234c0.73 0 1.4 0 2 0 c0.572 0 1 0 1.3 0.031v6.934h-2.383c-1.174 0-2.086 0.303-2.736 0.902c-0.653 0.599-1.371 1.661-2.158 3.2 c-0.784 1.502-1.428 2.558-1.93 3.167c-0.499 0.609-0.987 1.043-1.461 1.299L1163.329 240.462z"/><path fill="#F18700" d="M1195.628 240.462h-8.513l-2.227-6.462h-11.828l-2.227 6.462h-8.307l11.805-31.965h9.491 L1195.628 240.462z M1182.908 228.142l-3.932-11.453l-3.935 11.453H1182.908z"/></g></g></g></svg>