<?xml version="1.0" encoding="utf-8"?>
<!-- Generator: Adobe Illustrator 17.0.0, SVG Export Plug-In . SVG Version: 6.00 Build 0)  -->
<!DOCTYPE svg PUBLIC "-//W3C//DTD SVG 1.1//EN" "http://www.w3.org/Graphics/SVG/1.1/DTD/svg11.dtd">
<svg version="1.1" id="Слой_1" xmlns="http://www.w3.org/2000/svg" xmlns:xlink="http://www.w3.org/1999/xlink" x="0px" y="0px"
	 width="32px" height="32px" viewBox="0 0 32 32" enable-background="new 0 0 32 32" xml:space="preserve">
<path fill="#999999" d="M8,2h16v4H8V2z"/>
<path fill="#999999" d="M30,8H2c-1.1,0-2,0.9-2,2v10c0,1.1,0.9,2,2,2h6v8h16v-8h6c1.1,0,2-0.9,2-2V10C32,8.9,31.1,8,30,8z M4,14
	c-1.105,0-2-0.895-2-2s0.895-2,2-2s2,0.895,2,2S5.105,14,4,14z M22,28H10V18h12V28z"/>
</svg>
