<?xml version="1.0" encoding="utf-8"?>
<!-- Generator: Adobe Illustrator 18.1.1, SVG Export Plug-In . SVG Version: 6.00 Build 0)  -->
<svg version="1.1" id="Слой_1" xmlns="http://www.w3.org/2000/svg" xmlns:xlink="http://www.w3.org/1999/xlink" x="0px" y="0px"
	 viewBox="0 0 269.9 266" enable-background="new 0 0 269.9 266" xml:space="preserve">
<g>
	<g>
		<g>
			<g>
				<path display="none" fill="#003E6A" d="M940.3,83c-28.8,0-49.7,21.2-49.7,50.4c0,29.1,20.9,50.2,49.7,50.2
					c28.8,0,49.9-21.1,49.9-50.2C990.2,104.2,969.2,83,940.3,83"/>
				<path display="none" fill="#FFFFFF" d="M940.3,167.7c-19,0-32.9-14.4-32.9-34.3c0-20,13.9-34.5,32.9-34.5
					c19,0,32.8,14.5,32.8,34.5C973.1,153.3,959.4,167.7,940.3,167.7"/>
				<path display="none" fill="#003E6A" d="M1149.7,83c-28.8,0-49.7,21.2-49.7,50.4c0,29.1,20.9,50.2,49.7,50.2
					c28.8,0,49.9-21.1,49.9-50.2C1199.6,104.2,1178.5,83,1149.7,83"/>
				<path display="none" fill="#FFFFFF" d="M1149.7,167.7c-19,0-32.9-14.4-32.9-34.3c0-20,13.9-34.5,32.9-34.5
					c19,0,32.8,14.5,32.8,34.5C1182.5,153.3,1168.7,167.7,1149.7,167.7"/>
				<g>
					<g>
						<g>
							<path fill="#F18700" d="M185.7,12.1l-0.4,0.2l-50.6,22.1l-19.6-3.5c-8.6,0.3-17.7-16.5-22.3-2.9c2.5,13.7,8,27,13.7,40.2
								c-12.7,15.6-29.2,27-44.5,40.7l-32,17c-8.4,1.4-17.8-7.8-24.3,3.1c-6.5,10.9,4.7,52.4,29.8,53.9c12.9,11,30.8,16.4,46.4,20.7
								c13.1,23.7,45.2,14.3,66,24.9c0,0,10.9,15.9,28.7,33.6c4.1-0.3,6.9-0.8,7.8-2c-3.2-25.1-32.9-47.9-27.5-73.2
								c-2.2,4.4-20.2-3-20.7-8.2c-0.8-9.8-0.7-22.2,4.6-31.5c-4.9-0.7-14.4-0.7-16.7-0.6c-2.5,0.1-4.5,0.6-2.9-3.6
								c2.6-6.4,8.2-13.9,16.3-14.6c-1.8,0.2,0.1-2.8-0.4-2.8c-21.8,0-17.1-21.9-16.6-26.6c0.4-5.2,4.7-1.2,7.1-4.3
								c2.2-2.8,1.1-18.5,9.2-21.8c5.1-2.1,2.7,6.9,5.8,7.2c5-1.3,2.9-1.4,5.3-4.3c1.9-2.2,2.5-20,12.6-23.6
								c4.5-1.6,0,17.8,7.9,18.2c7.5,0.4,3.7-16.5,11.6-21.7c15.1-10,6.3,6.7,10.6,17.2c7.2-1.8,12.7-9.2,14.7-8.8
								c3.3,0.7,6.6,3.1,7.8,7c1.4,4.4,0.7,9.9-1.4,16c-3.6,9.8-18.8,12.8-22.5,16.2c24.4,5.1,48.3,20.2,62.1,31.8
								c6.8,5.7,13,11,18.9,16.1V7.5C240.4,3.3,210.9,4.3,185.7,12.1z"/>
							<path fill="#F18700" d="M35.5,182.8c12.9,11,30.8,16.4,46.4,20.7c13.1,23.7,45.2,14.3,66,24.9c0,0,10.9,15.9,28.7,33.6
								c4.1-0.3,6.9-0.8,7.8-2c-3.2-25.1-32.9-47.9-27.5-73.2c-2.2,4.4-20.2-3-20.7-8.2c-0.8-9.8-0.7-22.2,4.6-31.5
								c-4.9-0.7-14.4-0.7-16.7-0.6c-2.5,0.1-4.5,0.6-2.9-3.6c2.6-6.4,8.2-13.9,16.3-14.6c-1.8,0.2,0.1-2.8-0.4-2.8
								c-21.8,0-17.1-21.9-16.6-26.6c0.4-5.2,4.7-1.2,7.1-4.3c2.2-2.8,1.1-18.5,9.2-21.8c5.1-2.1,2.7,6.9,5.8,7.2
								c5-1.3,2.9-1.4,5.3-4.3c1.9-2.2,2.5-20,12.6-23.6c4.5-1.6,0,17.8,7.9,18.2c7.5,0.4,3.7-16.5,11.6-21.7
								c15.1-10,6.3,6.7,10.6,17.2c7.2-1.8,12.7-9.2,14.7-8.8c3.3,0.7,6.6,3.1,7.8,7c1.4,4.4,0.7,9.9-1.4,16
								c-3.6,9.8-18.8,12.8-22.5,16.2c24.4,5.1,48.3,20.2,62.1,31.8c6.8,5.7,13,11,18.9,16.1V7.5c-29.5-4.1-59.1-3.2-84.3,4.6
								l-0.4,0.2l-50.6,22.1l-19.6-3.5c-8.6,0.3-17.7-16.5-22.3-2.9c2.5,13.7,8,27,13.7,40.2c-12.7,15.6-29.2,27-44.5,40.7l-32,17
								c-8.4,1.4-17.8-7.8-24.3,3.1C-0.7,139.8,10.4,181.3,35.5,182.8z"/>
						</g>
					</g>
				</g>
				<path display="none" fill="#003E6A" d="M300,7.4v56.8h10.9c0,0,0-43.4,0-46.5c3,0,32.8,0,32.8,0V7.4h-1.7H300 M375.5,7.4h-24.6
					h-1.7v56.8h10.9c0,0,0-19.2,0-22c2.8,0,15.3,0,15.3,0c14.2,0,21.5-5.9,21.5-17.4C396.9,13.3,389.6,7.4,375.5,7.4z M372.5,32.6
					c0,0-9.8,0-12.4,0c0-2.5,0-13.1,0-15.6c2.6,0,12.9,0,12.9,0c10.9,0,12.9,2.8,12.9,8C385.9,29.7,383.7,32.6,372.5,32.6z
					 M442.4,7.4c0,0-14,29.3-16.5,34.4c-2.5-5.1-17.5-34.4-17.5-34.4H396c0,0,23.2,43.4,24.2,45.1c-2.3,3.3-2.8,3.5-4.8,3.5
					l-6.2-0.4l-0.1,1.8V65l7.5,0.6c6.6,0,10.8-3.1,14.6-10.8l23.7-47.4H452H442.4z M459.9,7.4v56.8h11c0,0,0-43.4,0-46.5
					c2.8,0,26.3,0,29.2,0c0,3.1,0,46.5,0,46.5h11V7.4h-1.7H459.9z M520,7.4v56.8h10.9c0,0,0-43.4,0-46.5c2.9,0,26.4,0,29.3,0
					c0,3.1,0,46.5,0,46.5H571V7.4h-1.7H520z M611.7,7.4h-1.1h-9l-27,56.8h11.7c0,0,6.3-13.6,7.1-15.3c1.9,0,23.3,0,25.2,0
					c0.8,1.7,6.8,15.3,6.8,15.3h11.5L611.7,7.4z M598.2,38.6c1.6-3.2,6.2-12.9,8.1-17.1c1.9,4.2,6.3,13.9,7.8,17.1
					C610.6,38.6,601.6,38.6,598.2,38.6z"/>
				<path display="none" fill="#003E6A" d="M363.9,85c0,0,0,41.3,0,44.4c-8.4,1.8-17.2,2.7-27,2.7c-6.3,0-21-1.4-21-14.9V85h-17.1
					v32.1c0,19.6,13.3,30.3,37.4,30.3c11.5,0,19.2-1.3,27.7-3.4c0,4.2,0,38.5,0,38.5h17.2V85h-1.9H363.9 M413.9,140.7
					c3.6,0,51.9,0,51.9,0v-16.1c0,0-48.3,0-51.9,0c0-3.1,0-20.6,0-23.6c3.6,0,61.3,0,61.3,0V85h-1.9h-76.5v97.6h79.3v-16.1
					c0,0-58.6,0-62.2,0C413.9,163.4,413.9,143.8,413.9,140.7z M536.3,85h-43.3h-1.9v97.6h17.1c0,0,0-35.2,0-38.6
					c3.3,0,27.9,0,27.9,0c24.6,0,36.6-9.6,36.6-29.4C572.7,94.6,560.9,85,536.3,85z M531.1,129.2c0,0-19.6,0-22.8,0
					c0-3.2,0-26.3,0-29.4c3.2,0,23.7,0,23.7,0c17.5,0,23.7,4,23.7,15.2C555.6,123.5,551.4,129.2,531.1,129.2z M672.3,85h-17.8
					c0,0-46.6,41-52.1,45.9c0-7,0-45.9,0-45.9h-17.1v97.6h17.1c0,0,0-30.5,0-32.1c1.1-1,13.7-11.9,16.1-13.9
					c2.3,2.8,37.3,46.1,37.3,46.1h20.6c0,0-43.9-53.8-46-56.5c2.5-2.3,47-41.1,47-41.1H672.3z M759.1,85c0,0-50.1,67.9-56.2,76.1
					c0-9.9,0-76.1,0-76.1h-16.7v97.6H707c0,0,50.1-67.9,56.1-76.1c0,9.9,0,76.1,0,76.1h16.7V85h-1.9H759.1z M863.7,131.7
					c9.1-4.2,14.9-12.1,14.9-21.9c0-17.6-14.8-27.3-41.9-27.3c-27.3,0-42.3,11.7-42.3,32.9v1.9h17.3v-1.9c0-7.8,2.6-18.1,25.6-18.1
					c14.3,0,23.7,5.5,23.7,14c0,13.2-19.3,14.6-27.6,14.6h-7.9v14.4h8.5c22.8,0,31,3.4,31,13.2c0,11.6-7.5,16.1-27,16.1
					c-22,0-29.8-4.7-29.8-17.9v-1.9h-16.9v1.9c0,22.4,14.9,33.3,45.4,33.3c28.7,0,45.9-11.5,45.9-30.7
					C882.7,142.5,875.7,134.7,863.7,131.7z M1075.2,130.8c7.9-4.4,12.1-11.1,12.1-20.3c0-16.2-11.1-25.5-30.4-25.5h-52.2h-1.9v97.6
					h52.8c23.6,0,34.9-9.6,34.9-29.3C1090.5,142,1085,134.3,1075.2,130.8z M1019.9,101c3.5,0,34.3,0,34.3,0c13.3,0,16,4.6,16,11.5
					c0,8.8-4.8,11.8-18.9,11.8c0,0-28.1,0-31.4,0C1019.9,121.3,1019.9,104.1,1019.9,101z M1052.5,166.5c0,0-29.3,0-32.6,0
					c0-3.1,0-23,0-26.1c3.5,0,34.6,0,34.6,0c13.1,0,18.5,4,18.5,13.9C1072.9,160.7,1070.4,166.5,1052.5,166.5z"/>
				<g display="none">
					<path display="inline" fill="#F18700" d="M325.9,239.1h-10.1l-9.4-12.9h-2v12.9h-8.2v-32h8.2v13c0.7,0,1.2-0.1,1.7-0.2
						c0.4-0.1,0.8-0.3,1.2-0.6c0.4-0.3,0.8-0.7,1.2-1.3c0.4-0.6,0.9-1.3,1.4-2.1c0.3-0.5,0.6-1.1,1-1.8c0.4-0.7,0.7-1.3,1-1.7
						c1.1-1.9,2.3-3.3,3.5-4.1c1.2-0.8,3.1-1.2,5.5-1.2c0.7,0,1.4,0,2,0c0.6,0,1,0,1.3,0v6.9h-2.4c-1.2,0-2.1,0.3-2.7,0.9
						c-0.7,0.6-1.4,1.7-2.2,3.2c-0.8,1.5-1.4,2.6-1.9,3.2c-0.5,0.6-1,1-1.5,1.3L325.9,239.1z"/>
					<path display="inline" fill="#F18700" d="M358.2,239.1h-8.5l-2.2-6.5h-11.8l-2.2,6.5h-8.3l11.8-32h9.5L358.2,239.1z
						 M345.5,226.7l-3.9-11.5l-3.9,11.5H345.5z"/>
					<path display="inline" fill="#F18700" d="M388,239.1h-8.2v-11.8c-1.6,0.3-3,0.6-4.2,0.8c-1.2,0.2-2.7,0.3-4.7,0.3
						c-1.5,0-2.9-0.2-4.1-0.5c-1.3-0.4-2.4-0.9-3.3-1.7c-1-0.8-1.7-1.8-2.3-2.9c-0.6-1.2-0.8-2.6-0.8-4.2v-11.8h8.3v7.6
						c0,1.2,0.1,2.3,0.2,3.1c0.1,0.8,0.4,1.6,0.9,2.3c0.5,0.6,1.1,1.1,2,1.5c0.9,0.3,2.1,0.5,3.7,0.5c0.6,0,1.3,0,2.2-0.1
						c0.9-0.1,1.7-0.2,2.2-0.3v-14.6h8.2V239.1z"/>
					<path display="inline" fill="#F18700" d="M417.9,239.1h-23.1v-32h23.1v6.2H403v5.5h13.8v6.2H403v7.9h14.9V239.1z"/>
					<path display="inline" fill="#F18700" d="M438,239.7c-2.4,0-4.6-0.3-6.6-1c-2-0.7-3.7-1.7-5.2-3.1c-1.4-1.4-2.6-3.1-3.4-5.2
						c-0.8-2.1-1.2-4.5-1.2-7.2c0-2.5,0.4-4.8,1.1-6.9c0.8-2.1,1.9-3.8,3.3-5.3c1.4-1.4,3.1-2.5,5.2-3.3c2.1-0.8,4.3-1.2,6.7-1.2
						c1.3,0,2.6,0.1,3.6,0.2c1.1,0.1,2.1,0.3,3,0.6c1,0.3,1.8,0.6,2.6,0.9c0.8,0.3,1.5,0.6,2,0.9v7.8h-0.9c-0.4-0.3-0.9-0.7-1.5-1.2
						c-0.6-0.5-1.3-0.9-2.1-1.4c-0.8-0.5-1.6-0.8-2.6-1.2c-0.9-0.3-1.9-0.5-2.9-0.5c-1.2,0-2.3,0.2-3.3,0.5c-1,0.4-2,1-2.9,1.8
						c-0.8,0.8-1.5,1.9-2.1,3.2c-0.5,1.3-0.8,3-0.8,4.9c0,2,0.3,3.7,0.8,5c0.6,1.3,1.3,2.4,2.1,3.2c0.9,0.8,1.8,1.3,2.9,1.7
						c1.1,0.3,2.1,0.5,3.2,0.5c1,0,2-0.1,3-0.4c1-0.3,1.9-0.7,2.7-1.2c0.7-0.4,1.4-0.9,2-1.3c0.6-0.5,1.1-0.9,1.5-1.2h0.9v7.6
						c-0.8,0.4-1.6,0.7-2.3,1c-0.7,0.3-1.5,0.6-2.3,0.8c-1,0.3-2,0.5-2.9,0.7C440.8,239.6,439.6,239.7,438,239.7z"/>
					<path display="inline" fill="#F18700" d="M479,213.3h-10v25.8h-8.2v-25.8h-10v-6.2H479V213.3z"/>
					<path display="inline" fill="#F18700" d="M510,229.3c0,1.5-0.3,2.9-0.9,4.1c-0.6,1.2-1.5,2.2-2.6,3c-1.3,0.9-2.6,1.6-4.2,2
						c-1.5,0.4-3.4,0.6-5.7,0.6h-14v-32h12.4c2.6,0,4.5,0.1,5.7,0.3c1.2,0.2,2.4,0.5,3.6,1.1c1.2,0.6,2.1,1.4,2.7,2.5
						c0.6,1,0.9,2.2,0.9,3.6c0,1.5-0.4,2.9-1.2,4.1c-0.8,1.2-2,2.1-3.5,2.8v0.2c2.1,0.4,3.7,1.3,5,2.6
						C509.4,225.4,510,227.1,510,229.3z M499.4,216.1c0-0.5-0.1-1.1-0.4-1.6c-0.3-0.5-0.7-0.9-1.4-1.2c-0.6-0.2-1.3-0.4-2.2-0.4
						c-0.9,0-2.1,0-3.8,0h-0.8v6.8h1.3c1.3,0,2.4,0,3.3-0.1c0.9,0,1.6-0.2,2.2-0.4c0.7-0.3,1.2-0.8,1.5-1.3
						C499.3,217.4,499.4,216.8,499.4,216.1z M501.4,229.1c0-1-0.2-1.8-0.6-2.3c-0.4-0.6-1.1-1-2-1.2c-0.6-0.2-1.5-0.3-2.7-0.3
						c-1.1,0-2.3,0-3.5,0h-1.8v8h0.6c2.3,0,4,0,5,0c1,0,1.9-0.2,2.8-0.6c0.9-0.4,1.4-0.8,1.8-1.4
						C501.3,230.6,501.4,229.9,501.4,229.1z"/>
					<path display="inline" fill="#F18700" d="M545.9,223.1c0,5.1-1.5,9.1-4.4,12.1c-2.9,3-7,4.5-12.1,4.5c-5.1,0-9.2-1.5-12.1-4.5
						c-2.9-3-4.4-7-4.4-12.1c0-5.1,1.5-9.2,4.4-12.2c2.9-3,6.9-4.5,12.1-4.5c5.1,0,9.2,1.5,12.1,4.5
						C544.4,213.9,545.9,218,545.9,223.1z M535,231.2c0.8-1,1.4-2.1,1.8-3.4c0.4-1.3,0.6-2.9,0.6-4.7c0-1.9-0.2-3.5-0.7-4.9
						c-0.4-1.3-1-2.4-1.7-3.3c-0.7-0.9-1.6-1.5-2.5-1.9c-1-0.4-1.9-0.6-3-0.6c-1,0-2,0.2-3,0.6c-0.9,0.4-1.8,1-2.5,1.8
						c-0.7,0.8-1.3,1.9-1.7,3.3c-0.4,1.4-0.7,3-0.7,4.9c0,1.9,0.2,3.5,0.7,4.9c0.4,1.3,1,2.4,1.7,3.3c0.7,0.8,1.6,1.5,2.5,1.9
						c1,0.4,2,0.6,3,0.6c1.1,0,2.1-0.2,3-0.6C533.4,232.7,534.3,232,535,231.2z"/>
					<path display="inline" fill="#F18700" d="M595.7,223.1c0,5.1-1.5,9.1-4.4,12.1c-2.9,3-7,4.5-12.1,4.5c-5.1,0-9.2-1.5-12.1-4.5
						c-2.9-3-4.4-7-4.4-12.1c0-5.1,1.5-9.2,4.4-12.2c2.9-3,6.9-4.5,12.1-4.5c5.1,0,9.2,1.5,12.1,4.5
						C594.2,213.9,595.7,218,595.7,223.1z M584.7,231.2c0.8-1,1.4-2.1,1.8-3.4c0.4-1.3,0.6-2.9,0.6-4.7c0-1.9-0.2-3.5-0.7-4.9
						c-0.4-1.3-1-2.4-1.7-3.3c-0.7-0.9-1.6-1.5-2.5-1.9c-1-0.4-1.9-0.6-3-0.6c-1,0-2,0.2-3,0.6c-0.9,0.4-1.8,1-2.5,1.8
						c-0.7,0.8-1.3,1.9-1.7,3.3c-0.5,1.4-0.7,3-0.7,4.9c0,1.9,0.2,3.5,0.7,4.9c0.4,1.3,1,2.4,1.7,3.3c0.7,0.8,1.6,1.5,2.5,1.9
						s2,0.6,3,0.6c1.1,0,2.1-0.2,3-0.6C583.2,232.7,584,232,584.7,231.2z"/>
					<path display="inline" fill="#F18700" d="M625.7,213.3h-10v25.8h-8.2v-25.8h-10v-6.2h28.2V213.3z"/>
					<path display="inline" fill="#F18700" d="M674.9,213.6c1.3,1.1,2.2,2.4,2.9,3.9c0.7,1.6,1,3.3,1,5.3c0,2-0.3,3.7-1,5.3
						c-0.7,1.6-1.7,2.9-3,4c-1.3,1.1-2.9,2-4.6,2.6c-1.8,0.6-3.8,1-6.1,1.2v3.5h-8.2v-3.5c-2.2-0.2-4.3-0.5-6.1-1.2
						c-1.8-0.6-3.4-1.5-4.7-2.6c-1.3-1.1-2.3-2.4-3-4c-0.7-1.5-1.1-3.3-1.1-5.3c0-2,0.3-3.8,1-5.3c0.7-1.5,1.6-2.8,2.9-3.9
						c1.2-1,2.8-1.9,4.7-2.5c1.9-0.6,3.9-1,6.2-1.2v-3.3h8.2v3.3c2.4,0.1,4.4,0.5,6.3,1.1C672,211.7,673.6,212.5,674.9,213.6z
						 M655.8,230.5v-15.2c-2.1,0.3-3.7,1.1-4.7,2.3c-1.1,1.2-1.6,2.9-1.6,5.1c0,2.2,0.5,4,1.4,5.3
						C651.8,229.3,653.4,230.1,655.8,230.5z M670.3,222.7c0-2.1-0.5-3.7-1.6-5c-1.1-1.3-2.6-2.1-4.7-2.3v15.2c2.4-0.4,4-1.3,4.9-2.5
						C669.8,226.7,670.3,225,670.3,222.7z"/>
					<path display="inline" fill="#F18700" d="M706.7,239.1h-23.1v-32h23.1v6.2h-14.9v5.5h13.8v6.2h-13.8v7.9h14.9V239.1z"/>
					<path display="inline" fill="#F18700" d="M738.6,217.2c0,1.4-0.3,2.8-0.8,4.2c-0.5,1.4-1.2,2.5-2.1,3.4
						c-1.3,1.3-2.7,2.2-4.3,2.9c-1.6,0.6-3.5,1-5.8,1h-5.1v10.4h-8.2v-32h13.6c2,0,3.7,0.2,5.1,0.5c1.4,0.3,2.6,0.9,3.7,1.6
						c1.3,0.8,2.3,1.9,3,3.2C738.3,213.8,738.6,215.3,738.6,217.2z M730.1,217.4c0-0.9-0.2-1.7-0.7-2.3c-0.5-0.6-1.1-1.1-1.7-1.4
						c-0.9-0.3-1.7-0.5-2.5-0.6c-0.8,0-1.9-0.1-3.3-0.1h-1.4v9.6h2.4c1.4,0,2.6-0.1,3.5-0.3c0.9-0.2,1.7-0.5,2.3-1
						c0.5-0.5,0.9-1,1.1-1.6C730,219.1,730.1,218.3,730.1,217.4z"/>
					<path display="inline" fill="#F18700" d="M776.7,239.1h-8.2v-21.4l-5.9,13.9h-5.7l-5.9-13.9v21.4h-7.8v-32h9.6l7.2,16l7.2-16
						h9.6V239.1z"/>
					<path display="inline" fill="#F18700" d="M810.8,228.8c0,1.6-0.3,3-0.9,4.3c-0.6,1.3-1.4,2.4-2.4,3.2c-1.3,1-2.7,1.8-4.1,2.2
						c-1.4,0.4-3.1,0.6-5.1,0.6h-14.7v-32h8.2V219h6.6c2.2,0,4,0.2,5.5,0.5c1.4,0.3,2.7,0.9,3.8,1.8c1.1,0.9,1.9,1.9,2.4,3.3
						C810.5,225.8,810.8,227.3,810.8,228.8z M802.3,229c0-0.5-0.1-1-0.2-1.5c-0.1-0.5-0.4-0.9-0.8-1.3c-0.4-0.4-0.9-0.7-1.6-0.9
						c-0.7-0.2-1.6-0.3-2.8-0.3h-5.2v8.1h5.2c0.9,0,1.7-0.1,2.4-0.3c0.7-0.2,1.3-0.5,1.7-0.9c0.4-0.3,0.7-0.8,0.9-1.2
						C802.1,230.2,802.3,229.6,802.3,229z M822.1,239.1h-8.2v-32h8.2V239.1z"/>
					<path display="inline" fill="#F18700" d="M874,246.4h-7.6V239H847v7.4h-7.6v-13.5h2.4c1.7-3.5,2.9-7.4,3.8-11.8
						c0.9-4.4,1.3-9,1.3-14h23.9v25.8h3.2V246.4z M862.6,232.9v-19.6h-8c-0.3,3.9-0.8,7.5-1.7,10.8c-0.9,3.3-1.9,6.2-3.1,8.8H862.6z
						"/>
					<path display="inline" fill="#F18700" d="M909.4,223.1c0,5.1-1.5,9.1-4.4,12.1c-2.9,3-7,4.5-12.1,4.5c-5.1,0-9.2-1.5-12.1-4.5
						c-2.9-3-4.4-7-4.4-12.1c0-5.1,1.5-9.2,4.4-12.2c2.9-3,6.9-4.5,12.1-4.5c5.1,0,9.2,1.5,12.1,4.5
						C907.9,213.9,909.4,218,909.4,223.1z M898.4,231.2c0.8-1,1.4-2.1,1.8-3.4c0.4-1.3,0.6-2.9,0.6-4.7c0-1.9-0.2-3.5-0.7-4.9
						c-0.4-1.3-1-2.4-1.7-3.3c-0.7-0.9-1.6-1.5-2.5-1.9c-1-0.4-1.9-0.6-3-0.6c-1,0-2,0.2-3,0.6c-0.9,0.4-1.8,1-2.5,1.8
						c-0.7,0.8-1.3,1.9-1.7,3.3c-0.4,1.4-0.7,3-0.7,4.9c0,1.9,0.2,3.5,0.7,4.9c0.4,1.3,1,2.4,1.7,3.3c0.7,0.8,1.6,1.5,2.5,1.9
						c1,0.4,2,0.6,3,0.6c1.1,0,2.1-0.2,3-0.6C896.9,232.7,897.7,232,898.4,231.2z"/>
					<path display="inline" fill="#F18700" d="M956.7,239.1h-8.2v-25.8h-12.2v25.8H928v-32h28.7V239.1z"/>
					<path display="inline" fill="#F18700" d="M989.9,217.2c0,1.4-0.3,2.8-0.8,4.2c-0.5,1.4-1.2,2.5-2.1,3.4
						c-1.3,1.3-2.7,2.2-4.3,2.9c-1.6,0.6-3.5,1-5.8,1h-5.1v10.4h-8.2v-32h13.6c2,0,3.7,0.2,5.1,0.5c1.4,0.3,2.6,0.9,3.7,1.6
						c1.3,0.8,2.3,1.9,3,3.2C989.6,213.8,989.9,215.3,989.9,217.2z M981.4,217.4c0-0.9-0.2-1.7-0.7-2.3c-0.5-0.6-1.1-1.1-1.7-1.4
						c-0.9-0.3-1.7-0.5-2.5-0.6c-0.8,0-1.9-0.1-3.3-0.1h-1.4v9.6h2.4c1.4,0,2.6-0.1,3.5-0.3c0.9-0.2,1.7-0.5,2.3-1
						c0.5-0.5,0.9-1,1.1-1.6C981.3,219.1,981.4,218.3,981.4,217.4z"/>
					<path display="inline" fill="#F18700" d="M1023.6,239.1h-8v-21.3l-13.3,21.3h-7.9v-32h8v19.3l12.3-19.3h8.8V239.1z"/>
					<path display="inline" fill="#F18700" d="M1059.3,239.1h-8.2v-25.8h-9.1c-0.1,1.4-0.1,2.5-0.2,3.3c0,0.8-0.1,1.9-0.2,3.2
						c-0.2,2.9-0.5,5.3-0.8,7.3c-0.4,2-0.8,3.6-1.3,4.9c-0.5,1.3-1,2.3-1.5,3.2c-0.5,0.8-1.1,1.5-1.6,2c-0.7,0.7-1.6,1.2-2.6,1.6
						c-1,0.4-2.2,0.6-3.3,0.6c-0.7,0-1.5,0-2.2-0.1c-0.8-0.1-1.3-0.1-1.5-0.1v-7.1h0.3c0.1,0,0.3,0,0.4,0c0.2,0,0.4,0,0.6,0
						c0.8,0,1.4,0,1.8-0.1c0.4-0.1,0.7-0.3,1-0.5c1.1-1,1.8-2.5,2.2-4.6c0.4-2.1,0.7-5,0.9-8.7c0.1-1.5,0.2-3.1,0.2-4.9
						c0-1.8,0.1-3.8,0.1-6h25.1V239.1z"/>
					<path display="inline" fill="#F18700" d="M1095.7,239.1h-8.5l-2.2-6.5h-11.8l-2.2,6.5h-8.3l11.8-32h9.5L1095.7,239.1z
						 M1083,226.7l-3.9-11.5l-3.9,11.5H1083z"/>
					<path display="inline" fill="#F18700" d="M1126.3,229.3c0,1.5-0.3,2.9-0.9,4.1c-0.6,1.2-1.5,2.2-2.6,3c-1.3,0.9-2.6,1.6-4.2,2
						c-1.5,0.4-3.4,0.6-5.7,0.6h-14v-32h12.4c2.6,0,4.5,0.1,5.7,0.3c1.2,0.2,2.4,0.5,3.6,1.1c1.2,0.6,2.1,1.4,2.7,2.5
						c0.6,1,0.9,2.2,0.9,3.6c0,1.5-0.4,2.9-1.2,4.1c-0.8,1.2-2,2.1-3.5,2.8v0.2c2.1,0.4,3.7,1.3,5,2.6
						C1125.7,225.4,1126.3,227.1,1126.3,229.3z M1115.7,216.1c0-0.5-0.1-1.1-0.4-1.6c-0.3-0.5-0.7-0.9-1.4-1.2
						c-0.6-0.2-1.3-0.4-2.2-0.4c-0.9,0-2.1,0-3.8,0h-0.8v6.8h1.3c1.3,0,2.4,0,3.3-0.1c0.9,0,1.6-0.2,2.2-0.4
						c0.7-0.3,1.2-0.8,1.5-1.3C1115.6,217.4,1115.7,216.8,1115.7,216.1z M1117.7,229.1c0-1-0.2-1.8-0.6-2.3c-0.4-0.6-1.1-1-2-1.2
						c-0.6-0.2-1.5-0.3-2.7-0.3c-1.1,0-2.3,0-3.5,0h-1.8v8h0.6c2.3,0,4,0,5,0c1,0,1.9-0.2,2.8-0.6c0.9-0.4,1.4-0.8,1.8-1.4
						C1117.6,230.6,1117.7,229.9,1117.7,229.1z"/>
					<path display="inline" fill="#F18700" d="M1160.9,239.1h-10.1l-9.4-12.9h-2v12.9h-8.2v-32h8.2v13c0.7,0,1.2-0.1,1.7-0.2
						c0.4-0.1,0.8-0.3,1.2-0.6c0.4-0.3,0.8-0.7,1.2-1.3c0.4-0.6,0.9-1.3,1.4-2.1c0.3-0.5,0.6-1.1,1-1.8c0.4-0.7,0.7-1.3,1-1.7
						c1.1-1.9,2.3-3.3,3.5-4.1c1.2-0.8,3.1-1.2,5.5-1.2c0.7,0,1.4,0,2,0c0.6,0,1,0,1.3,0v6.9h-2.4c-1.2,0-2.1,0.3-2.7,0.9
						c-0.7,0.6-1.4,1.7-2.2,3.2c-0.8,1.5-1.4,2.6-1.9,3.2c-0.5,0.6-1,1-1.5,1.3L1160.9,239.1z"/>
					<path display="inline" fill="#F18700" d="M1193.2,239.1h-8.5l-2.2-6.5h-11.8l-2.2,6.5h-8.3l11.8-32h9.5L1193.2,239.1z
						 M1180.5,226.7l-3.9-11.5l-3.9,11.5H1180.5z"/>
				</g>
			</g>
		</g>
	</g>
</g>
</svg>
