<?xml version="1.0" encoding="utf-8"?>
<!-- Generator: Adobe Illustrator 16.0.0, SVG Export Plug-In . SVG Version: 6.00 Build 0)  -->
<!DOCTYPE svg PUBLIC "-//W3C//DTD SVG 1.1//EN" "http://www.w3.org/Graphics/SVG/1.1/DTD/svg11.dtd">
<svg version="1.1" id="Слой_1" xmlns="http://www.w3.org/2000/svg" xmlns:xlink="http://www.w3.org/1999/xlink" x="0px" y="0px"
	 width="131.5px" height="119px" viewBox="0 0 131.5 119" enable-background="new 0 0 131.5 119" xml:space="preserve">
<path fill="#FFFFFF" d="M63.683,27.049v9.076c-0.003,4.698-13.979,8.508-31.217,8.508c-17.24,0-31.214-3.81-31.218-8.508v-9.076
	c0,4.7,13.978,8.51,31.218,8.51C49.707,35.559,63.683,31.749,63.683,27.049L63.683,27.049z M63.683,25.33
	c0,4.701-13.976,8.511-31.217,8.511c-17.24,0-31.218-3.81-31.218-8.511c0-4.699,13.978-8.509,31.218-8.509
	C49.707,16.821,63.683,20.631,63.683,25.33L63.683,25.33z M47.536,24.848l-27.424-1.871l-0.933,1.674l1.017,0.142
	c1.393,0.197,3.163,0.626,2.341,2.089l-0.255,0.457l5.069,0.346l0.255-0.457c0.352-0.633,0.461-1.174,0.329-1.637l18.48,1.261
	L47.536,24.848L47.536,24.848z M32.465,46.952c-17.24,0-31.218-3.81-31.218-8.509v9.076c0.003,4.698,13.978,8.509,31.218,8.509
	c17.238,0,31.214-3.812,31.217-8.509v-9.076C63.683,43.142,49.705,46.952,32.465,46.952L32.465,46.952z M32.465,58.411
	c-17.24,0-31.218-3.812-31.218-8.511v9.078c0.003,4.698,13.978,8.508,31.218,8.508c17.238,0,31.214-3.812,31.217-8.508V49.9
	C63.683,54.599,49.705,58.411,32.465,58.411L32.465,58.411z M32.465,69.673c-17.24,0-31.218-3.812-31.218-8.512v9.075
	c0.003,4.699,13.978,8.511,31.218,8.511c17.238,0,31.214-3.812,31.217-8.511v-9.075C63.683,65.866,49.705,69.673,32.465,69.673
	L32.465,69.673z M32.465,80.797c-17.24,0-31.218-3.811-31.218-8.509v9.073c0.003,4.699,13.978,8.511,31.218,8.511
	c17.238,0,31.214-3.812,31.217-8.511v-9.073C63.683,76.986,49.705,80.797,32.465,80.797L32.465,80.797z M32.465,91.902
	c-17.24,0-31.218-3.811-31.218-8.512v9.078c0.003,4.697,13.978,8.506,31.218,8.506c17.238,0,31.214-3.809,31.217-8.506v-9.078
	C63.683,88.093,49.705,91.902,32.465,91.902L32.465,91.902z M67.996,27.657h0.229v0.23c4.945,0.899,10.892,1.426,17.289,1.426
	c17.236,0,31.209-3.809,31.217-8.506v-9.078c0,4.701-13.977,8.509-31.217,8.509c-17.242,0-31.217-3.81-31.217-8.511v3.414
	c7.491,1.8,13.928,5.022,13.928,10.795C68.225,26.541,68.133,27.106,67.996,27.657L67.996,27.657z M54.296,10.01
	c0-4.701,13.976-8.51,31.218-8.51c17.239,0,31.217,3.809,31.217,8.51c0,4.701-13.978,8.511-31.217,8.511
	C68.271,18.521,54.296,14.711,54.296,10.01L54.296,10.01z M70.439,10.494l27.424,1.869l0.936-1.674l-1.02-0.141
	c-1.396-0.197-3.158-0.625-2.346-2.089l0.26-0.458l-5.07-0.344l-0.25,0.457c-0.357,0.633-0.465,1.175-0.332,1.637L71.561,8.49
	L70.439,10.494L70.439,10.494z M85.514,40.706c17.236,0,31.209-3.81,31.217-8.508V23.12c0,4.701-13.977,8.511-31.217,8.511
	c-6.397,0-12.344-0.528-17.289-1.429v6.528c-0.004,0.825-0.145,1.592-0.391,2.315h0.391v0.231
	C73.17,40.179,79.115,40.706,85.514,40.706L85.514,40.706z M68.225,50.508v0.231c4.945,0.899,10.892,1.425,17.289,1.425
	c17.236,0,31.209-3.808,31.217-8.508V34.58c0,4.703-13.977,8.511-31.217,8.511c-6.397,0-12.344-0.525-17.289-1.426v6.459
	c-0.004,0.851-0.158,1.64-0.42,2.383L68.225,50.508L68.225,50.508z M116.73,54.057v-8.212c0,2.84-5.119,5.345-12.957,6.892
	C107.215,52.889,111.99,53.245,116.73,54.057L116.73,54.057z M68.225,58.514c3.031-2.063,7.56-3.406,12.236-4.279
	c-4.463-0.197-8.617-0.649-12.236-1.308V58.514L68.225,58.514z M99.023,74.764c-17.246,0-31.219-3.81-31.219-8.514v9.079
	c0.008,4.7,13.977,8.51,31.219,8.51c17.24,0,31.213-3.81,31.217-8.51V66.25C130.24,70.954,116.264,74.764,99.023,74.764
	L99.023,74.764z M99.023,56.028c17.24,0,31.217,3.808,31.217,8.507c0,4.701-13.977,8.512-31.217,8.512
	c-17.246,0-31.219-3.811-31.219-8.512C67.805,59.836,81.781,56.028,99.023,56.028L99.023,56.028z M103.553,64.275l-18.48-1.262
	l-1.116,2.004l27.424,1.871l0.933-1.676l-1.017-0.141c-1.392-0.197-3.157-0.625-2.34-2.092l0.254-0.455l-5.067-0.346l-0.252,0.457
	C103.529,63.271,103.42,63.813,103.553,64.275L103.553,64.275z M99.023,86.154c-17.246,0-31.219-3.812-31.219-8.51v9.076
	c0.008,4.701,13.977,8.51,31.219,8.51c17.24,0,31.213-3.809,31.217-8.51v-9.074C130.24,82.344,116.264,86.154,99.023,86.154
	L99.023,86.154z M99.023,97.614c-17.246,0-31.219-3.81-31.219-8.511v9.076c0.008,4.696,13.977,8.508,31.219,8.508
	c17.24,0,31.213-3.812,31.217-8.508v-9.076C130.24,93.809,116.264,97.614,99.023,97.614L99.023,97.614z M99.023,108.88
	c-17.246,0-31.219-3.812-31.219-8.512v9.077c0.008,4.699,13.977,8.507,31.219,8.507c17.24,0,31.213-3.808,31.217-8.507v-9.077
	C130.24,105.068,116.264,108.88,99.023,108.88L99.023,108.88z"/>
</svg>
