<?xml version="1.0" encoding="utf-8"?>
<!-- Generator: Adobe Illustrator 17.0.0, SVG Export Plug-In . SVG Version: 6.00 Build 0)  -->
<!DOCTYPE svg PUBLIC "-//W3C//DTD SVG 1.1//EN" "http://www.w3.org/Graphics/SVG/1.1/DTD/svg11.dtd">
<svg version="1.1" id="Слой_1" xmlns="http://www.w3.org/2000/svg" xmlns:xlink="http://www.w3.org/1999/xlink" x="0px" y="0px"
	 width="506.128px" height="184.893px" viewBox="0 0 506.128 184.893" enable-background="new 0 0 506.128 184.893"
	 xml:space="preserve">
<g>
	<path fill="#E52322" d="M479.158,16.738c-1.31-0.387-2.277-1.59-2.277-3.022V3.164c0-1.74-1.424-3.164-3.163-3.164h-35.822
		c-1.738,0-3.162,1.424-3.162,3.164v10.553c0,1.432-0.969,2.635-2.278,3.022c-24.204,1.137-26.97,4.254-26.97,7.644
		c0,0,0,152.701,0,154.41c0,4.266,4.374,6.1,50.321,6.1c45.947,0,50.321-1.834,50.321-6.1c0-1.709,0-154.41,0-154.41
		C506.128,20.992,503.362,17.875,479.158,16.738z M455.806,176.996c-21.969,0-34.519-0.598-39.087-0.869
		c-1.103-0.066-1.996-1.027-1.996-2.131V32.457c0-1.105,0.891-2.098,1.992-2.178c3.935-0.289,14.549-0.822,39.091-0.822
		c24.541,0,35.157,0.533,39.093,0.822c1.102,0.08,1.992,1.072,1.992,2.178v141.539c0,1.104-0.893,2.064-1.996,2.131
		C490.326,176.398,477.775,176.996,455.806,176.996z"/>
	<path opacity="0.35" fill="#FFFFFF" d="M416.719,176.127c-1.103-0.066-1.996-1.027-1.996-2.131V32.457
		c0-1.105,0.891-2.098,1.992-2.178c3.935-0.289,14.549-0.822,39.091-0.822V0h-17.911c-1.738,0-3.162,1.424-3.162,3.164v10.553
		c0,1.432-0.969,2.635-2.278,3.022c-24.204,1.137-26.97,4.254-26.97,7.644c0,0,0,152.701,0,154.41c0,4.266,4.374,6.1,50.321,6.1
		v-7.896C433.837,176.996,421.288,176.398,416.719,176.127z"/>
</g>
<g>
	<path fill="#ED7C0C" d="M322.062,139.73c-0.87,0-1.582,0.713-1.582,1.582v23.195c0,0.869,0.712,1.58,1.582,1.58h64.748
		c0.87,0,1.582-0.711,1.582-1.58v-23.195c0-0.869-0.712-1.582-1.582-1.582H322.062z"/>
	<path fill="#ED7C0C" d="M377.787,16.738c-1.31-0.387-2.277-1.59-2.277-3.022V3.164c0-1.74-1.424-3.164-3.163-3.164h-35.822
		c-1.738,0-3.162,1.424-3.162,3.164v10.553c0,1.432-0.969,2.635-2.278,3.022c-24.204,1.137-26.97,4.254-26.97,7.644
		c0,0,0,152.701,0,154.41c0,4.266,4.374,6.1,50.321,6.1s50.321-1.834,50.321-6.1c0-1.709,0-154.41,0-154.41
		C404.756,20.992,401.991,17.875,377.787,16.738z M354.435,176.996c-21.969,0-34.519-0.598-39.087-0.869
		c-1.103-0.066-1.996-1.027-1.996-2.131V32.457c0-1.105,0.891-2.098,1.992-2.178c3.935-0.289,14.549-0.822,39.091-0.822
		c24.541,0,35.157,0.533,39.093,0.822c1.102,0.08,1.992,1.072,1.992,2.178v141.539c0,1.104-0.893,2.064-1.996,2.131
		C388.955,176.398,376.404,176.996,354.435,176.996z"/>
	<g>
		<path opacity="0.28" fill="#FFFFFF" d="M322.061,139.73c-0.87,0-1.582,0.713-1.582,1.582v23.195c0,0.869,0.712,1.58,1.582,1.58
			h32.374V139.73H322.061z"/>
		<path opacity="0.28" fill="#FFFFFF" d="M315.348,176.127c-1.103-0.066-1.996-1.027-1.996-2.131V32.457
			c0-1.105,0.891-2.098,1.992-2.178c3.935-0.289,14.549-0.822,39.091-0.822V0h-17.911c-1.738,0-3.162,1.424-3.162,3.164v10.553
			c0,1.432-0.969,2.635-2.278,3.022c-24.204,1.137-26.97,4.254-26.97,7.644c0,0,0,152.701,0,154.41c0,4.266,4.374,6.1,50.321,6.1
			v-7.896C332.466,176.996,319.917,176.398,315.348,176.127z"/>
	</g>
</g>
<g>
	<g>
		<path fill="#FCCE09" d="M220.691,139.73c-0.87,0-1.582,0.713-1.582,1.582v23.195c0,0.869,0.712,1.58,1.582,1.58h64.748
			c0.87,0,1.582-0.711,1.582-1.58v-23.195c0-0.869-0.712-1.582-1.582-1.582H220.691z"/>
		<path fill="#FCCE09" d="M220.691,106.488c-0.87,0-1.582,0.713-1.582,1.582v23.195c0,0.869,0.712,1.58,1.582,1.58h64.748
			c0.87,0,1.582-0.711,1.582-1.58V108.07c0-0.869-0.712-1.582-1.582-1.582H220.691z"/>
	</g>
	<path fill="#FCCE09" d="M276.416,16.738c-1.31-0.387-2.277-1.59-2.277-3.022V3.164c0-1.74-1.424-3.164-3.163-3.164h-35.822
		c-1.738,0-3.162,1.424-3.162,3.164v10.553c0,1.432-0.969,2.635-2.278,3.022c-24.204,1.137-26.97,4.254-26.97,7.644
		c0,0,0,152.701,0,154.41c0,4.266,4.374,6.1,50.321,6.1s50.321-1.834,50.321-6.1c0-1.709,0-154.41,0-154.41
		C303.385,20.992,300.62,17.875,276.416,16.738z M253.064,176.996c-21.969,0-34.519-0.598-39.087-0.869
		c-1.103-0.066-1.996-1.027-1.996-2.131V32.457c0-1.105,0.89-2.098,1.992-2.178c3.934-0.289,14.549-0.822,39.091-0.822
		c24.541,0,35.157,0.533,39.093,0.822c1.102,0.08,1.992,1.072,1.992,2.178v141.539c0,1.104-0.894,2.064-1.996,2.131
		C287.583,176.398,275.033,176.996,253.064,176.996z"/>
	<g>
		<path opacity="0.28" fill="#FFFFFF" d="M220.69,139.73c-0.87,0-1.582,0.713-1.582,1.582v23.195c0,0.869,0.712,1.58,1.582,1.58
			h32.374V139.73H220.69z"/>
		<path opacity="0.28" fill="#FFFFFF" d="M220.69,106.488c-0.87,0-1.582,0.713-1.582,1.582v23.195c0,0.869,0.712,1.58,1.582,1.58
			h32.374v-26.357H220.69z"/>
		<path opacity="0.28" fill="#FFFFFF" d="M213.977,176.127c-1.103-0.066-1.996-1.027-1.996-2.131V32.457
			c0-1.105,0.891-2.098,1.992-2.178c3.936-0.289,14.549-0.822,39.091-0.822V0h-17.911c-1.738,0-3.162,1.424-3.162,3.164v10.553
			c0,1.432-0.969,2.635-2.278,3.022c-24.204,1.137-26.97,4.254-26.97,7.644c0,0,0,152.701,0,154.41c0,4.266,4.374,6.1,50.321,6.1
			v-7.896C231.095,176.996,218.545,176.398,213.977,176.127z"/>
	</g>
</g>
<g>
	<g>
		<path fill="#C7D41F" d="M119.319,139.73c-0.87,0-1.582,0.713-1.582,1.582v23.195c0,0.869,0.712,1.58,1.582,1.58h64.748
			c0.87,0,1.582-0.711,1.582-1.58v-23.195c0-0.869-0.712-1.582-1.582-1.582H119.319z"/>
		<path fill="#C7D41F" d="M119.319,106.488c-0.87,0-1.582,0.713-1.582,1.582v23.195c0,0.869,0.712,1.58,1.582,1.58h64.748
			c0.87,0,1.582-0.711,1.582-1.58V108.07c0-0.869-0.712-1.582-1.582-1.582H119.319z"/>
		<path fill="#C7D41F" d="M119.319,73.246c-0.87,0-1.582,0.713-1.582,1.582v23.195c0,0.871,0.712,1.582,1.582,1.582h64.748
			c0.87,0,1.582-0.711,1.582-1.582V74.828c0-0.869-0.712-1.582-1.582-1.582H119.319z"/>
	</g>
	<path fill="#C7D41F" d="M175.044,16.738c-1.31-0.387-2.277-1.59-2.277-3.022V3.164c0-1.74-1.424-3.164-3.163-3.164h-35.822
		c-1.738,0-3.162,1.424-3.162,3.164v10.553c0,1.432-0.968,2.635-2.278,3.022c-24.204,1.137-26.97,4.254-26.97,7.644
		c0,0,0,152.701,0,154.41c0,4.266,4.374,6.1,50.321,6.1s50.321-1.834,50.321-6.1c0-1.709,0-154.41,0-154.41
		C202.014,20.992,199.248,17.875,175.044,16.738z M151.692,176.996c-21.969,0-34.519-0.598-39.087-0.869
		c-1.103-0.066-1.996-1.027-1.996-2.131V32.457c0-1.105,0.89-2.098,1.992-2.178c3.935-0.289,14.549-0.822,39.091-0.822
		c24.541,0,35.157,0.533,39.093,0.822c1.102,0.08,1.992,1.072,1.992,2.178v141.539c0,1.104-0.894,2.064-1.996,2.131
		C186.212,176.398,173.661,176.996,151.692,176.996z"/>
	<g>
		<path opacity="0.28" fill="#FFFFFF" d="M119.318,139.73c-0.87,0-1.582,0.713-1.582,1.582v23.195c0,0.869,0.712,1.58,1.582,1.58
			h32.374V139.73H119.318z"/>
		<path opacity="0.28" fill="#FFFFFF" d="M119.318,106.488c-0.87,0-1.582,0.713-1.582,1.582v23.195c0,0.869,0.712,1.58,1.582,1.58
			h32.374v-26.357H119.318z"/>
		<path opacity="0.28" fill="#FFFFFF" d="M119.318,73.246c-0.87,0-1.582,0.713-1.582,1.582v23.195c0,0.871,0.712,1.582,1.582,1.582
			h32.374V73.246H119.318z"/>
		<path opacity="0.28" fill="#FFFFFF" d="M112.605,176.127c-1.103-0.066-1.996-1.027-1.996-2.131V32.457
			c0-1.105,0.891-2.098,1.992-2.178c3.936-0.289,14.549-0.822,39.091-0.822V0h-17.911c-1.738,0-3.162,1.424-3.162,3.164v10.553
			c0,1.432-0.969,2.635-2.278,3.022c-24.204,1.137-26.97,4.254-26.97,7.644c0,0,0,152.701,0,154.41c0,4.266,4.374,6.1,50.321,6.1
			v-7.896C129.724,176.996,117.174,176.398,112.605,176.127z"/>
	</g>
</g>
<g>
	<g>
		<path fill="#95BD48" d="M17.948,139.73c-0.87,0-1.582,0.713-1.582,1.582v23.195c0,0.869,0.712,1.58,1.582,1.58h64.748
			c0.87,0,1.582-0.711,1.582-1.58v-23.195c0-0.869-0.712-1.582-1.582-1.582H17.948z"/>
		<path fill="#95BD48" d="M17.948,106.488c-0.87,0-1.582,0.713-1.582,1.582v23.195c0,0.869,0.712,1.58,1.582,1.58h64.748
			c0.87,0,1.582-0.711,1.582-1.58V108.07c0-0.869-0.712-1.582-1.582-1.582H17.948z"/>
		<path fill="#95BD48" d="M17.948,73.246c-0.87,0-1.582,0.713-1.582,1.582v23.195c0,0.871,0.712,1.582,1.582,1.582h64.748
			c0.87,0,1.582-0.711,1.582-1.582V74.828c0-0.869-0.712-1.582-1.582-1.582H17.948z"/>
		<path fill="#95BD48" d="M17.948,40.004c-0.87,0-1.582,0.713-1.582,1.58v23.199c0,0.867,0.712,1.58,1.582,1.58h64.748
			c0.87,0,1.582-0.713,1.582-1.58V41.584c0-0.867-0.712-1.58-1.582-1.58H17.948z"/>
	</g>
	<path fill="#95BD48" d="M73.673,16.738c-1.31-0.387-2.277-1.59-2.277-3.022V3.164c0-1.74-1.424-3.164-3.163-3.164H32.41
		c-1.738,0-3.162,1.424-3.162,3.164v10.553c0,1.432-0.969,2.635-2.278,3.022C2.766,17.875,0,20.992,0,24.383c0,0,0,152.701,0,154.41
		c0,4.266,4.374,6.1,50.321,6.1c45.947,0,50.321-1.834,50.321-6.1c0-1.709,0-154.41,0-154.41
		C100.643,20.992,97.877,17.875,73.673,16.738z M50.321,176.996c-21.969,0-34.518-0.598-39.087-0.869
		c-1.102-0.066-1.996-1.027-1.996-2.131V32.457c0-1.105,0.891-2.098,1.992-2.178c3.936-0.289,14.549-0.822,39.091-0.822
		c24.541,0,35.157,0.533,39.093,0.822c1.102,0.08,1.992,1.072,1.992,2.178v141.539c0,1.104-0.894,2.064-1.996,2.131
		C84.841,176.398,72.29,176.996,50.321,176.996z"/>
	<g>
		<path opacity="0.28" fill="#FFFFFF" d="M17.947,139.73c-0.87,0-1.582,0.713-1.582,1.582v23.195c0,0.869,0.712,1.58,1.582,1.58
			h32.374V139.73H17.947z"/>
		<path opacity="0.28" fill="#FFFFFF" d="M17.947,106.488c-0.87,0-1.582,0.713-1.582,1.582v23.195c0,0.869,0.712,1.58,1.582,1.58
			h32.374v-26.357H17.947z"/>
		<path opacity="0.28" fill="#FFFFFF" d="M17.947,73.246c-0.87,0-1.582,0.713-1.582,1.582v23.195c0,0.871,0.712,1.582,1.582,1.582
			h32.374V73.246H17.947z"/>
		<path opacity="0.28" fill="#FFFFFF" d="M17.947,40.004c-0.87,0-1.582,0.713-1.582,1.58v23.199c0,0.867,0.712,1.58,1.582,1.58
			h32.374V40.004H17.947z"/>
		<path opacity="0.28" fill="#FFFFFF" d="M11.234,176.127c-1.102-0.066-1.996-1.027-1.996-2.131V32.457
			c0-1.105,0.891-2.098,1.992-2.178c3.936-0.289,14.549-0.822,39.091-0.822V0H32.41c-1.738,0-3.162,1.424-3.162,3.164v10.553
			c0,1.432-0.969,2.635-2.278,3.022C2.766,17.875,0,20.992,0,24.383c0,0,0,152.701,0,154.41c0,4.266,4.374,6.1,50.321,6.1v-7.896
			C28.353,176.996,15.803,176.398,11.234,176.127z"/>
	</g>
</g>
</svg>
