<?xml version="1.0" encoding="utf-8"?>
<!-- Generator: Adobe Illustrator 17.0.0, SVG Export Plug-In . SVG Version: 6.00 Build 0)  -->
<!DOCTYPE svg PUBLIC "-//W3C//DTD SVG 1.1//EN" "http://www.w3.org/Graphics/SVG/1.1/DTD/svg11.dtd">
<svg version="1.1" id="Слой_1" xmlns="http://www.w3.org/2000/svg" xmlns:xlink="http://www.w3.org/1999/xlink" x="0px" y="0px"
	 width="150px" height="307px" viewBox="4.14 5.447 150 307" enable-background="new 4.14 5.447 150 307" xml:space="preserve">
<g>
	<g>
		<defs>
			<path id="SVGID_1_" d="M19.572,77.65c0,0,0.602-3.783,0-7.911c-0.602-4.127-1.72-9.544-1.118-15.564
				c0.602-6.019,1.72-9.974,4.299-11.694c2.58-1.72,6.535-2.537,8.126-5.417c1.591-2.881-0.258-5.03-0.645-5.503s-1.763,0-1.763,0
				s0.817-1.29,0.129-2.365s-2.589-1.548-3.702-1.333c0,0-0.769-0.774-4.036-0.645s-4.428-0.301-5.675,0.774
				s-3.053,3.525-4.815,12.081S8.479,54.348,5.9,66.902S4.61,87.883,5.126,88.829S11.661,93.3,23.355,93.3
				s27.086-6.277,27.086-6.277s0.258,1.376-1.548,4.471s-1.72,3.869-1.634,4.643c0.086,0.774,1.634,4.041,2.322,6.707
				s0.516,6.965,1.462,8.685c0.946,1.72,1.462,2.494,1.548,3.439s-1.376,2.408-1.634,8.169c-0.258,5.761,0.258,13.5,0.602,14.79
				s0.86,2.838,0.516,3.353c-0.344,0.516-1.032,2.064-0.516,2.838c0.516,0.774,1.204,1.978,0.344,2.064s-2.924,2.494-3.096,3.525
				c-0.172,1.032,0.516,10.404-0.086,14.79c-0.602,4.385-2.408,6.965-2.58,8.255c-0.172,1.29,0.344,4.729,0.086,8.341
				c-0.258,3.611-1.29,6.277-1.462,8.341c-0.172,2.064,0.086,3.267-0.774,4.213c-0.86,0.946,0.172,4.299,0.172,5.417
				c0,1.118-1.29,1.72-0.946,3.267c0.344,1.548,0.344,4.041-0.258,5.503s-0.172,3.697-0.43,4.643s-1.548,0.86-1.376,2.322
				s0.86,3.439-0.172,4.901s-1.978,4.127-1.806,5.933s0.774,5.159,4.213,7.051c0,0-1.806,7.739-3.01,20.379
				s-0.43,19.777-1.892,24.248s-7.825,11.866-7.825,11.866s-2.15-0.86-3.181,0.688s0,3.869,0,3.869s-3.181,1.462-3.783,2.58
				s0.086,2.408,0.086,2.408s-2.408,1.548-2.236,4.213c0.172,2.666,2.236,6.621,9.201,6.621s8.685-3.525,9.888-6.191
				c1.204-2.666,1.634-5.417,4.815-7.309s6.363-4.815,6.363-7.137s-1.634-3.525-2.752-3.611c0,0,0.688-1.806,0.86-3.096
				s-0.258-5.159,0.258-7.481s4.213-12.812,6.277-19.175s5.073-16.939,5.331-20.981c0,0,1.978-0.516,3.096-1.376
				c1.118-0.86,3.01-2.408,4.643-3.01c1.634-0.602,2.15-0.43,2.15-1.032s-0.688-7.911,0-10.49c0.688-2.58,2.15-4.041,2.322-5.933
				s-0.774-2.58,0-3.611c0.774-1.032,1.204-0.774,1.29-2.322s-0.258-4.127,0.602-5.245s1.032-1.978,0.688-2.924
				c-0.344-0.946-0.258-2.924,0.774-3.869s1.634-1.204,1.462-1.892c-0.172-0.688-0.372-2.064,0.029-2.15s1.089,1.548,1.605,1.806
				c0.516,0.258,1.892,1.29,1.806,3.525c-0.086,2.236-0.766,4.127,0.004,5.073s0.168,4.471,0.684,5.159s1.118,0.946,1.118,3.439
				s0.258,3.955,0.86,4.901s0.688,1.892,0,2.58s0.538,2.15,0.484,3.01s-0.656,2.322-0.828,2.838
				c-0.172,0.516-0.086,4.815,0.344,5.245s3.783,0.86,4.643,1.29s-0.344,1.462,1.376,2.322s2.15,0.258,3.353,1.462
				c1.204,1.204,1.978,1.118,2.924,1.204c0.946,0.086,1.978,0.688,1.978,0.688s-0.516,2.666,1.72,8.771s5.675,12.898,8.083,19.089
				c2.408,6.191,5.847,17.885,6.277,19.949s0,3.525,0,3.525s-2.58,0.344-2.58,3.869s3.096,4.471,6.105,6.707
				c3.01,2.236,4.729,3.697,7.395,7.997c2.666,4.299,6.965,6.879,11.006,6.879s5.159-1.462,6.363-3.01
				c1.204-1.548,2.064-4.127,1.376-6.363c-0.688-2.236-3.353-3.525-3.353-3.525s0.172-1.376-1.376-2.236s-3.01-1.978-3.01-1.978
				s0.774-2.924-1.118-4.385s-2.924-0.516-2.924-0.516s-2.494-3.955-4.729-6.707c-2.236-2.752-3.611-5.245-3.783-7.825
				c-0.172-2.58-0.43-13.758-2.666-27.258s-5.159-17.627-5.159-17.627s2.924-2.838,3.267-4.213c0.344-1.376-0.172-2.58-0.86-3.096
				c-0.688-0.516-0.946-2.494-1.032-3.869s-0.258-1.892-1.032-2.666c-0.774-0.774-1.72-3.096-1.032-4.385s1.634-1.892,1.376-2.666
				s-1.548-1.978-1.806-2.838s-1.032-7.223-0.774-11.178s0.43-5.503-0.344-6.363s-1.032-2.236-0.946-3.955
				c0.086-1.72,0.43-2.666-0.172-3.353c-0.602-0.688,0.43-3.439-0.172-5.331s-1.806-4.041-1.032-4.987s0.602-2.494-0.172-3.783
				c-0.774-1.29-1.548-3.353-1.548-3.353s1.806,0.258,1.72-0.688s-0.258-5.159-1.118-8.599c-0.86-3.439-2.15-8.083-3.783-10.662
				c0,0,3.439-1.634,3.181-4.987s-2.408-13.586-1.462-18.917s2.064-8.685,3.955-11.092c1.892-2.408,0.086-5.073,0.774-6.707
				s2.666-2.752,2.408-4.643c-0.258-1.892-2.322-5.503-2.322-5.503s13.242,6.449,25.71,6.449s13.93-2.322,14.188-3.697
				c0.258-1.376,0.344-9.201-1.376-23.13c-1.72-13.93-4.471-22.356-5.245-24.506c-0.774-2.15-0.86-7.997-0.774-9.458
				s-3.203-3.181-3.977-3.504c-0.774-0.322-2.322-0.322-2.515-0.129c-0.193,0.193-1.741-1.032-2.967,0c0,0-0.516-0.903-2.257-0.774
				s-2.064,1.161-2.064,1.161s-0.967-1.032-2.451,0c-1.483,1.032-0.387,4.127-0.387,4.127s-3.031-0.387-2.902,2.322
				s3.16,6.449,5.288,7.803s4.256,1.935,4.256,1.935s3.224,7.287,3.224,16.122s-2.322,12.511-1.677,15.929
				c0,0-5.095-2.322-11.286-4.385s-15.349-8.835-15.349-8.835s0.451-1.096-0.774-1.483s-3.418-0.903-6.836-1.29
				s-5.546,0.193-5.546,0.193s0.064-1.225-2.193-1.612c0,0-1.096-2.451-2.644-2.451s-2.193,0.129-2.193,0.129v-2.644
				c0,0,3.224-1.999,4.708-4.514s1.677-6.255,1.677-6.255s1.161,0.387,1.741-1.225c0.58-1.612,0.516-2.773,1.483-4.901
				c0.967-2.128,2.838-5.224,2.115-6.4c-0.955-1.556-2.567-0.113-2.567-0.113s0.516-1.935,1.032-3.74s0.645-7.674,0.193-9.029
				c-0.451-1.354-0.387-2.451-0.451-3.611c-0.064-1.161,0.064-2.322-0.709-3.611c-0.774-1.29-0.967-4.063-1.741-4.837
				c-0.774-0.774-1.806-1.419-2.257-2.128c-0.451-0.709-1.096-0.709-1.741-1.225s0.064-1.096-1.935-1.29
				c-1.999-0.193-3.805-1.032-4.45-1.612s-1.677-0.774-2.773-0.709c-1.096,0.064-1.87,0.387-3.224,0.322
				c-1.354-0.064-1.741-0.322-2.322,0.129c-0.58,0.451-0.967,0.774-1.741,0.903c-0.774,0.129-3.224-0.258-4.063,0.58
				c-0.838,0.838-1.935,2.128-3.482,3.289s-3.353,3.676-4.514,5.288s-1.806,4.837-1.806,6.642c0,1.806,0.645,2.644,0.451,3.934
				s-0.903,2.386-0.838,4.579s0.58,4.063,0.58,4.063s-2.064-0.903-2.128,1.87s0.774,4.127,1.419,5.224
				c0.645,1.097,1.548,3.676,1.87,4.643s1.741,1.225,1.935,0.451c0,0,0.645,4.321,1.161,5.804c0.516,1.483,2.257,3.224,2.257,3.224
				l-0.645,5.675c0,0-1.612,0.58-2.128,1.161c-0.516,0.58-1.032-0.193-2.064,0.967c-1.032,1.161-1.032,1.483-1.354,1.419
				s-0.774-1.096-1.612-0.967c-0.838,0.129-1.225,1.29-1.935,1.225c-0.709-0.064-3.096,0.064-3.547-0.129s-1.096-0.838-2.451-0.774
				c-1.354,0.064-2.257,1.161-2.902,1.548c-0.645,0.387-11.673,4.45-17.799,6.384c-6.127,1.935-5.224,1.741-8.319,2.386
				S21.829,75.931,19.572,77.65z"/>
		</defs>
		<clipPath id="SVGID_2_">
			<use xlink:href="#SVGID_1_"  overflow="visible"/>
		</clipPath>
		<rect x="-1" y="3.672" clip-path="url(#SVGID_2_)" fill="#C7D7DB" width="162" height="310.545"/>
	</g>
	<g>
		<defs>
			<path id="SVGID_3_" d="M19.572,77.65c0,0,0.602-3.783,0-7.911c-0.602-4.127-1.72-9.544-1.118-15.564
				c0.602-6.019,1.72-9.974,4.299-11.694c2.58-1.72,6.535-2.537,8.126-5.417c1.591-2.881-0.258-5.03-0.645-5.503s-1.763,0-1.763,0
				s0.817-1.29,0.129-2.365s-2.589-1.548-3.702-1.333c0,0-0.769-0.774-4.036-0.645s-4.428-0.301-5.675,0.774
				s-3.053,3.525-4.815,12.081S8.479,54.348,5.9,66.902S4.61,87.883,5.126,88.829S11.661,93.3,23.355,93.3
				s27.086-6.277,27.086-6.277s0.258,1.376-1.548,4.471s-1.72,3.869-1.634,4.643c0.086,0.774,1.634,4.041,2.322,6.707
				s0.516,6.965,1.462,8.685c0.946,1.72,1.462,2.494,1.548,3.439s-1.376,2.408-1.634,8.169c-0.258,5.761,0.258,13.5,0.602,14.79
				s0.86,2.838,0.516,3.353c-0.344,0.516-1.032,2.064-0.516,2.838c0.516,0.774,1.204,1.978,0.344,2.064s-2.924,2.494-3.096,3.525
				c-0.172,1.032,0.516,10.404-0.086,14.79c-0.602,4.385-2.408,6.965-2.58,8.255c-0.172,1.29,0.344,4.729,0.086,8.341
				c-0.258,3.611-1.29,6.277-1.462,8.341c-0.172,2.064,0.086,3.267-0.774,4.213c-0.86,0.946,0.172,4.299,0.172,5.417
				c0,1.118-1.29,1.72-0.946,3.267c0.344,1.548,0.344,4.041-0.258,5.503s-0.172,3.697-0.43,4.643s-1.548,0.86-1.376,2.322
				s0.86,3.439-0.172,4.901s-1.978,4.127-1.806,5.933s0.774,5.159,4.213,7.051c0,0-1.806,7.739-3.01,20.379
				s-0.43,19.777-1.892,24.248s-7.825,11.866-7.825,11.866s-2.15-0.86-3.181,0.688s0,3.869,0,3.869s-3.181,1.462-3.783,2.58
				s0.086,2.408,0.086,2.408s-2.408,1.548-2.236,4.213c0.172,2.666,2.236,6.621,9.201,6.621s8.685-3.525,9.888-6.191
				c1.204-2.666,1.634-5.417,4.815-7.309s6.363-4.815,6.363-7.137s-1.634-3.525-2.752-3.611c0,0,0.688-1.806,0.86-3.096
				s-0.258-5.159,0.258-7.481s4.213-12.812,6.277-19.175s5.073-16.939,5.331-20.981c0,0,1.978-0.516,3.096-1.376
				c1.118-0.86,3.01-2.408,4.643-3.01c1.634-0.602,2.15-0.43,2.15-1.032s-0.688-7.911,0-10.49c0.688-2.58,2.15-4.041,2.322-5.933
				s-0.774-2.58,0-3.611c0.774-1.032,1.204-0.774,1.29-2.322s-0.258-4.127,0.602-5.245s1.032-1.978,0.688-2.924
				c-0.344-0.946-0.258-2.924,0.774-3.869s1.634-1.204,1.462-1.892c-0.172-0.688-0.372-2.064,0.029-2.15s1.089,1.548,1.605,1.806
				c0.516,0.258,1.892,1.29,1.806,3.525c-0.086,2.236-0.766,4.127,0.004,5.073s0.168,4.471,0.684,5.159s1.118,0.946,1.118,3.439
				s0.258,3.955,0.86,4.901s0.688,1.892,0,2.58s0.538,2.15,0.484,3.01s-0.656,2.322-0.828,2.838
				c-0.172,0.516-0.086,4.815,0.344,5.245s3.783,0.86,4.643,1.29s-0.344,1.462,1.376,2.322s2.15,0.258,3.353,1.462
				c1.204,1.204,1.978,1.118,2.924,1.204c0.946,0.086,1.978,0.688,1.978,0.688s-0.516,2.666,1.72,8.771s5.675,12.898,8.083,19.089
				c2.408,6.191,5.847,17.885,6.277,19.949s0,3.525,0,3.525s-2.58,0.344-2.58,3.869s3.096,4.471,6.105,6.707
				c3.01,2.236,4.729,3.697,7.395,7.997c2.666,4.299,6.965,6.879,11.006,6.879s5.159-1.462,6.363-3.01
				c1.204-1.548,2.064-4.127,1.376-6.363c-0.688-2.236-3.353-3.525-3.353-3.525s0.172-1.376-1.376-2.236s-3.01-1.978-3.01-1.978
				s0.774-2.924-1.118-4.385s-2.924-0.516-2.924-0.516s-2.494-3.955-4.729-6.707c-2.236-2.752-3.611-5.245-3.783-7.825
				c-0.172-2.58-0.43-13.758-2.666-27.258s-5.159-17.627-5.159-17.627s2.924-2.838,3.267-4.213c0.344-1.376-0.172-2.58-0.86-3.096
				c-0.688-0.516-0.946-2.494-1.032-3.869s-0.258-1.892-1.032-2.666c-0.774-0.774-1.72-3.096-1.032-4.385s1.634-1.892,1.376-2.666
				s-1.548-1.978-1.806-2.838s-1.032-7.223-0.774-11.178s0.43-5.503-0.344-6.363s-1.032-2.236-0.946-3.955
				c0.086-1.72,0.43-2.666-0.172-3.353c-0.602-0.688,0.43-3.439-0.172-5.331s-1.806-4.041-1.032-4.987s0.602-2.494-0.172-3.783
				c-0.774-1.29-1.548-3.353-1.548-3.353s1.806,0.258,1.72-0.688s-0.258-5.159-1.118-8.599c-0.86-3.439-2.15-8.083-3.783-10.662
				c0,0,3.439-1.634,3.181-4.987s-2.408-13.586-1.462-18.917s2.064-8.685,3.955-11.092c1.892-2.408,0.086-5.073,0.774-6.707
				s2.666-2.752,2.408-4.643c-0.258-1.892-2.322-5.503-2.322-5.503s13.242,6.449,25.71,6.449s13.93-2.322,14.188-3.697
				c0.258-1.376,0.344-9.201-1.376-23.13c-1.72-13.93-4.471-22.356-5.245-24.506c-0.774-2.15-0.86-7.997-0.774-9.458
				s-3.203-3.181-3.977-3.504c-0.774-0.322-2.322-0.322-2.515-0.129c-0.193,0.193-1.741-1.032-2.967,0c0,0-0.516-0.903-2.257-0.774
				s-2.064,1.161-2.064,1.161s-0.967-1.032-2.451,0c-1.483,1.032-0.387,4.127-0.387,4.127s-3.031-0.387-2.902,2.322
				s3.16,6.449,5.288,7.803s4.256,1.935,4.256,1.935s3.224,7.287,3.224,16.122s-2.322,12.511-1.677,15.929
				c0,0-5.095-2.322-11.286-4.385s-15.349-8.835-15.349-8.835s0.451-1.096-0.774-1.483s-3.418-0.903-6.836-1.29
				s-5.546,0.193-5.546,0.193s0.064-1.225-2.193-1.612c0,0-1.096-2.451-2.644-2.451s-2.193,0.129-2.193,0.129v-2.644
				c0,0,3.224-1.999,4.708-4.514s1.677-6.255,1.677-6.255s1.161,0.387,1.741-1.225c0.58-1.612,0.516-2.773,1.483-4.901
				c0.967-2.128,2.838-5.224,2.115-6.4c-0.955-1.556-2.567-0.113-2.567-0.113s0.516-1.935,1.032-3.74s0.645-7.674,0.193-9.029
				c-0.451-1.354-0.387-2.451-0.451-3.611c-0.064-1.161,0.064-2.322-0.709-3.611c-0.774-1.29-0.967-4.063-1.741-4.837
				c-0.774-0.774-1.806-1.419-2.257-2.128c-0.451-0.709-1.096-0.709-1.741-1.225s0.064-1.096-1.935-1.29
				c-1.999-0.193-3.805-1.032-4.45-1.612s-1.677-0.774-2.773-0.709c-1.096,0.064-1.87,0.387-3.224,0.322
				c-1.354-0.064-1.741-0.322-2.322,0.129c-0.58,0.451-0.967,0.774-1.741,0.903c-0.774,0.129-3.224-0.258-4.063,0.58
				c-0.838,0.838-1.935,2.128-3.482,3.289s-3.353,3.676-4.514,5.288s-1.806,4.837-1.806,6.642c0,1.806,0.645,2.644,0.451,3.934
				s-0.903,2.386-0.838,4.579s0.58,4.063,0.58,4.063s-2.064-0.903-2.128,1.87s0.774,4.127,1.419,5.224
				c0.645,1.097,1.548,3.676,1.87,4.643s1.741,1.225,1.935,0.451c0,0,0.645,4.321,1.161,5.804c0.516,1.483,2.257,3.224,2.257,3.224
				l-0.645,5.675c0,0-1.612,0.58-2.128,1.161c-0.516,0.58-1.032-0.193-2.064,0.967c-1.032,1.161-1.032,1.483-1.354,1.419
				s-0.774-1.096-1.612-0.967c-0.838,0.129-1.225,1.29-1.935,1.225c-0.709-0.064-3.096,0.064-3.547-0.129s-1.096-0.838-2.451-0.774
				c-1.354,0.064-2.257,1.161-2.902,1.548c-0.645,0.387-11.673,4.45-17.799,6.384c-6.127,1.935-5.224,1.741-8.319,2.386
				S21.829,75.931,19.572,77.65z"/>
		</defs>
		<clipPath id="SVGID_4_">
			<use xlink:href="#SVGID_3_"  overflow="visible"/>
		</clipPath>
		<path opacity="0.2" clip-path="url(#SVGID_4_)" fill="#010202" enable-background="new    " d="M-1-3.497v319.884h162V-3.497H-1z
			 M153.796,97.705c-0.258,1.376-1.72,3.697-14.188,3.697s-25.71-6.449-25.71-6.449s2.064,3.611,2.322,5.503
			c0.258,1.892-1.72,3.01-2.408,4.643c-0.688,1.634,1.118,4.299-0.774,6.707c-1.892,2.408-3.01,5.761-3.955,11.092
			c-0.946,5.331,1.204,15.564,1.462,18.917c0.258,3.353-3.182,4.987-3.182,4.987c1.634,2.58,2.924,7.223,3.783,10.662
			s1.032,7.653,1.118,8.599s-1.72,0.688-1.72,0.688s0.774,2.064,1.548,3.353s0.946,2.838,0.172,3.783
			c-0.774,0.946,0.43,3.096,1.032,4.987c0.602,1.892-0.43,4.643,0.172,5.331c0.602,0.688,0.258,1.634,0.172,3.353
			c-0.086,1.72,0.172,3.096,0.946,3.955c0.774,0.86,0.602,2.408,0.344,6.363c-0.258,3.955,0.516,10.318,0.774,11.178
			s1.548,2.064,1.806,2.838s-0.688,1.376-1.376,2.666c-0.688,1.29,0.258,3.611,1.032,4.385s0.946,1.29,1.032,2.666
			s0.344,3.353,1.032,3.869c0.688,0.516,1.204,1.72,0.86,3.095c-0.344,1.376-3.267,4.213-3.267,4.213s2.924,4.127,5.159,17.627
			c2.236,13.5,2.494,24.678,2.666,27.258s1.548,5.073,3.783,7.825c2.236,2.752,4.729,6.707,4.729,6.707s1.032-0.946,2.924,0.516
			s1.118,4.385,1.118,4.385s1.462,1.118,3.01,1.978s1.376,2.236,1.376,2.236s2.666,1.29,3.353,3.525
			c0.688,2.236-0.172,4.815-1.376,6.363c-1.204,1.548-2.322,3.009-6.363,3.009s-8.341-2.58-11.006-6.879s-4.385-5.761-7.395-7.997
			c-3.01-2.236-6.105-3.181-6.105-6.707s2.58-3.869,2.58-3.869s0.43-1.462,0-3.525c-0.43-2.064-3.869-13.758-6.277-19.949
			s-5.847-12.984-8.083-19.089s-1.72-8.771-1.72-8.771s-1.032-0.602-1.978-0.688s-1.72,0-2.924-1.204s-1.634-0.602-3.353-1.462
			s-0.516-1.892-1.376-2.322s-4.213-0.86-4.643-1.29s-0.516-4.729-0.344-5.245c0.172-0.516,0.774-1.978,0.828-2.838
			s-1.172-2.322-0.484-3.01c0.688-0.688,0.602-1.634,0-2.58s-0.86-2.408-0.86-4.901c0-2.494-0.602-2.752-1.118-3.439
			c-0.516-0.688,0.086-4.213-0.684-5.159s-0.09-2.838-0.004-5.073c0.086-2.236-1.29-3.267-1.806-3.525s-1.204-1.892-1.605-1.806
			s-0.201,1.462-0.029,2.15s-0.43,0.946-1.462,1.892s-1.118,2.924-0.774,3.869c0.344,0.946,0.172,1.806-0.688,2.924
			s-0.516,3.697-0.602,5.245c-0.086,1.548-0.516,1.29-1.29,2.322c-0.774,1.032,0.172,1.72,0,3.611
			c-0.172,1.892-1.634,3.353-2.322,5.933c-0.688,2.58,0,9.888,0,10.49s-0.516,0.43-2.15,1.032s-3.525,2.15-4.643,3.01
			c-1.118,0.86-3.096,1.376-3.096,1.376c-0.258,4.041-3.267,14.618-5.331,20.981c-2.064,6.363-5.761,16.853-6.277,19.175
			s-0.086,6.191-0.258,7.481c-0.172,1.29-0.86,3.096-0.86,3.096c1.118,0.086,2.752,1.29,2.752,3.611
			c0,2.322-3.181,5.245-6.363,7.137c-3.181,1.892-3.611,4.643-4.815,7.309s-2.924,6.191-9.888,6.191
			c-6.965,0-9.029-3.955-9.201-6.621c-0.172-2.666,2.236-4.213,2.236-4.213s-0.688-1.29-0.086-2.408
			c0.602-1.118,3.783-2.58,3.783-2.58s-1.032-2.322,0-3.869c1.032-1.548,3.182-0.688,3.182-0.688s6.363-7.395,7.825-11.866
			s0.688-11.608,1.892-24.248s3.01-20.379,3.01-20.379c-3.439-1.892-4.041-5.245-4.213-7.051s0.774-4.471,1.806-5.933
			s0.344-3.439,0.172-4.901s1.118-1.376,1.376-2.322s-0.172-3.182,0.43-4.643c0.602-1.462,0.602-3.955,0.258-5.503
			s0.946-2.15,0.946-3.268c0-1.118-1.032-4.471-0.172-5.417s0.602-2.15,0.774-4.213c0.172-2.064,1.204-4.729,1.462-8.341
			c0.258-3.611-0.258-7.051-0.086-8.341c0.172-1.29,1.978-3.869,2.58-8.255c0.602-4.385-0.086-13.758,0.086-14.79
			c0.172-1.032,2.236-3.439,3.096-3.525s0.172-1.29-0.344-2.064s0.172-2.322,0.516-2.838c0.344-0.516-0.172-2.064-0.516-3.353
			s-0.86-9.029-0.602-14.79c0.258-5.761,1.72-7.223,1.634-8.169c-0.086-0.946-0.602-1.72-1.548-3.439s-0.774-6.019-1.462-8.685
			c-0.688-2.666-2.236-5.933-2.322-6.707s-0.172-1.548,1.634-4.643c1.806-3.096,1.548-4.471,1.548-4.471s-15.391,6.277-27.086,6.277
			S5.642,91.944,5.126,90.998S3.32,81.625,5.9,69.071s2.709-18.272,4.471-26.828c1.763-8.556,3.568-11.006,4.815-12.081
			s2.408-0.645,5.675-0.774s4.036,0.645,4.036,0.645c1.113-0.215,3.014,0.258,3.702,1.333c0.688,1.075-0.129,2.365-0.129,2.365
			s1.376-0.473,1.763,0c0.387,0.473,2.236,2.623,0.645,5.503s-5.546,3.697-8.126,5.417s-3.697,5.675-4.299,11.694
			s0.516,11.436,1.118,15.564c0.602,4.127,0,7.911,0,7.911c2.257-1.72,3.611-1.311,6.707-1.956s2.193-0.451,8.319-2.386
			s17.154-5.998,17.799-6.385s1.548-1.483,2.902-1.548c1.354-0.065,1.999,0.58,2.451,0.774c0.451,0.193,2.838,0.065,3.547,0.129
			c0.709,0.065,1.096-1.096,1.935-1.225c0.839-0.129,1.29,0.903,1.612,0.967s0.322-0.258,1.354-1.419
			c1.032-1.161,1.548-0.387,2.064-0.967s2.128-1.161,2.128-1.161l0.645-5.675c0,0-1.741-1.741-2.257-3.224
			c-0.516-1.483-1.161-5.804-1.161-5.804c-0.193,0.774-1.612,0.516-1.935-0.451s-1.225-3.547-1.87-4.643s-1.483-2.451-1.419-5.224
			c0.065-2.773,2.128-1.87,2.128-1.87s-0.516-1.87-0.58-4.063c-0.065-2.193,0.645-3.289,0.838-4.579
			c0.193-1.29-0.451-2.128-0.451-3.934s0.645-5.03,1.806-6.642s2.967-4.127,4.514-5.288s2.644-2.451,3.482-3.289
			c0.838-0.838,3.289-0.451,4.063-0.58s1.161-0.451,1.741-0.903c0.58-0.451,0.967-0.193,2.322-0.129
			c1.354,0.065,2.128-0.258,3.224-0.322c1.096-0.064,2.128,0.129,2.773,0.709s2.451,1.419,4.45,1.612
			c1.999,0.193,1.29,0.774,1.935,1.29s1.29,0.516,1.741,1.225c0.451,0.709,1.483,1.354,2.257,2.128s0.967,3.547,1.741,4.837
			s0.645,2.451,0.709,3.611c0.064,1.161,0,2.257,0.451,3.611s0.322,7.223-0.193,9.029s-1.032,3.74-1.032,3.74
			s1.612-1.442,2.567,0.113c0.722,1.177-1.148,4.272-2.115,6.4s-0.903,3.289-1.483,4.901s-1.741,1.225-1.741,1.225
			s-0.193,3.74-1.677,6.255s-4.708,4.514-4.708,4.514v2.644c0,0,0.645-0.129,2.193-0.129s2.644,2.451,2.644,2.451
			c2.257,0.387,2.193,1.612,2.193,1.612s2.128-0.58,5.546-0.193s5.611,0.903,6.836,1.29s0.774,1.483,0.774,1.483
			s9.158,6.771,15.349,8.835c6.191,2.064,11.286,4.385,11.286,4.385c-0.645-3.418,1.677-7.094,1.677-15.929
			s-3.224-16.122-3.224-16.122s-2.128-0.58-4.256-1.935c-2.128-1.354-5.159-5.095-5.288-7.803s2.902-2.322,2.902-2.322
			s-1.096-3.096,0.387-4.127c1.483-1.032,2.451,0,2.451,0s0.322-1.032,2.064-1.161s2.257,0.774,2.257,0.774
			c1.225-1.032,2.773,0.193,2.966,0s1.741-0.193,2.515,0.129c0.774,0.322,4.063,2.042,3.977,3.504s0,7.309,0.774,9.458
			s3.525,10.576,5.245,24.506C154.14,88.504,154.054,96.329,153.796,97.705z"/>
	</g>
</g>
</svg>
