<?xml version="1.0" encoding="utf-8"?>
<!-- Generator: Adobe Illustrator 17.0.0, SVG Export Plug-In . SVG Version: 6.00 Build 0)  -->
<!DOCTYPE svg PUBLIC "-//W3C//DTD SVG 1.1//EN" "http://www.w3.org/Graphics/SVG/1.1/DTD/svg11.dtd">
<svg version="1.1" id="Слой_1" xmlns="http://www.w3.org/2000/svg" xmlns:xlink="http://www.w3.org/1999/xlink" x="0px" y="0px"
	 width="180px" height="560px" viewBox="6.171 11.545 180 560" enable-background="new 6.171 11.545 180 560" xml:space="preserve">
<g display="none">
	<g display="inline">
		<defs>
			<path id="SVGID_1_" d="M183.419,196.728c-0.187-3.281-1.406-12.841-3.937-19.402c-2.531-6.561-3.093-8.248-3.281-11.435
				c-0.187-3.187-1.875-5.624-2.906-7.686c-1.031-2.062-0.281-8.623-1.031-13.404s-2.718-7.686-3.374-12.091
				c-0.656-4.405-2.343-5.624-4.78-7.124s-12.185-7.592-16.684-10.217c-4.499-2.624-10.873-5.905-16.122-8.155
				c-5.249-2.25-6.467-3.843-7.124-4.874c-0.656-1.031-0.469-2.812-1.875-2.718c0,0,0-3.468-1.875-5.061l-0.187-2.062
				c0,0,2.156-2.062,3.843-7.686s3.093-14.528,3.562-19.871c0.469-5.343,0-7.686,0-7.686s2.062-4.03,2.625-5.718
				c0.562-1.687,0.187-3.187,0.375-3.843c0.187-0.656,1.031-2.156,1.125-4.687s0.75-9.654-6.093-17.621
				c-6.842-7.967-8.998-6.842-13.685-8.529s-7.217-0.937-8.248-0.656s-8.623,0.75-13.029,3.093c-4.405,2.343-4.124,3.749-6.749,5.53
				c-2.624,1.781-8.155,10.498-7.873,20.34c0.281,9.842,1.781,12.372,1.781,12.372s-2.157,1.031-1.851,5.343
				c0.24,3.386,2.414,4.499,5.413,9.842s4.124,5.624,5.343,5.155l0.094,13.591c0,0-3.749,1.312-4.499,6.842
				c0,0-4.043,2.999-6.38,5.718c-2.337,2.718-3.462,4.124-4.493,4.874c-1.031,0.75-6.749,2.718-18.184,9.654
				s-19.027,12.466-21.558,15.372s-1.593,3.937-2.718,7.124s-1.781,5.53-1.968,8.529c-0.187,2.999-1.219,12.56-1.593,19.59
				c-0.375,7.03-0.187,10.217-0.469,17.434c-0.281,7.217-1.125,15.747-2.624,23.995c-1.5,8.248-3.187,16.778-3.468,24.37
				s-0.469,32.15-0.562,38.804c-0.094,6.655-0.844,40.117-0.562,42.929c0.281,2.812,0.094,3.843,1.875,5.249
				s2.531,2.718,2.531,2.718s-0.187,7.498,0.375,9.467c0.562,1.968,1.593,3.749,3.749,3.281l-0.469,1.875
				c0,0-3.937,0.281-5.905,1.031s-3.937,1.5-4.218,2.906s-1.312,15.466-1.875,22.964c-0.562,7.498-2.062,19.59-2.343,28.119
				c-0.281,8.53-0.187,9.467,0.375,11.341c0.562,1.875,3.093,11.529,3.843,16.497c0.75,4.968,1.781,7.124,2.625,8.436
				s0.187,1.5,3.374,1.687c3.187,0.188,11.06,1.312,14.247,1.312c3.187,0,10.685,0.469,12.56-0.375s1.125-2.999,1.031-5.343
				c-0.094-2.343,1.312-17.059,1.5-23.526s1.031-18.277,0.937-24.557c-0.094-6.28-0.844-12.841-1.218-17.809
				c-0.375-4.968-0.562-6.842-1.5-8.811c-0.937-1.968-3.655-5.343-5.249-7.78c-1.593-2.437-2.812-4.312-3.937-4.405
				c0,0,0.187-4.312-0.656-5.061c0,0,2.156-1.312,2.25-3.655s-0.656-2.812-0.75-4.405s0.375-3.187,0.469-5.811
				s-0.187-4.218-0.187-4.218s2.812-0.937,2.999-2.437s0.281-3.281,0.281-3.281s0.937,0.094,1.125,2.156
				c0.187,2.062,1.687,4.78,1.968,6.655s0.844,8.342,0.844,11.154s-0.187,4.687,0.75,5.436c0.937,0.75,2.625,1.781,4.124,0.469
				c0,0,3.655,9.092,6.374,14.903c2.718,5.811,6.186,11.716,8.811,20.715s3.655,15.091,4.405,19.496s2.531,14.435,2.531,14.435
				s-6.374,6.749-8.717,14.247c-2.343,7.498-4.405,10.592-6.655,14.809c-2.25,4.218-7.498,16.309-9.748,21.745
				s-3.374,8.342-4.686,11.154c-1.312,2.812-3.937,5.343-4.218,6.186s0,2.437,1.781,4.874c1.781,2.437-0.375,4.124,1.406,8.623
				s1.875,5.249,1.875,5.249s0.469,5.249,0,8.248s-1.968,7.405-1.593,12.935c0.375,5.53,1.218,8.904,4.218,10.498
				c2.999,1.593,8.623,1.781,13.591,1.781s7.686-0.75,9.654-2.531s1.406-7.217,1.5-9.935s0-5.249-1.031-7.873
				s-2.343-4.405-2.25-5.436c0.094-1.031,0.75-1.968,0.656-4.405s0-3.937-0.469-4.78c-0.469-0.844,1.5-1.968,1.687-3.093
				s3.281-6.186,5.343-8.717c2.062-2.531,3.093-5.436,3.562-7.124c0.469-1.687,2.062-4.593,2.062-4.593s1.875,8.904,2.999,11.248
				c1.125,2.343,0.937,4.499,0.375,7.217s0.562,7.592,1.031,10.592c0.469,2.999,2.718,6.842,2.812,8.342
				c0.094,1.5,0.844,8.248,0.469,15.841c-0.375,7.592,0.094,9.935,1.312,14.247c1.218,4.312,0.844,5.249,3.374,7.78
				c0,0-0.187,4.124-0.75,6.28c-0.562,2.156-0.937,8.623-0.375,9.748s1.687,1.5,2.343,3.281c0.656,1.781,0.562,3.562,3.655,4.312
				s15.747,1.125,22.683,0.656s8.811-1.875,9.186-3.093s0.562-7.405-0.375-9.748c-0.937-2.343-2.999-4.874-4.03-6.561
				c-1.031-1.687-1.406-4.499-1.031-5.905l1.312-0.844c0,0-0.844-9.373-1.125-16.778s-1.218-14.622-3.093-20.715
				s-2.624-8.436-2.718-15.184c-0.094-6.749-1.875-39.086-2.906-55.957s-3.187-31.493-3.655-34.587
				c-0.469-3.093,2.25-9.935,5.061-18.184c2.812-8.248,3.468-6.936,5.905-12.654s2.718-8.998,2.624-10.873
				c0,0,3.051-2.437,4.338-5.905c1.286-3.468,4.004-10.685,4.567-12.654s0.562-3.749,0.562-3.749s6.655-2.906,8.529-3.749
				c1.875-0.844,4.499-1.406,4.687-4.499c0.187-3.093,0.656-20.808,0.844-32.618s-0.562-22.964-0.562-22.964s4.405-2.25,4.405-4.405
				c0-2.156-2.156-8.717-3.562-11.529s-2.999-3.655-2.999-3.655l-0.187-3.374c0,0,3.187,0.562,7.78-1.5s5.53-5.061,8.436-8.248
				s5.155-5.155,6.936-6.467s5.718-6.374,6.655-8.342s1.031-4.124,3.093-7.311c2.062-3.187,3.749-7.124,3.655-11.341
				C185.574,201.321,183.606,200.009,183.419,196.728z M29.982,339.668v-1.5c0,0,2.906,0.187,3.749,0.469s0.861,1.362,0.861,1.362
				C31.459,339.581,29.982,339.668,29.982,339.668z M35.23,323.077c-0.094,0.844-0.562,2.812-0.562,2.812
				c-1.219,0-3.655,2.624-3.655,2.624c-0.656-1.5-0.562-4.686-0.562-4.686c0.469-0.75,4.218-2.906,4.218-2.906
				S35.324,322.234,35.23,323.077z"/>
		</defs>
		<clipPath id="SVGID_2_">
			<use xlink:href="#SVGID_1_"  overflow="visible"/>
		</clipPath>
		<rect x="-1.983" y="11.623" clip-path="url(#SVGID_2_)" fill="#C7D7DB" width="211" height="559.843"/>
	</g>
	<g display="inline">
		<defs>
			<path id="SVGID_3_" d="M183.419,196.728c-0.187-3.281-1.406-12.841-3.937-19.402c-2.531-6.561-3.093-8.248-3.281-11.435
				c-0.187-3.187-1.875-5.624-2.906-7.686c-1.031-2.062-0.281-8.623-1.031-13.404s-2.718-7.686-3.374-12.091
				c-0.656-4.405-2.343-5.624-4.78-7.124s-12.185-7.592-16.684-10.217c-4.499-2.624-10.873-5.905-16.122-8.155
				c-5.249-2.25-6.467-3.843-7.124-4.874c-0.656-1.031-0.469-2.812-1.875-2.718c0,0,0-3.468-1.875-5.061l-0.187-2.062
				c0,0,2.156-2.062,3.843-7.686s3.093-14.528,3.562-19.871c0.469-5.343,0-7.686,0-7.686s2.062-4.03,2.625-5.718
				c0.562-1.687,0.187-3.187,0.375-3.843c0.187-0.656,1.031-2.156,1.125-4.687s0.75-9.654-6.093-17.621
				c-6.842-7.967-8.998-6.842-13.685-8.529s-7.217-0.937-8.248-0.656s-8.623,0.75-13.029,3.093c-4.405,2.343-4.124,3.749-6.749,5.53
				c-2.624,1.781-8.155,10.498-7.873,20.34c0.281,9.842,1.781,12.372,1.781,12.372s-2.157,1.031-1.851,5.343
				c0.24,3.386,2.414,4.499,5.413,9.842s4.124,5.624,5.343,5.155l0.094,13.591c0,0-3.749,1.312-4.499,6.842
				c0,0-4.043,2.999-6.38,5.718c-2.337,2.718-3.462,4.124-4.493,4.874c-1.031,0.75-6.749,2.718-18.184,9.654
				s-19.027,12.466-21.558,15.372s-1.593,3.937-2.718,7.124s-1.781,5.53-1.968,8.529c-0.187,2.999-1.219,12.56-1.593,19.59
				c-0.375,7.03-0.187,10.217-0.469,17.434c-0.281,7.217-1.125,15.747-2.624,23.995c-1.5,8.248-3.187,16.778-3.468,24.37
				s-0.469,32.15-0.562,38.804c-0.094,6.655-0.844,40.117-0.562,42.929c0.281,2.812,0.094,3.843,1.875,5.249
				s2.531,2.718,2.531,2.718s-0.187,7.498,0.375,9.467c0.562,1.968,1.593,3.749,3.749,3.281l-0.469,1.875
				c0,0-3.937,0.281-5.905,1.031s-3.937,1.5-4.218,2.906s-1.312,15.466-1.875,22.964c-0.562,7.498-2.062,19.59-2.343,28.119
				c-0.281,8.53-0.187,9.467,0.375,11.341c0.562,1.875,3.093,11.529,3.843,16.497c0.75,4.968,1.781,7.124,2.625,8.436
				s0.187,1.5,3.374,1.687c3.187,0.188,11.06,1.312,14.247,1.312c3.187,0,10.685,0.469,12.56-0.375s1.125-2.999,1.031-5.343
				c-0.094-2.343,1.312-17.059,1.5-23.526s1.031-18.277,0.937-24.557c-0.094-6.28-0.844-12.841-1.218-17.809
				c-0.375-4.968-0.562-6.842-1.5-8.811c-0.937-1.968-3.655-5.343-5.249-7.78c-1.593-2.437-2.812-4.312-3.937-4.405
				c0,0,0.187-4.312-0.656-5.061c0,0,2.156-1.312,2.25-3.655s-0.656-2.812-0.75-4.405s0.375-3.187,0.469-5.811
				s-0.187-4.218-0.187-4.218s2.812-0.937,2.999-2.437s0.281-3.281,0.281-3.281s0.937,0.094,1.125,2.156
				c0.187,2.062,1.687,4.78,1.968,6.655s0.844,8.342,0.844,11.154s-0.187,4.687,0.75,5.436c0.937,0.75,2.625,1.781,4.124,0.469
				c0,0,3.655,9.092,6.374,14.903c2.718,5.811,6.186,11.716,8.811,20.715s3.655,15.091,4.405,19.496s2.531,14.435,2.531,14.435
				s-6.374,6.749-8.717,14.247c-2.343,7.498-4.405,10.592-6.655,14.809c-2.25,4.218-7.498,16.309-9.748,21.745
				s-3.374,8.342-4.686,11.154c-1.312,2.812-3.937,5.343-4.218,6.186s0,2.437,1.781,4.874c1.781,2.437-0.375,4.124,1.406,8.623
				s1.875,5.249,1.875,5.249s0.469,5.249,0,8.248s-1.968,7.405-1.593,12.935c0.375,5.53,1.218,8.904,4.218,10.498
				c2.999,1.593,8.623,1.781,13.591,1.781s7.686-0.75,9.654-2.531s1.406-7.217,1.5-9.935s0-5.249-1.031-7.873
				s-2.343-4.405-2.25-5.436c0.094-1.031,0.75-1.968,0.656-4.405s0-3.937-0.469-4.78c-0.469-0.844,1.5-1.968,1.687-3.093
				s3.281-6.186,5.343-8.717c2.062-2.531,3.093-5.436,3.562-7.124c0.469-1.687,2.062-4.593,2.062-4.593s1.875,8.904,2.999,11.248
				c1.125,2.343,0.937,4.499,0.375,7.217s0.562,7.592,1.031,10.592c0.469,2.999,2.718,6.842,2.812,8.342
				c0.094,1.5,0.844,8.248,0.469,15.841c-0.375,7.592,0.094,9.935,1.312,14.247c1.218,4.312,0.844,5.249,3.374,7.78
				c0,0-0.187,4.124-0.75,6.28c-0.562,2.156-0.937,8.623-0.375,9.748s1.687,1.5,2.343,3.281c0.656,1.781,0.562,3.562,3.655,4.312
				s15.747,1.125,22.683,0.656s8.811-1.875,9.186-3.093s0.562-7.405-0.375-9.748c-0.937-2.343-2.999-4.874-4.03-6.561
				c-1.031-1.687-1.406-4.499-1.031-5.905l1.312-0.844c0,0-0.844-9.373-1.125-16.778s-1.218-14.622-3.093-20.715
				s-2.624-8.436-2.718-15.184c-0.094-6.749-1.875-39.086-2.906-55.957s-3.187-31.493-3.655-34.587
				c-0.469-3.093,2.25-9.935,5.061-18.184c2.812-8.248,3.468-6.936,5.905-12.654s2.718-8.998,2.624-10.873
				c0,0,3.051-2.437,4.338-5.905c1.286-3.468,4.004-10.685,4.567-12.654s0.562-3.749,0.562-3.749s6.655-2.906,8.529-3.749
				c1.875-0.844,4.499-1.406,4.687-4.499c0.187-3.093,0.656-20.808,0.844-32.618s-0.562-22.964-0.562-22.964s4.405-2.25,4.405-4.405
				c0-2.156-2.156-8.717-3.562-11.529s-2.999-3.655-2.999-3.655l-0.187-3.374c0,0,3.187,0.562,7.78-1.5s5.53-5.061,8.436-8.248
				s5.155-5.155,6.936-6.467s5.718-6.374,6.655-8.342s1.031-4.124,3.093-7.311c2.062-3.187,3.749-7.124,3.655-11.341
				C185.574,201.321,183.606,200.009,183.419,196.728z M29.982,339.668v-1.5c0,0,2.906,0.187,3.749,0.469s0.861,1.362,0.861,1.362
				C31.459,339.581,29.982,339.668,29.982,339.668z M35.23,323.077c-0.094,0.844-0.562,2.812-0.562,2.812
				c-1.219,0-3.655,2.624-3.655,2.624c-0.656-1.5-0.562-4.686-0.562-4.686c0.469-0.75,4.218-2.906,4.218-2.906
				S35.324,322.234,35.23,323.077z"/>
		</defs>
		<clipPath id="SVGID_5_">
			<use xlink:href="#SVGID_3_"  overflow="visible"/>
		</clipPath>
		<path opacity="0.2" clip-path="url(#SVGID_5_)" fill="#010202" enable-background="new    " d="M34.592,342.168
			c-3.133-0.418-4.61-0.331-4.61-0.331v-1.5c0,0,2.906,0.187,3.749,0.469S34.592,342.168,34.592,342.168z M30.45,325.996
			c0,0-0.094,3.187,0.562,4.687c0,0,2.437-2.624,3.656-2.624c0,0,0.469-1.968,0.562-2.812c0.094-0.844-0.562-2.156-0.562-2.156
			S30.919,325.246,30.45,325.996z M209.017,4.454v569.181h-211V4.454H209.017z M185.668,207.708c-0.094-4.218-2.062-5.53-2.25-8.811
			s-1.406-12.841-3.937-19.402c-2.531-6.561-3.093-8.248-3.281-11.435c-0.187-3.187-1.875-5.624-2.906-7.686
			c-1.031-2.062-0.281-8.623-1.031-13.404c-0.75-4.78-2.718-7.686-3.374-12.091c-0.656-4.405-2.343-5.624-4.78-7.123
			c-2.437-1.5-12.185-7.592-16.684-10.217c-4.499-2.624-10.873-5.905-16.122-8.155c-5.249-2.25-6.467-3.843-7.124-4.874
			c-0.656-1.031-0.469-2.812-1.875-2.718c0,0,0-3.468-1.875-5.061l-0.187-2.062c0,0,2.156-2.062,3.843-7.686
			s3.093-14.528,3.562-19.871c0.469-5.343,0-7.686,0-7.686s2.062-4.03,2.625-5.718c0.562-1.687,0.187-3.187,0.375-3.843
			s1.031-2.156,1.125-4.687c0.094-2.531,0.75-9.654-6.093-17.621c-6.842-7.967-8.998-6.842-13.685-8.529s-7.217-0.937-8.248-0.656
			s-8.623,0.75-13.029,3.093c-4.405,2.343-4.124,3.749-6.749,5.53c-2.624,1.781-8.155,10.498-7.873,20.34s1.781,12.372,1.781,12.372
			s-2.157,1.031-1.851,5.343c0.24,3.386,2.414,4.499,5.413,9.842s4.124,5.624,5.343,5.155l0.094,13.591c0,0-3.749,1.312-4.499,6.842
			c0,0-4.043,2.999-6.38,5.718c-2.337,2.718-3.462,4.124-4.493,4.874c-1.031,0.75-6.749,2.718-18.184,9.654
			s-19.027,12.466-21.558,15.372s-1.593,3.937-2.718,7.124s-1.781,5.53-1.968,8.529c-0.187,2.999-1.219,12.56-1.593,19.59
			c-0.375,7.03-0.187,10.217-0.469,17.434c-0.281,7.217-1.125,15.747-2.624,23.995c-1.5,8.248-3.187,16.778-3.468,24.37
			s-0.469,32.15-0.562,38.805c-0.094,6.655-0.844,40.117-0.562,42.929c0.281,2.812,0.094,3.843,1.875,5.249s2.531,2.718,2.531,2.718
			s-0.187,7.498,0.375,9.467c0.562,1.968,1.593,3.749,3.749,3.281l-0.469,1.875c0,0-3.937,0.281-5.905,1.031s-3.937,1.5-4.218,2.906
			s-1.312,15.466-1.875,22.964c-0.562,7.498-2.062,19.59-2.343,28.119c-0.281,8.53-0.187,9.467,0.375,11.341
			c0.562,1.875,3.093,11.529,3.843,16.497c0.75,4.968,1.781,7.124,2.625,8.436s0.187,1.5,3.374,1.687
			c3.187,0.188,11.06,1.312,14.247,1.312c3.187,0,10.685,0.469,12.56-0.375s1.125-2.999,1.031-5.343
			c-0.094-2.343,1.312-17.059,1.5-23.526c0.187-6.467,1.031-18.277,0.937-24.557c-0.094-6.28-0.844-12.841-1.218-17.809
			c-0.375-4.968-0.562-6.842-1.5-8.811c-0.937-1.968-3.656-5.343-5.249-7.78c-1.593-2.437-2.812-4.312-3.937-4.405
			c0,0,0.188-4.312-0.656-5.061c0,0,2.156-1.312,2.25-3.655s-0.656-2.812-0.75-4.405s0.375-3.187,0.469-5.811
			s-0.188-4.218-0.188-4.218s2.812-0.937,2.999-2.437s0.281-3.281,0.281-3.281s0.937,0.094,1.125,2.156
			c0.187,2.062,1.687,4.78,1.968,6.655s0.844,8.342,0.844,11.154c0,2.812-0.188,4.687,0.75,5.436
			c0.937,0.75,2.625,1.781,4.124,0.469c0,0,3.656,9.092,6.374,14.903c2.718,5.811,6.186,11.716,8.811,20.715
			c2.624,8.998,3.655,15.091,4.405,19.496s2.531,14.435,2.531,14.435s-6.374,6.749-8.717,14.247
			c-2.343,7.498-4.405,10.592-6.655,14.81s-7.498,16.309-9.748,21.745s-3.374,8.342-4.687,11.154
			c-1.312,2.812-3.937,5.343-4.218,6.186c-0.281,0.844,0,2.437,1.781,4.874c1.781,2.437-0.375,4.124,1.406,8.623
			s1.875,5.249,1.875,5.249s0.469,5.249,0,8.248s-1.968,7.405-1.593,12.935s1.218,8.904,4.218,10.498
			c2.999,1.593,8.623,1.781,13.591,1.781s7.686-0.75,9.654-2.531s1.406-7.217,1.5-9.935s0-5.249-1.031-7.873
			c-1.031-2.624-2.343-4.405-2.25-5.436c0.094-1.031,0.75-1.968,0.656-4.405s0-3.937-0.469-4.78c-0.469-0.844,1.5-1.968,1.687-3.093
			c0.188-1.125,3.281-6.186,5.343-8.717c2.062-2.531,3.093-5.436,3.562-7.124c0.469-1.687,2.062-4.593,2.062-4.593
			s1.875,8.904,2.999,11.248c1.125,2.343,0.937,4.499,0.375,7.217s0.562,7.592,1.031,10.592c0.469,2.999,2.718,6.842,2.812,8.342
			c0.094,1.5,0.844,8.248,0.469,15.84c-0.375,7.592,0.094,9.935,1.312,14.247c1.218,4.312,0.844,5.249,3.374,7.78
			c0,0-0.187,4.124-0.75,6.28c-0.562,2.156-0.937,8.623-0.375,9.748s1.687,1.5,2.343,3.281c0.656,1.781,0.562,3.562,3.656,4.312
			c3.093,0.75,15.747,1.125,22.683,0.656c6.936-0.469,8.811-1.875,9.186-3.093s0.562-7.405-0.375-9.748
			c-0.937-2.343-2.999-4.874-4.03-6.561c-1.031-1.687-1.406-4.499-1.031-5.905l1.312-0.844c0,0-0.844-9.373-1.125-16.778
			s-1.219-14.622-3.093-20.714c-1.875-6.093-2.624-8.436-2.718-15.184c-0.094-6.749-1.875-39.086-2.906-55.957
			s-3.187-31.493-3.655-34.587c-0.469-3.093,2.25-9.935,5.061-18.184c2.812-8.248,3.468-6.936,5.905-12.654
			s2.718-8.998,2.624-10.873c0,0,3.051-2.437,4.338-5.905c1.286-3.468,4.004-10.685,4.567-12.654
			c0.562-1.968,0.562-3.749,0.562-3.749s6.655-2.906,8.529-3.749c1.875-0.844,4.499-1.406,4.687-4.499s0.656-20.808,0.844-32.618
			s-0.562-22.964-0.562-22.964s4.405-2.25,4.405-4.405c0-2.156-2.156-8.717-3.562-11.529c-1.406-2.812-2.999-3.655-2.999-3.655
			l-0.187-3.374c0,0,3.187,0.562,7.78-1.5s5.53-5.061,8.436-8.248s5.155-5.155,6.936-6.467s5.718-6.374,6.655-8.342
			s1.031-4.124,3.093-7.311C184.075,215.863,185.762,211.926,185.668,207.708z"/>
	</g>
</g>
<g>
	<defs>
		<path id="SVGID_4_" d="M182.074,195.105c-0.187-3.281-1.406-12.841-3.937-19.402c-2.531-6.561-3.093-8.248-3.281-11.435
			s-1.875-5.624-2.906-7.686c-1.031-2.062-0.281-8.623-1.031-13.404c-0.75-4.78-2.718-7.686-3.374-12.091s-2.343-5.624-4.78-7.124
			c-2.437-1.5-12.185-7.592-16.684-10.217c-4.499-2.624-10.873-5.905-16.122-8.155c-5.249-2.25-6.467-3.843-7.124-4.874
			c-0.656-1.031-0.469-2.812-1.875-2.718c0,0,0-3.468-1.875-5.061l-0.187-2.062c0,0,2.156-2.062,3.843-7.686
			c1.687-5.624,3.093-14.528,3.562-19.871c0.469-5.343,0-7.686,0-7.686s2.062-4.03,2.625-5.718c0.562-1.687,0.187-3.187,0.375-3.843
			c0.187-0.656,1.031-2.156,1.125-4.687c0.094-2.531,0.75-9.654-6.093-17.621c-6.842-7.967-8.998-6.842-13.685-8.529
			c-4.687-1.687-7.217-0.937-8.248-0.656c-1.031,0.281-8.623,0.75-13.029,3.093c-4.405,2.343-4.124,3.749-6.749,5.53
			c-2.624,1.781-8.155,10.498-7.873,20.34s1.781,12.372,1.781,12.372s-2.157,1.031-1.851,5.343c0.24,3.386,2.414,4.499,5.413,9.842
			c2.999,5.343,4.124,5.624,5.343,5.155l0.094,13.591c0,0-3.749,1.312-4.499,6.842c0,0-4.043,2.999-6.38,5.718
			c-2.337,2.718-3.462,4.124-4.493,4.874c-1.031,0.75-6.749,2.718-18.184,9.654c-11.435,6.936-19.027,12.466-21.558,15.372
			c-2.531,2.906-1.593,3.937-2.718,7.124c-1.125,3.187-1.781,5.53-1.968,8.529c-0.187,2.999-1.219,12.56-1.593,19.59
			c-0.375,7.03-0.187,10.217-0.469,17.434c-0.281,7.217-1.125,15.747-2.624,23.995c-1.5,8.248-3.187,16.778-3.468,24.37
			c-0.281,7.592-0.469,32.15-0.562,38.805c-0.094,6.655-0.844,40.117-0.562,42.929c0.281,2.812,0.094,3.843,1.875,5.249
			c1.781,1.406,2.531,2.718,2.531,2.718s-0.187,7.498,0.375,9.467c0.562,1.968,1.593,3.749,3.749,3.281l-0.469,1.875
			c0,0-3.937,0.281-5.905,1.031c-1.968,0.75-3.937,1.5-4.218,2.906c-0.281,1.406-1.312,15.466-1.875,22.964
			c-0.562,7.498-2.062,19.59-2.343,28.119c-0.281,8.53-0.187,9.467,0.375,11.341c0.562,1.875,3.093,11.529,3.843,16.497
			c0.75,4.968,1.781,7.124,2.625,8.436c0.844,1.312,0.187,1.5,3.374,1.687c3.187,0.188,11.06,1.312,14.247,1.312
			c3.187,0,10.685,0.469,12.56-0.375c1.875-0.844,1.125-2.999,1.031-5.343c-0.094-2.343,1.312-17.059,1.5-23.526
			s1.031-18.277,0.937-24.557c-0.094-6.28-0.844-12.841-1.218-17.809c-0.375-4.968-0.562-6.842-1.5-8.811
			c-0.937-1.968-3.655-5.343-5.249-7.78c-1.593-2.437-2.812-4.312-3.937-4.405c0,0,0.187-4.312-0.656-5.061
			c0,0,2.156-1.312,2.25-3.655c0.094-2.343-0.656-2.812-0.75-4.405s0.375-3.187,0.469-5.811c0.094-2.624-0.187-4.218-0.187-4.218
			s2.812-0.937,2.999-2.437c0.187-1.5,0.281-3.281,0.281-3.281s0.937,0.094,1.125,2.156c0.187,2.062,1.687,4.78,1.968,6.655
			c0.281,1.875,0.844,8.342,0.844,11.154s-0.187,4.687,0.75,5.436c0.937,0.75,2.625,1.781,4.124,0.469c0,0,3.655,9.092,6.374,14.903
			c2.718,5.811,6.186,11.716,8.811,20.715c2.624,8.998,3.655,15.091,4.405,19.496c0.75,4.405,2.531,14.435,2.531,14.435
			s-6.374,6.749-8.717,14.247c-2.343,7.498-4.405,10.592-6.655,14.809c-2.25,4.218-7.498,16.309-9.748,21.745
			c-2.25,5.436-3.374,8.342-4.686,11.154c-1.312,2.812-3.937,5.343-4.218,6.186c-0.281,0.844,0,2.437,1.781,4.874
			c1.781,2.437-0.375,4.124,1.406,8.623c1.781,4.499,1.875,5.249,1.875,5.249s0.469,5.249,0,8.248
			c-0.469,2.999-1.968,7.405-1.593,12.935c0.375,5.53,1.218,8.904,4.218,10.498c2.999,1.593,8.623,1.781,13.591,1.781
			c4.968,0,7.686-0.75,9.654-2.531c1.968-1.781,1.406-7.217,1.5-9.935c0.094-2.718,0-5.249-1.031-7.873
			c-1.031-2.624-2.343-4.405-2.25-5.436c0.094-1.031,0.75-1.968,0.656-4.405c-0.094-2.437,0-3.937-0.469-4.78
			c-0.469-0.844,1.5-1.968,1.687-3.093c0.187-1.125,3.281-6.186,5.343-8.717c2.062-2.531,3.093-5.436,3.562-7.124
			c0.469-1.687,2.062-4.593,2.062-4.593s1.875,8.904,2.999,11.248c1.125,2.343,0.937,4.499,0.375,7.217s0.562,7.592,1.031,10.592
			c0.469,2.999,2.718,6.842,2.812,8.342c0.094,1.5,0.844,8.248,0.469,15.841c-0.375,7.592,0.094,9.935,1.312,14.247
			c1.218,4.312,0.844,5.249,3.374,7.78c0,0-0.187,4.124-0.75,6.28c-0.562,2.156-0.937,8.623-0.375,9.748
			c0.562,1.125,1.687,1.5,2.343,3.281c0.656,1.781,0.562,3.562,3.655,4.312c3.093,0.75,15.747,1.125,22.683,0.656
			c6.936-0.469,8.811-1.875,9.186-3.093c0.375-1.219,0.562-7.405-0.375-9.748c-0.937-2.343-2.999-4.874-4.03-6.561
			s-1.406-4.499-1.031-5.905l1.312-0.844c0,0-0.844-9.373-1.125-16.778c-0.281-7.405-1.218-14.622-3.093-20.714
			c-1.875-6.092-2.624-8.436-2.718-15.184c-0.094-6.749-1.875-39.086-2.906-55.957c-1.031-16.872-3.187-31.493-3.655-34.587
			c-0.469-3.093,2.25-9.935,5.061-18.184c2.812-8.248,3.468-6.936,5.905-12.654c2.437-5.718,2.718-8.998,2.624-10.873
			c0,0,3.051-2.437,4.338-5.905c1.286-3.468,4.004-10.685,4.567-12.654c0.562-1.968,0.562-3.749,0.562-3.749
			s6.655-2.906,8.529-3.749c1.875-0.844,4.499-1.406,4.687-4.499s0.656-20.808,0.844-32.618s-0.562-22.964-0.562-22.964
			s4.405-2.25,4.405-4.405c0-2.156-2.156-8.717-3.562-11.529c-1.406-2.812-2.999-3.656-2.999-3.656l-0.187-3.374
			c0,0,3.187,0.562,7.78-1.5c4.593-2.062,5.53-5.061,8.436-8.248c2.906-3.187,5.155-5.155,6.936-6.467
			c1.781-1.312,5.718-6.374,6.655-8.342c0.937-1.968,1.031-4.124,3.093-7.311c2.062-3.187,3.749-7.124,3.655-11.341
			C184.23,199.698,182.262,198.386,182.074,195.105z M28.637,338.045v-1.5c0,0,2.906,0.187,3.749,0.469
			c0.844,0.281,0.861,1.362,0.861,1.362C30.115,337.958,28.637,338.045,28.637,338.045z M33.886,321.454
			c-0.094,0.844-0.562,2.812-0.562,2.812c-1.219,0-3.655,2.624-3.655,2.624c-0.656-1.5-0.562-4.686-0.562-4.686
			c0.469-0.75,4.218-2.906,4.218-2.906S33.98,320.611,33.886,321.454z"/>
	</defs>
	<clipPath id="SVGID_6_">
		<use xlink:href="#SVGID_4_"  overflow="visible"/>
	</clipPath>
	<linearGradient id="SVGID_7_" gradientUnits="userSpaceOnUse" x1="102.1732" y1="569.8431" x2="102.1732" y2="10">
		<stop  offset="0" style="stop-color:#5C275B"/>
		<stop  offset="0.0646" style="stop-color:#5B3062"/>
		<stop  offset="0.1698" style="stop-color:#594875"/>
		<stop  offset="0.3" style="stop-color:#556F94"/>
		<stop  offset="0.65" style="stop-color:#4694BA"/>
		<stop  offset="1" style="stop-color:#9EDCF3"/>
	</linearGradient>
	<rect x="-3.327" y="10" clip-path="url(#SVGID_6_)" fill="url(#SVGID_7_)" width="211" height="559.843"/>
	<path opacity="0.2" clip-path="url(#SVGID_6_)" d="M33.247,336.045c-3.133-0.418-4.61-0.331-4.61-0.331v-1.5
		c0,0,2.906,0.187,3.749,0.469S33.247,336.045,33.247,336.045z M29.106,319.873c0,0-0.094,3.187,0.562,4.687
		c0,0,2.437-2.624,3.656-2.624c0,0,0.469-1.968,0.562-2.812c0.094-0.844-0.562-2.156-0.562-2.156S29.575,319.123,29.106,319.873z
		 M207.673-1.669v569.181h-211V-1.669H207.673z M184.324,201.585c-0.094-4.218-2.062-5.53-2.25-8.811
		c-0.188-3.281-1.406-12.841-3.937-19.402c-2.531-6.561-3.093-8.248-3.281-11.435c-0.187-3.187-1.875-5.624-2.906-7.686
		c-1.031-2.062-0.281-8.623-1.031-13.404c-0.75-4.78-2.718-7.686-3.374-12.091c-0.656-4.405-2.343-5.624-4.78-7.123
		c-2.437-1.5-12.185-7.592-16.684-10.217c-4.499-2.624-10.873-5.905-16.122-8.155c-5.249-2.25-6.467-3.843-7.124-4.874
		c-0.656-1.031-0.469-2.812-1.875-2.718c0,0,0-3.468-1.875-5.061l-0.187-2.062c0,0,2.156-2.062,3.843-7.686
		s3.093-14.528,3.562-19.871c0.469-5.343,0-7.686,0-7.686s2.062-4.03,2.625-5.718c0.562-1.687,0.187-3.187,0.375-3.843
		c0.188-0.656,1.031-2.156,1.125-4.687c0.094-2.531,0.75-9.654-6.093-17.621c-6.842-7.967-8.998-6.842-13.685-8.529
		c-4.687-1.687-7.217-0.937-8.248-0.656c-1.031,0.281-8.623,0.75-13.029,3.093c-4.405,2.343-4.124,3.749-6.749,5.53
		c-2.624,1.781-8.155,10.498-7.873,20.34s1.781,12.372,1.781,12.372s-2.157,1.031-1.851,5.343c0.24,3.386,2.414,4.499,5.413,9.842
		s4.124,5.624,5.343,5.155l0.094,13.591c0,0-3.749,1.312-4.499,6.842c0,0-4.043,2.999-6.38,5.718
		c-2.337,2.718-3.462,4.124-4.493,4.874c-1.031,0.75-6.749,2.718-18.184,9.654c-11.435,6.936-19.027,12.466-21.558,15.372
		c-2.531,2.906-1.593,3.937-2.718,7.124c-1.125,3.187-1.781,5.53-1.968,8.529c-0.187,2.999-1.219,12.56-1.593,19.59
		c-0.375,7.03-0.187,10.217-0.469,17.434c-0.281,7.217-1.125,15.747-2.624,23.995c-1.5,8.248-3.187,16.778-3.468,24.37
		s-0.469,32.15-0.562,38.805c-0.094,6.655-0.844,40.117-0.562,42.929c0.281,2.812,0.094,3.843,1.875,5.249s2.531,2.718,2.531,2.718
		s-0.187,7.498,0.375,9.467c0.562,1.968,1.593,3.749,3.749,3.281l-0.469,1.875c0,0-3.937,0.281-5.905,1.031
		c-1.968,0.75-3.937,1.5-4.218,2.906c-0.281,1.406-1.312,15.466-1.875,22.964c-0.562,7.498-2.062,19.59-2.343,28.119
		c-0.281,8.53-0.187,9.467,0.375,11.341c0.562,1.875,3.093,11.529,3.843,16.497c0.75,4.968,1.781,7.124,2.625,8.436
		c0.844,1.312,0.187,1.5,3.374,1.687c3.187,0.188,11.06,1.312,14.247,1.312c3.187,0,10.685,0.469,12.56-0.375
		s1.125-2.999,1.031-5.343c-0.094-2.343,1.312-17.059,1.5-23.526c0.187-6.467,1.031-18.277,0.937-24.557
		c-0.094-6.28-0.844-12.841-1.218-17.809c-0.375-4.968-0.562-6.842-1.5-8.811c-0.937-1.968-3.656-5.343-5.249-7.78
		c-1.593-2.437-2.812-4.312-3.937-4.405c0,0,0.188-4.312-0.656-5.061c0,0,2.156-1.312,2.25-3.655
		c0.094-2.343-0.656-2.812-0.75-4.405s0.375-3.187,0.469-5.811c0.094-2.624-0.188-4.218-0.188-4.218s2.812-0.937,2.999-2.437
		c0.187-1.5,0.281-3.281,0.281-3.281s0.937,0.094,1.125,2.156c0.187,2.062,1.687,4.78,1.968,6.655
		c0.281,1.875,0.844,8.342,0.844,11.154c0,2.812-0.188,4.687,0.75,5.436c0.937,0.75,2.625,1.781,4.124,0.469
		c0,0,3.656,9.092,6.374,14.903c2.718,5.811,6.186,11.716,8.811,20.715c2.624,8.998,3.655,15.091,4.405,19.496
		c0.75,4.405,2.531,14.435,2.531,14.435s-6.374,6.749-8.717,14.247c-2.343,7.498-4.405,10.592-6.655,14.81
		c-2.25,4.218-7.498,16.309-9.748,21.745c-2.25,5.436-3.374,8.342-4.687,11.154c-1.312,2.812-3.937,5.343-4.218,6.186
		c-0.281,0.844,0,2.437,1.781,4.874c1.781,2.437-0.375,4.124,1.406,8.623c1.781,4.499,1.875,5.249,1.875,5.249s0.469,5.249,0,8.248
		c-0.469,2.999-1.968,7.405-1.593,12.935c0.375,5.53,1.218,8.904,4.218,10.498c2.999,1.593,8.623,1.781,13.591,1.781
		c4.968,0,7.686-0.75,9.654-2.531s1.406-7.217,1.5-9.935c0.094-2.718,0-5.249-1.031-7.873c-1.031-2.624-2.343-4.405-2.25-5.436
		c0.094-1.031,0.75-1.968,0.656-4.405c-0.094-2.437,0-3.937-0.469-4.78c-0.469-0.844,1.5-1.968,1.687-3.093
		c0.188-1.125,3.281-6.186,5.343-8.717c2.062-2.531,3.093-5.436,3.562-7.124c0.469-1.687,2.062-4.593,2.062-4.593
		s1.875,8.904,2.999,11.248c1.125,2.343,0.937,4.499,0.375,7.217s0.562,7.592,1.031,10.592c0.469,2.999,2.718,6.842,2.812,8.342
		c0.094,1.5,0.844,8.248,0.469,15.841c-0.375,7.592,0.094,9.935,1.312,14.247c1.218,4.312,0.844,5.249,3.374,7.78
		c0,0-0.187,4.124-0.75,6.28c-0.562,2.156-0.937,8.623-0.375,9.748c0.562,1.125,1.687,1.5,2.343,3.281
		c0.656,1.781,0.562,3.562,3.656,4.312c3.093,0.75,15.747,1.125,22.683,0.656c6.936-0.469,8.811-1.875,9.186-3.093
		s0.562-7.405-0.375-9.748c-0.937-2.343-2.999-4.874-4.03-6.561c-1.031-1.687-1.406-4.499-1.031-5.905l1.312-0.844
		c0,0-0.844-9.373-1.125-16.778c-0.281-7.405-1.219-14.622-3.093-20.714s-2.624-8.436-2.718-15.184
		c-0.094-6.749-1.875-39.086-2.906-55.957c-1.031-16.871-3.187-31.493-3.655-34.587c-0.469-3.093,2.25-9.935,5.061-18.184
		c2.812-8.248,3.468-6.936,5.905-12.654c2.437-5.718,2.718-8.998,2.624-10.873c0,0,3.051-2.437,4.338-5.905
		c1.286-3.468,4.004-10.685,4.567-12.654c0.562-1.968,0.562-3.749,0.562-3.749s6.655-2.906,8.529-3.749
		c1.875-0.844,4.499-1.406,4.687-4.499c0.188-3.093,0.656-20.808,0.844-32.618s-0.562-22.964-0.562-22.964s4.405-2.25,4.405-4.405
		c0-2.156-2.156-8.717-3.562-11.529c-1.406-2.812-2.999-3.655-2.999-3.655l-0.187-3.374c0,0,3.187,0.562,7.78-1.5
		c4.593-2.062,5.53-5.061,8.436-8.248c2.906-3.187,5.155-5.155,6.936-6.467c1.781-1.312,5.718-6.374,6.655-8.342
		c0.937-1.968,1.031-4.124,3.093-7.311C182.73,209.74,184.418,205.803,184.324,201.585z"/>
</g>
</svg>
