<?xml version="1.0" encoding="utf-8"?>
<!-- Generator: Adobe Illustrator 17.0.0, SVG Export Plug-In . SVG Version: 6.00 Build 0)  -->
<!DOCTYPE svg PUBLIC "-//W3C//DTD SVG 1.1//EN" "http://www.w3.org/Graphics/SVG/1.1/DTD/svg11.dtd">
<svg version="1.1" id="Слой_1" xmlns="http://www.w3.org/2000/svg" xmlns:xlink="http://www.w3.org/1999/xlink" x="0px" y="0px"
	 width="184px" height="474px" viewBox="6.834 7.542 184 474" enable-background="new 6.834 7.542 184 474" xml:space="preserve">
<g display="none">
	<g display="inline">
		<defs>
			<path id="SVGID_1_" d="M188.202,249.903c-1.491-14.908-3.332-31.571-6.051-49.022c-2.719-17.452-8.156-38.323-8.507-55.599
				s0.614-21.924-1.491-25.257c-2.105-3.332-9.559-11.927-12.102-14.645c-2.543-2.719-4.297-2.543-8.419-2.455
				c-4.122,0.088-3.859-2.192-10.085-5.525s-7.103-3.859-8.857-4.034c0,0-0.088-4.473-2.192-7.454
				c-2.105-2.982-5.174-3.135-5.174-3.135s-0.351-4.846,0.175-5.459s1.579-1.579,2.192-3.332c0.614-1.754,0.614-3.859,0.614-3.859
				s2.982,0.351,3.771-2.28s0.965-4.552,1.579-5.872c0.614-1.319,1.754-5.441,1.052-7.283s-3.157-0.263-3.157-0.263l-0.088-2.894
				c0,0,2.017-0.702,1.842-2.543c-0.175-1.842-1.491-14.47-1.491-14.47s20.959-2.368,21.223-2.982S126.129,9.495,124.272,9.615
				c0,0-12.688,0.735-26.113,2.509c-0.451-0.919-1.329-1.545-2.564-1.545c-1.608,0-3.272,1.048-3.668,2.442
				c-8.116,1.277-15.824,2.954-20.449,5.1c0,0,11.927,8.507,16.925,11.225l0.551,14.207c0,0-0.535,4.209-0.587,5.876
				c0,0-3.209,0.088-3.121,5.262s0.876,8.777,2.605,9.997c0,0-0.308,2.739-0.11,4.889c-0.236,2.358-0.589,4.705-1.065,7.046
				c-0.067,0.331,0.44,0.472,0.507,0.14c0.373-1.831,0.672-3.666,0.9-5.506c0.081,0.209-0.102,6.282-0.486,9.108
				c-0.045,0.331,0.462,0.474,0.507,0.14c0.365-2.683,0.634-5.367,0.817-8.056c0.102,0.119,0.118,4.205-0.077,6.126
				c-0.034,0.337,0.492,0.334,0.526,0c0.176-1.731,0.287-3.461,0.37-5.191c0.039,0.044-0.085,5.377-0.253,8
				c-0.022,0.338,0.505,0.337,0.526,0c0.156-2.435,0.543-7.091,0.637-6.988c-0.054,2.793-0.15,5.585-0.313,8.378
				c-0.02,0.338,0.506,0.337,0.526,0c0.152-2.605,0.243-5.21,0.3-7.815c0.194,0.211,0.52,4.769,0.534,6.887
				c0.002,0.236,0.256,0.304,0.41,0.211c-0.069,0.279-0.156,0.525-0.271,0.718c-0.979,1.644-4.038,4.281-7.381,9.712
				c-0.702,1.14-3.683,1.666-6.577,2.894c-2.894,1.228-6.928,3.157-9.208,4.209s-8.156,1.666-10.26,3.069
				c-2.105,1.403-6.402,5.7-8.331,8.594c-1.929,2.894-2.631,5.613-2.631,7.805s-3.771,12.014-5.7,17.539
				c-1.929,5.525-7.454,20.784-9.647,28.414c-2.192,7.63-7.542,23.152-9.734,30.869c-2.192,7.717-6.928,23.152-8.156,29.291
				S9.388,244.99,8.16,251.217c-1.228,6.226-2.017,9.033-0.965,10.962s2.543,2.631,4.823,2.543s5.963,0.702,10.524,2.017
				c4.56,1.315,14.558,5.349,16.925,5.7c2.368,0.351,5.262,0.789,5.262,0.789s0.877,18.942,0.614,25.257
				c-0.263,6.314-1.315,28.852-1.579,36.657c-0.263,7.805-2.105,39.639-2.455,47.795c-0.351,8.156-1.228,35.78-3.069,47.005
				c0,0,4.911,1.403,9.208,3.771s4.736,5.963,8.243,8.857c3.508,2.894,4.911,1.052,6.49,2.368c1.579,1.315,2.28,0.965,2.28,0.965
				s0.175,4.911-0.263,6.314c-0.438,1.403-2.192,3.683-6.753,6.577s-8.419,7.542-8.682,9.033c0,0-1.14,1.491-0.438,2.806
				s4.297,4.823,7.63,5.963c3.332,1.14,8.331,0.438,10.699-0.877s9.296-5.963,11.576-8.243c2.28-2.28,7.98-5.876,7.98-5.876
				s1.403,2.105,2.105,2.192c0.702,0.088,3.771-0.088,5.437-1.052s1.315-5.262,1.315-5.262s1.403-0.702,3.332-3.42
				c1.929-2.719,2.192-3.859,1.842-7.016c-0.351-3.157-1.403-2.982-1.842-5.876c-0.438-2.894,0.175-6.665,0.877-8.682
				c0.702-2.017,0.965-3.157,0.526-4.209c-0.438-1.052-2.455-2.543-2.543-3.596c-0.088-1.052,0-4.209,0-4.209
				s3.245-0.439,4.122,1.842c0.877,2.28,0.614,12.365,0.351,15.873s-0.263,9.822-0.263,9.822l4.648-0.263
				c0,0-0.789,5.262-0.175,6.49s5.437,6.665,6.49,7.191c1.052,0.526,1.052-1.228,3.859-0.965c0,0,0.351,8.331,7.98,14.558
				c7.63,6.226,10.787,6.49,15.61,6.577c4.823,0.088,8.77-2.456,9.208-4.736s-1.052-3.771-2.368-5.7s-3.245-5.349-2.982-7.367
				c0.263-2.017,2.543-7.542,3.157-9.383c0.614-1.842,0.438-4.122-0.263-4.56s-0.877-0.088-0.877-1.579s2.017-0.877,2.192-2.28
				c0.175-1.403,0.351-12.014,0.351-12.014s4.648-2.017,5.525-2.105s-0.877-28.94,0-46.128s3.596-21.749,4.385-36.569
				c0.789-14.821-0.526-17.276-0.614-24.029s0.865-22.187,0.865-22.187s2.818,0.702,3.958,0.526c0,0,0.965,0.965,1.929,0.702
				c0,0,1.228,0.877,2.368,0.088s4.736-8.243,5.7-12.716c0.965-4.473-2.017-12.453-2.105-14.908c0,0,7.98,0.175,10.962-0.702
				s2.982-2.456,4.911-3.42s2.982-2.192,4.122-2.455C190.307,270.073,189.693,264.811,188.202,249.903z"/>
		</defs>
		<clipPath id="SVGID_2_">
			<use xlink:href="#SVGID_1_"  overflow="visible"/>
		</clipPath>
		<rect x="-0.656" y="5.082" clip-path="url(#SVGID_2_)" fill="#C7D7DB" width="207.25" height="477.917"/>
	</g>
	<g display="inline">
		<defs>
			<path id="SVGID_3_" d="M188.202,249.903c-1.491-14.908-3.332-31.571-6.051-49.022c-2.719-17.452-8.156-38.323-8.507-55.599
				s0.614-21.924-1.491-25.257c-2.105-3.332-9.559-11.927-12.102-14.645c-2.543-2.719-4.297-2.543-8.419-2.455
				c-4.122,0.088-3.859-2.192-10.085-5.525s-7.103-3.859-8.857-4.034c0,0-0.088-4.473-2.192-7.454
				c-2.105-2.982-5.174-3.135-5.174-3.135s-0.351-4.846,0.175-5.459s1.579-1.579,2.192-3.332c0.614-1.754,0.614-3.859,0.614-3.859
				s2.982,0.351,3.771-2.28s0.965-4.552,1.579-5.872c0.614-1.319,1.754-5.441,1.052-7.283s-3.157-0.263-3.157-0.263l-0.088-2.894
				c0,0,2.017-0.702,1.842-2.543c-0.175-1.842-1.491-14.47-1.491-14.47s20.959-2.368,21.223-2.982S126.129,9.495,124.272,9.615
				c0,0-12.688,0.735-26.113,2.509c-0.451-0.919-1.329-1.545-2.564-1.545c-1.608,0-3.272,1.048-3.668,2.442
				c-8.116,1.277-15.824,2.954-20.449,5.1c0,0,11.927,8.507,16.925,11.225l0.551,14.207c0,0-0.535,4.209-0.587,5.876
				c0,0-3.209,0.088-3.121,5.262s0.876,8.777,2.605,9.997c0,0-0.308,2.739-0.11,4.889c-0.236,2.358-0.589,4.705-1.065,7.046
				c-0.067,0.331,0.44,0.472,0.507,0.14c0.373-1.831,0.672-3.666,0.9-5.506c0.081,0.209-0.102,6.282-0.486,9.108
				c-0.045,0.331,0.462,0.474,0.507,0.14c0.365-2.683,0.634-5.367,0.817-8.056c0.102,0.119,0.118,4.205-0.077,6.126
				c-0.034,0.337,0.492,0.334,0.526,0c0.176-1.731,0.287-3.461,0.37-5.191c0.039,0.044-0.085,5.377-0.253,8
				c-0.022,0.338,0.505,0.337,0.526,0c0.156-2.435,0.543-7.091,0.637-6.988c-0.054,2.793-0.15,5.585-0.313,8.378
				c-0.02,0.338,0.506,0.337,0.526,0c0.152-2.605,0.243-5.21,0.3-7.815c0.194,0.211,0.52,4.769,0.534,6.887
				c0.002,0.236,0.256,0.304,0.41,0.211c-0.069,0.279-0.156,0.525-0.271,0.718c-0.979,1.644-4.038,4.281-7.381,9.712
				c-0.702,1.14-3.683,1.666-6.577,2.894c-2.894,1.228-6.928,3.157-9.208,4.209s-8.156,1.666-10.26,3.069
				c-2.105,1.403-6.402,5.7-8.331,8.594c-1.929,2.894-2.631,5.613-2.631,7.805s-3.771,12.014-5.7,17.539
				c-1.929,5.525-7.454,20.784-9.647,28.414c-2.192,7.63-7.542,23.152-9.734,30.869c-2.192,7.717-6.928,23.152-8.156,29.291
				S9.388,244.99,8.16,251.217c-1.228,6.226-2.017,9.033-0.965,10.962s2.543,2.631,4.823,2.543s5.963,0.702,10.524,2.017
				c4.56,1.315,14.558,5.349,16.925,5.7c2.368,0.351,5.262,0.789,5.262,0.789s0.877,18.942,0.614,25.257
				c-0.263,6.314-1.315,28.852-1.579,36.657c-0.263,7.805-2.105,39.639-2.455,47.795c-0.351,8.156-1.228,35.78-3.069,47.005
				c0,0,4.911,1.403,9.208,3.771s4.736,5.963,8.243,8.857c3.508,2.894,4.911,1.052,6.49,2.368c1.579,1.315,2.28,0.965,2.28,0.965
				s0.175,4.911-0.263,6.314c-0.438,1.403-2.192,3.683-6.753,6.577s-8.419,7.542-8.682,9.033c0,0-1.14,1.491-0.438,2.806
				s4.297,4.823,7.63,5.963c3.332,1.14,8.331,0.438,10.699-0.877s9.296-5.963,11.576-8.243c2.28-2.28,7.98-5.876,7.98-5.876
				s1.403,2.105,2.105,2.192c0.702,0.088,3.771-0.088,5.437-1.052s1.315-5.262,1.315-5.262s1.403-0.702,3.332-3.42
				c1.929-2.719,2.192-3.859,1.842-7.016c-0.351-3.157-1.403-2.982-1.842-5.876c-0.438-2.894,0.175-6.665,0.877-8.682
				c0.702-2.017,0.965-3.157,0.526-4.209c-0.438-1.052-2.455-2.543-2.543-3.596c-0.088-1.052,0-4.209,0-4.209
				s3.245-0.439,4.122,1.842c0.877,2.28,0.614,12.365,0.351,15.873s-0.263,9.822-0.263,9.822l4.648-0.263
				c0,0-0.789,5.262-0.175,6.49s5.437,6.665,6.49,7.191c1.052,0.526,1.052-1.228,3.859-0.965c0,0,0.351,8.331,7.98,14.558
				c7.63,6.226,10.787,6.49,15.61,6.577c4.823,0.088,8.77-2.456,9.208-4.736s-1.052-3.771-2.368-5.7s-3.245-5.349-2.982-7.367
				c0.263-2.017,2.543-7.542,3.157-9.383c0.614-1.842,0.438-4.122-0.263-4.56s-0.877-0.088-0.877-1.579s2.017-0.877,2.192-2.28
				c0.175-1.403,0.351-12.014,0.351-12.014s4.648-2.017,5.525-2.105s-0.877-28.94,0-46.128s3.596-21.749,4.385-36.569
				c0.789-14.821-0.526-17.276-0.614-24.029s0.865-22.187,0.865-22.187s2.818,0.702,3.958,0.526c0,0,0.965,0.965,1.929,0.702
				c0,0,1.228,0.877,2.368,0.088s4.736-8.243,5.7-12.716c0.965-4.473-2.017-12.453-2.105-14.908c0,0,7.98,0.175,10.962-0.702
				s2.982-2.456,4.911-3.42s2.982-2.192,4.122-2.455C190.307,270.073,189.693,264.811,188.202,249.903z"/>
		</defs>
		<clipPath id="SVGID_5_">
			<use xlink:href="#SVGID_3_"  overflow="visible"/>
		</clipPath>
		<path opacity="0.2" clip-path="url(#SVGID_5_)" fill="#010202" enable-background="new    " d="M-0.656-2.087v487.255h207.25
			V-2.087H-0.656z M186.185,274.697c-1.929,0.965-1.929,2.543-4.911,3.42s-10.962,0.702-10.962,0.702
			c0.088,2.456,3.069,10.436,2.105,14.908c-0.965,4.473-4.56,11.927-5.7,12.716s-2.368-0.088-2.368-0.088
			c-0.965,0.263-1.929-0.702-1.929-0.702c-1.14,0.175-3.958-0.526-3.958-0.526s-0.953,15.435-0.865,22.187
			c0.088,6.753,1.403,9.208,0.614,24.029s-3.508,19.381-4.385,36.569s0.877,46.041,0,46.128s-5.525,2.105-5.525,2.105
			s-0.175,10.611-0.351,12.014c-0.175,1.403-2.192,0.789-2.192,2.28s0.175,1.14,0.877,1.579c0.702,0.438,0.877,2.719,0.263,4.56
			c-0.614,1.842-2.894,7.366-3.157,9.383s1.666,5.437,2.982,7.367s2.806,3.42,2.368,5.7s-4.385,4.823-9.208,4.736
			s-7.98-0.351-15.61-6.577s-7.98-14.558-7.98-14.558c-2.806-0.263-2.806,1.491-3.859,0.965s-5.876-5.963-6.49-7.191
			s0.175-6.49,0.175-6.49l-4.648,0.263c0,0,0-6.314,0.263-9.822s0.526-13.593-0.351-15.873s-4.122-1.842-4.122-1.842
			s-0.088,3.157,0,4.209s2.105,2.543,2.543,3.596c0.438,1.052,0.175,2.192-0.526,4.209c-0.702,2.017-1.315,5.788-0.877,8.682
			s1.491,2.719,1.842,5.876c0.351,3.157,0.088,4.297-1.842,7.016c-1.929,2.719-3.332,3.42-3.332,3.42s0.351,4.297-1.315,5.262
			s-4.736,1.14-5.437,1.052c-0.702-0.088-2.105-2.192-2.105-2.192s-5.7,3.596-7.98,5.876c-2.28,2.28-9.208,6.928-11.576,8.243
			s-7.367,2.017-10.699,0.877c-3.332-1.14-6.928-4.648-7.63-5.963s0.438-2.806,0.438-2.806c0.263-1.491,4.122-6.139,8.682-9.033
			c4.56-2.894,6.314-5.174,6.753-6.577s0.263-6.314,0.263-6.314s-0.702,0.351-2.28-0.965c-1.579-1.315-2.982,0.526-6.49-2.368
			s-3.946-6.49-8.243-8.857s-9.208-3.771-9.208-3.771c1.842-11.225,2.719-38.849,3.069-47.005c0.351-8.156,2.192-39.99,2.455-47.794
			c0.263-7.805,1.315-30.343,1.579-36.657c0.263-6.314-0.614-25.257-0.614-25.257s-2.894-0.439-5.262-0.789
			s-12.365-4.385-16.925-5.7s-8.243-2.105-10.524-2.017s-3.771-0.614-4.823-2.543s-0.263-4.736,0.965-10.962
			c1.228-6.226,4.823-19.907,6.051-26.046c1.228-6.139,5.963-21.573,8.156-29.291c2.192-7.717,7.542-23.24,9.734-30.869
			c2.192-7.63,7.717-22.889,9.647-28.414c1.929-5.525,5.7-15.347,5.7-17.539s0.702-4.911,2.631-7.805s6.226-7.191,8.331-8.594
			c2.105-1.403,7.98-2.017,10.26-3.069s6.314-2.982,9.208-4.209c2.894-1.228,5.876-1.754,6.577-2.894
			c3.342-5.431,6.402-8.068,7.381-9.712c0.115-0.193,0.202-0.439,0.271-0.718c-0.154,0.093-0.408,0.025-0.41-0.211
			c-0.014-2.117-0.341-6.675-0.534-6.887c-0.057,2.605-0.148,5.21-0.3,7.815c-0.02,0.337-0.546,0.338-0.526,0
			c0.163-2.793,0.259-5.585,0.313-8.378c-0.094-0.103-0.481,4.553-0.637,6.988c-0.022,0.337-0.548,0.338-0.526,0
			c0.168-2.622,0.292-7.956,0.253-8c-0.083,1.73-0.194,3.46-0.37,5.191c-0.034,0.334-0.56,0.337-0.526,0
			c0.195-1.921,0.179-6.008,0.077-6.126c-0.183,2.689-0.452,5.373-0.817,8.056c-0.045,0.335-0.552,0.191-0.507-0.14
			c0.384-2.827,0.567-8.9,0.486-9.108c-0.228,1.84-0.528,3.674-0.9,5.506c-0.068,0.332-0.575,0.191-0.507-0.14
			c0.476-2.342,0.829-4.689,1.065-7.047c-0.199-2.15,0.11-4.889,0.11-4.889c-1.729-1.221-2.517-4.823-2.605-9.997
			c-0.088-5.174,3.121-5.262,3.121-5.262c0.052-1.666,0.587-5.876,0.587-5.876l-0.551-14.207c-5-2.718-16.927-11.225-16.927-11.225
			c4.624-2.146,12.332-3.823,20.449-5.1c0.396-1.394,2.06-2.442,3.668-2.442c1.235,0,2.113,0.626,2.564,1.545
			c13.425-1.774,26.113-2.509,26.113-2.509c1.857-0.12,29.027,21.31,28.764,21.924s-21.223,2.982-21.223,2.982
			s1.315,12.628,1.491,14.47c0.175,1.842-1.842,2.543-1.842,2.543l0.088,2.894c0,0,2.456-1.579,3.157,0.263
			c0.702,1.842-0.438,5.963-1.052,7.283c-0.614,1.32-0.789,3.241-1.578,5.872c-0.789,2.631-3.771,2.28-3.771,2.28
			s0,2.105-0.614,3.859s-1.666,2.719-2.192,3.332c-0.526,0.614-0.175,5.459-0.175,5.459s3.069,0.153,5.174,3.135
			s2.192,7.454,2.192,7.454c1.754,0.175,2.631,0.702,8.857,4.034s5.963,5.613,10.085,5.525c4.122-0.088,5.876-0.263,8.419,2.455
			c2.543,2.719,9.997,11.313,12.102,14.645s1.14,7.98,1.491,25.257s5.788,38.148,8.507,55.599
			c2.719,17.452,4.56,34.114,6.051,49.022c1.491,14.908,2.105,20.17,2.105,20.17C189.167,272.505,188.115,273.733,186.185,274.697z"
			/>
	</g>
</g>
<g>
	<defs>
		<path id="SVGID_4_" d="M188.858,248.821c-1.491-14.908-3.332-31.571-6.051-49.022s-8.156-38.323-8.507-55.599
			s0.614-21.924-1.491-25.257c-2.105-3.332-9.559-11.927-12.102-14.645c-2.543-2.719-4.297-2.543-8.419-2.455
			c-4.122,0.088-3.859-2.192-10.085-5.525c-6.226-3.332-7.103-3.859-8.857-4.034c0,0-0.088-4.473-2.192-7.454
			c-2.105-2.982-5.174-3.135-5.174-3.135s-0.351-4.846,0.175-5.459c0.526-0.614,1.579-1.579,2.192-3.332
			c0.614-1.754,0.614-3.859,0.614-3.859s2.982,0.351,3.771-2.28s0.965-4.552,1.579-5.872c0.614-1.319,1.754-5.441,1.052-7.283
			c-0.702-1.842-3.157-0.263-3.157-0.263l-0.088-2.894c0,0,2.017-0.702,1.842-2.543c-0.175-1.842-1.491-14.47-1.491-14.47
			s20.959-2.368,21.223-2.982c0.263-0.614-26.907-22.044-28.764-21.924c0,0-12.688,0.735-26.113,2.509
			c-0.451-0.919-1.329-1.545-2.564-1.545c-1.608,0-3.272,1.048-3.668,2.442c-8.116,1.277-15.824,2.954-20.449,5.1
			c0,0,11.927,8.507,16.925,11.225l0.551,14.207c0,0-0.535,4.209-0.587,5.876c0,0-3.209,0.088-3.121,5.262
			c0.088,5.174,0.876,8.777,2.605,9.997c0,0-0.308,2.739-0.11,4.889c-0.236,2.358-0.589,4.705-1.065,7.046
			c-0.067,0.331,0.44,0.472,0.507,0.14c0.373-1.831,0.672-3.666,0.9-5.506c0.081,0.209-0.102,6.282-0.486,9.108
			c-0.045,0.331,0.462,0.474,0.507,0.14c0.365-2.683,0.634-5.367,0.817-8.056c0.102,0.119,0.118,4.205-0.077,6.126
			c-0.034,0.337,0.492,0.334,0.526,0c0.176-1.731,0.287-3.461,0.37-5.191c0.039,0.044-0.085,5.377-0.253,8
			c-0.022,0.338,0.505,0.337,0.526,0c0.156-2.435,0.543-7.091,0.637-6.988c-0.054,2.793-0.15,5.585-0.313,8.378
			c-0.02,0.338,0.506,0.337,0.526,0c0.152-2.605,0.243-5.21,0.3-7.815c0.194,0.211,0.52,4.769,0.534,6.887
			c0.002,0.236,0.256,0.304,0.41,0.211c-0.069,0.279-0.156,0.525-0.271,0.718c-0.979,1.644-4.038,4.281-7.381,9.712
			c-0.702,1.14-3.683,1.666-6.577,2.894c-2.894,1.228-6.928,3.157-9.208,4.209c-2.28,1.052-8.156,1.666-10.26,3.069
			c-2.105,1.403-6.402,5.7-8.331,8.594c-1.929,2.894-2.631,5.613-2.631,7.805s-3.771,12.014-5.7,17.539
			c-1.929,5.525-7.454,20.784-9.647,28.414s-7.542,23.152-9.734,30.869s-6.928,23.152-8.156,29.291s-4.823,19.819-6.051,26.046
			c-1.228,6.226-2.017,9.033-0.965,10.962s2.543,2.631,4.823,2.543s5.963,0.702,10.524,2.017c4.56,1.315,14.558,5.349,16.925,5.7
			c2.368,0.351,5.262,0.789,5.262,0.789s0.877,18.942,0.614,25.257c-0.263,6.314-1.315,28.852-1.579,36.657
			c-0.263,7.805-2.105,39.639-2.455,47.794c-0.351,8.156-1.228,35.78-3.069,47.005c0,0,4.911,1.403,9.208,3.771
			s4.736,5.963,8.243,8.857s4.911,1.052,6.49,2.368c1.579,1.315,2.28,0.965,2.28,0.965s0.175,4.911-0.263,6.314
			c-0.438,1.403-2.192,3.683-6.753,6.577c-4.56,2.894-8.419,7.542-8.682,9.033c0,0-1.14,1.491-0.438,2.806
			c0.702,1.315,4.297,4.823,7.63,5.963c3.332,1.14,8.331,0.438,10.699-0.877c2.368-1.315,9.296-5.963,11.576-8.243
			c2.28-2.28,7.98-5.876,7.98-5.876s1.403,2.105,2.105,2.192c0.702,0.088,3.771-0.088,5.437-1.052s1.315-5.262,1.315-5.262
			s1.403-0.702,3.332-3.42c1.929-2.719,2.192-3.859,1.842-7.016c-0.351-3.157-1.403-2.982-1.842-5.876s0.175-6.665,0.877-8.682
			c0.702-2.017,0.965-3.157,0.526-4.209c-0.438-1.052-2.455-2.543-2.543-3.596c-0.088-1.052,0-4.209,0-4.209
			s3.245-0.438,4.122,1.842c0.877,2.28,0.614,12.365,0.351,15.873c-0.263,3.508-0.263,9.822-0.263,9.822l4.648-0.263
			c0,0-0.789,5.262-0.175,6.49c0.614,1.228,5.437,6.665,6.49,7.191c1.052,0.526,1.052-1.228,3.859-0.965
			c0,0,0.351,8.331,7.98,14.558s10.787,6.49,15.61,6.577c4.823,0.088,8.77-2.456,9.208-4.736c0.438-2.28-1.052-3.771-2.368-5.7
			s-3.245-5.349-2.982-7.366c0.263-2.017,2.543-7.542,3.157-9.384s0.438-4.122-0.263-4.56s-0.877-0.088-0.877-1.579
			c0-1.491,2.017-0.877,2.192-2.28c0.175-1.403,0.351-12.014,0.351-12.014s4.648-2.017,5.525-2.105s-0.877-28.94,0-46.128
			s3.596-21.749,4.385-36.569c0.789-14.821-0.526-17.276-0.614-24.029c-0.088-6.753,0.865-22.187,0.865-22.187
			s2.818,0.702,3.958,0.526c0,0,0.965,0.965,1.929,0.702c0,0,1.228,0.877,2.368,0.088c1.14-0.789,4.736-8.243,5.7-12.716
			c0.965-4.473-2.017-12.453-2.105-14.908c0,0,7.98,0.175,10.962-0.702s2.982-2.456,4.911-3.42s2.982-2.192,4.122-2.455
			C190.963,268.991,190.349,263.729,188.858,248.821z"/>
	</defs>
	<clipPath id="SVGID_6_">
		<use xlink:href="#SVGID_4_"  overflow="visible"/>
	</clipPath>
	
		<linearGradient id="SVGID_7_" gradientUnits="userSpaceOnUse" x1="103.625" y1="496.9036" x2="103.625" y2="209.5703" gradientTransform="matrix(1 0 0 1.6633 0 -344.5747)">
		<stop  offset="0" style="stop-color:#76213D"/>
		<stop  offset="0.3" style="stop-color:#5C275B"/>
		<stop  offset="1" style="stop-color:#00647B"/>
	</linearGradient>
	<rect x="0" y="4" clip-path="url(#SVGID_6_)" fill="url(#SVGID_7_)" width="207.25" height="477.917"/>
	<path opacity="0.2" clip-path="url(#SVGID_6_)" d="M0-7.669v487.255h207.25V-7.669H0z M186.841,269.115
		c-1.929,0.965-1.929,2.543-4.911,3.42s-10.962,0.702-10.962,0.702c0.088,2.456,3.069,10.436,2.105,14.908
		c-0.965,4.473-4.56,11.927-5.7,12.716c-1.14,0.789-2.368-0.088-2.368-0.088c-0.965,0.263-1.929-0.702-1.929-0.702
		c-1.14,0.175-3.958-0.526-3.958-0.526s-0.953,15.435-0.865,22.187c0.088,6.753,1.403,9.208,0.614,24.029
		s-3.508,19.381-4.385,36.569s0.877,46.041,0,46.128s-5.525,2.105-5.525,2.105s-0.175,10.611-0.351,12.014
		c-0.175,1.403-2.192,0.789-2.192,2.28c0,1.491,0.175,1.14,0.877,1.579c0.702,0.438,0.877,2.719,0.263,4.56
		c-0.614,1.842-2.894,7.366-3.157,9.383c-0.263,2.017,1.666,5.437,2.982,7.367s2.806,3.42,2.368,5.7
		c-0.438,2.28-4.385,4.823-9.208,4.736s-7.98-0.351-15.61-6.577s-7.98-14.558-7.98-14.558c-2.806-0.263-2.806,1.491-3.859,0.965
		s-5.876-5.963-6.49-7.191c-0.614-1.228,0.175-6.49,0.175-6.49l-4.648,0.263c0,0,0-6.314,0.263-9.822
		c0.263-3.508,0.526-13.593-0.351-15.873s-4.122-1.842-4.122-1.842s-0.088,3.157,0,4.209c0.088,1.052,2.105,2.543,2.543,3.596
		c0.438,1.052,0.175,2.192-0.526,4.209c-0.702,2.017-1.315,5.788-0.877,8.682s1.491,2.719,1.842,5.876
		c0.351,3.157,0.088,4.297-1.842,7.016c-1.929,2.719-3.332,3.42-3.332,3.42s0.351,4.297-1.315,5.262
		c-1.666,0.965-4.736,1.14-5.437,1.052c-0.702-0.088-2.105-2.192-2.105-2.192s-5.7,3.596-7.98,5.876
		c-2.28,2.28-9.208,6.928-11.576,8.243c-2.368,1.315-7.367,2.017-10.699,0.877c-3.332-1.14-6.928-4.648-7.63-5.963
		c-0.702-1.315,0.438-2.806,0.438-2.806c0.263-1.491,4.122-6.139,8.682-9.033c4.56-2.894,6.314-5.174,6.753-6.577
		s0.263-6.314,0.263-6.314s-0.702,0.351-2.28-0.965c-1.579-1.315-2.982,0.526-6.49-2.368c-3.508-2.894-3.946-6.49-8.243-8.857
		s-9.208-3.771-9.208-3.771c1.842-11.225,2.719-38.849,3.069-47.005c0.351-8.156,2.192-39.99,2.455-47.794
		c0.263-7.805,1.315-30.343,1.579-36.657c0.263-6.314-0.614-25.257-0.614-25.257s-2.894-0.439-5.262-0.789s-12.365-4.385-16.925-5.7
		c-4.56-1.315-8.243-2.105-10.524-2.017s-3.771-0.614-4.823-2.543s-0.263-4.736,0.965-10.962c1.228-6.226,4.823-19.907,6.051-26.046
		c1.228-6.139,5.963-21.573,8.156-29.291c2.192-7.717,7.542-23.24,9.734-30.869c2.192-7.63,7.717-22.889,9.647-28.414
		c1.929-5.525,5.7-15.347,5.7-17.539c0-2.192,0.702-4.911,2.631-7.805s6.226-7.191,8.331-8.594c2.105-1.403,7.98-2.017,10.26-3.069
		c2.28-1.052,6.314-2.982,9.208-4.209c2.894-1.228,5.876-1.754,6.577-2.894c3.342-5.431,6.402-8.068,7.381-9.712
		c0.115-0.193,0.202-0.439,0.271-0.718c-0.154,0.093-0.408,0.025-0.41-0.211c-0.014-2.117-0.341-6.675-0.534-6.887
		c-0.057,2.605-0.148,5.21-0.3,7.815c-0.02,0.337-0.546,0.338-0.526,0c0.163-2.793,0.259-5.585,0.313-8.378
		c-0.094-0.103-0.481,4.553-0.637,6.988c-0.022,0.337-0.548,0.338-0.526,0c0.168-2.622,0.292-7.956,0.253-8
		c-0.083,1.73-0.194,3.46-0.37,5.191c-0.034,0.334-0.56,0.337-0.526,0c0.195-1.921,0.179-6.008,0.077-6.126
		c-0.183,2.689-0.452,5.373-0.817,8.056c-0.045,0.335-0.552,0.191-0.507-0.14c0.384-2.827,0.567-8.9,0.486-9.108
		c-0.228,1.84-0.528,3.674-0.9,5.506c-0.068,0.332-0.575,0.191-0.507-0.14c0.476-2.342,0.829-4.689,1.065-7.047
		c-0.199-2.15,0.11-4.889,0.11-4.889c-1.729-1.221-2.517-4.823-2.605-9.997c-0.088-5.174,3.121-5.262,3.121-5.262
		c0.052-1.666,0.587-5.876,0.587-5.876L89.06,25.934c-4.999-2.719-16.925-11.225-16.925-11.225c4.624-2.146,12.332-3.823,20.449-5.1
		c0.396-1.394,2.06-2.442,3.668-2.442c1.235,0,2.113,0.626,2.564,1.545c13.425-1.774,26.113-2.509,26.113-2.509
		c1.857-0.12,29.027,21.31,28.764,21.924c-0.263,0.614-21.223,2.982-21.223,2.982s1.315,12.628,1.491,14.47
		c0.175,1.842-1.842,2.543-1.842,2.543l0.088,2.894c0,0,2.456-1.579,3.157,0.263c0.702,1.842-0.438,5.963-1.052,7.283
		c-0.614,1.32-0.789,3.241-1.578,5.872c-0.789,2.631-3.771,2.28-3.771,2.28s0,2.105-0.614,3.859s-1.666,2.719-2.192,3.332
		c-0.526,0.614-0.175,5.459-0.175,5.459s3.069,0.153,5.174,3.135s2.192,7.454,2.192,7.454c1.754,0.175,2.631,0.702,8.857,4.034
		s5.963,5.613,10.085,5.525c4.122-0.088,5.876-0.263,8.419,2.455c2.543,2.719,9.997,11.313,12.102,14.645s1.14,7.98,1.491,25.257
		s5.788,38.148,8.507,55.599c2.719,17.452,4.56,34.114,6.051,49.022s2.105,20.17,2.105,20.17
		C189.823,266.923,188.77,268.151,186.841,269.115z"/>
</g>
</svg>
