<?xml version="1.0" encoding="utf-8"?>
<!-- Generator: Adobe Illustrator 17.0.0, SVG Export Plug-In . SVG Version: 6.00 Build 0)  -->
<!DOCTYPE svg PUBLIC "-//W3C//DTD SVG 1.1//EN" "http://www.w3.org/Graphics/SVG/1.1/DTD/svg11.dtd">
<svg version="1.1" id="Слой_1" xmlns="http://www.w3.org/2000/svg" xmlns:xlink="http://www.w3.org/1999/xlink" x="0px" y="0px"
	 width="131px" height="424px" viewBox="11.553 10.108 131 424" enable-background="new 11.553 10.108 131 424"
	 xml:space="preserve">
<g>
	<g>
		<defs>
			<path id="SVGID_1_" d="M141.472,400.536c-0.468-0.728-0.78-0.78-0.988-2.496s-0.468-13.987-1.248-21.474
				s-3.744-30.157-4.368-35.408s-1.664-15.39-1.664-20.538c0-5.148,0.572-5.823-1.092-8.787s-2.392-4.991-2.392-4.991
				s0.208-19.862,0.104-23.761s-2.34-14.87-3.068-20.538c-0.728-5.667-1.768-11.595-1.716-17.678s-0.052-6.655-0.728-7.227
				c0,0-0.468-7.643-0.676-9.151s-0.624-2.236-0.104-3.64s0.728-3.536,0.728-6.083s-1.04-6.395-1.768-9.099
				s-2.236-5.355-2.028-6.187s0-2.34-0.572-2.652s-0.884-1.352-0.832-2.392s-1.196-3.016-1.664-4.524s-0.26-3.328-0.884-4.576
				s-1.3-2.236-1.3-2.964c0-0.728-0.52-0.936-0.676-1.664s-0.676-5.719-0.676-5.719l0.832-0.156c0,0,0.624,3.9,0.572,4.16
				c-0.052,0.26,1.924-0.676,2.808-1.404c0.884-0.728-0.052-0.884,0.884-1.664c0.936-0.78,3.406-2.807,4.68-4.628
				c0.248-0.354,0.312-0.884-1.3-1.768s-2.288-2.392-2.86-3.796s-2.236-6.447-2.236-6.447c-0.468-1.768-0.572-15.858-0.572-15.858
				s1.352-5.355,2.548-9.047s5.355-13.311,5.875-14.506c0.52-1.196,0.416-3.796,0.936-4.783c0.52-0.988,1.768-2.34,1.872-3.068
				c0.104-0.728-0.416-3.016-0.104-3.848s0.624-1.456,0.312-2.86s-2.86-12.375-2.86-12.375s0.468-7.331-0.156-9.775
				s-1.144-3.172-2.132-4.316c-0.988-1.144-1.56-2.08-2.548-3.9s-1.872-3.276-4.264-4.316S111.831,73.956,111,73.8
				s-2.288-1.352-4.16-1.82s-3.848-0.676-5.771-1.144s-2.6-0.572-3.64-1.456s-2.548-0.208-2.548-0.208s-0.624-2.6-1.3-4.108
				c-0.676-1.508-0.728-3.692-0.988-4.108s-1.3-0.364-1.3-0.364s1.352-7.279,1.508-11.283c0,0,2.548,0.416,4.056-2.704
				s2.028-5.823,1.716-8.423s-1.092-3.796-2.288-4.004c0,0,0.988-7.539-1.768-11.855s-7.889-9.619-17.463-9.619
				s-13.681,4.939-16.541,9.619s-2.392,13.207-2.184,15.39c0.208,2.184,0.52,9.931,0.52,13.311s0.572,6.551,2.964,9.619
				c2.392,3.068,3.588,3.449,3.588,3.449s0,1.248,0,1.595s-0.763,0.832-0.763,2.01c0,1.179,0.624,4.16,0,4.437
				s-2.912,1.109-4.645,2.288s-3.328,3.12-4.021,3.397s-3.12,0.347-5.269,0c-2.149-0.347-4.714,0.347-5.893,1.109
				c-1.179,0.763-2.149,0.971-3.12,0.901c-0.971-0.069-2.08-0.693-3.882,0.485c-1.802,1.179-2.426,2.288-3.536,2.288
				c-1.109,0-1.317,0-2.149,1.317c-0.832,1.317-2.01,2.288-2.08,3.189c-0.069,0.901-0.416,0.485-1.248,0.971
				c-0.832,0.485-1.109,2.08-1.248,2.981s-0.693,4.576-1.387,5.546c-0.693,0.971-2.842,1.595-3.813,4.16
				c-0.971,2.565,0.139,2.773-0.832,5.754c-0.971,2.981-4.437,10.607-5.477,13.172c-1.04,2.565-1.664,3.744-2.149,5.823
				c-0.485,2.08-0.971,4.298-1.594,6.586c-0.624,2.288-0.555,3.952-0.555,7.557c0,3.605,0.139,7.141,0.832,8.111
				c0.693,0.971,1.941,2.357,3.397,2.773s7.21,0.832,9.012,1.109c1.802,0.277,6.517,2.288,9.151,2.496
				c2.634,0.208,4.853-0.347,4.853-0.347s-1.387,15.529-1.525,18.163c-0.139,2.634-0.139,7.626,0.139,8.874
				c0.277,1.248,1.802,2.912,3.12,3.605c1.317,0.693,2.01,0.693,2.01,0.693l0.208,3.397c0,0-0.624-0.069-0.277,1.802
				c0.347,1.872,0,2.357,0,2.357s-1.664-0.416-1.664,0.971s-0.139,4.645,0.208,4.783c0.347,0.139,0.416,0.763,0.416,0.763
				s-1.109,0.901-1.248,2.496c-0.139,1.594-0.347,3.12-0.347,3.12s-0.208,3.466-1.109,5.685c-0.901,2.218-3.258,6.725-3.189,11.3
				c0.069,4.576,0.555,7.557,1.387,10.746s1.315,5.546,1.455,6.933c0.14,1.387-0.415,3.258-0.345,8.042
				c0.069,4.783,0.347,8.804,0.971,11.785s2.426,9.775,3.05,11.785s1.317,3.882,1.317,3.882s0.347,6.517,0.763,10.191
				s2.149,21.352,2.704,28.285c0.555,6.933,2.218,17.817,4.021,24.819c1.802,7.002,2.565,11.508,3.189,13.588
				c0.624,2.08,4.437,12.063,4.853,13.033c0.416,0.971,0.832,2.357,0.485,3.189c-0.347,0.832-2.149,3.674-3.605,6.586
				s-1.525,3.882-1.941,5.407s-0.069,3.189-0.624,4.16s-2.149,3.12-2.357,3.674s0.347,2.912,0.971,3.258
				c0.624,0.347,2.426,0.763,3.12,0.763c0.693,0,0.693,0,0.693,0l0.139,1.248c0,0-0.555,1.109-2.149,2.912
				c-1.594,1.802-3.05,4.784-3.605,6.586s-0.069,1.317-1.387,2.704c-1.317,1.387-1.456,1.872-2.634,2.496
				c-1.179,0.624-7.349,1.733-10.399,2.773c-3.05,1.04-2.842,0.971-3.605,1.456s-2.634,4.09-2.634,4.09l-0.763,0.693
				c0,0-0.208,2.773-0.069,3.12s2.149,1.456,6.378,2.357c2.19,0.467,4.866,0.725,7.628,0.792c0.158-0.302,0.432-0.515,0.76-0.515
				c0.335,0,0.616,0.22,0.771,0.533c0.718-0.001,1.436-0.013,2.149-0.04c0.16-0.29,0.428-0.494,0.748-0.494
				c0.291,0,0.537,0.169,0.702,0.415c0.505-0.032,0.999-0.071,1.491-0.116c0.129-0.391,0.452-0.672,0.837-0.672
				c0.327,0,0.6,0.211,0.758,0.511c0.537-0.064,1.076-0.132,1.614-0.205c0.165-0.224,0.403-0.375,0.678-0.375
				c0.194,0,0.365,0.086,0.512,0.207c0.615-0.09,1.216-0.182,1.796-0.275c0.16-0.169,0.369-0.279,0.604-0.279
				c0.143,0,0.274,0.047,0.395,0.116c2.558-0.426,4.493-0.813,4.693-0.853c0.347-0.069-0.139-1.179,0.624-1.456
				c0.763-0.277,9.012-2.565,10.052-2.565s3.744,2.08,5.13,2.218c0.537,0.054,1.981,0.013,3.702-0.133
				c0.06-0.494,0.366-0.879,0.752-0.879c0.348,0,0.632,0.312,0.73,0.734c0.432-0.048,0.868-0.104,1.303-0.165
				c0.079-0.462,0.374-0.815,0.743-0.815c0.307,0,0.567,0.244,0.693,0.59c0.601-0.107,1.176-0.228,1.706-0.361
				c0.133-0.318,0.377-0.541,0.668-0.541c0.169,0,0.318,0.088,0.446,0.211c0.279-0.097,0.542-0.197,0.763-0.305
				c2.704-1.317,2.218-1.248,2.149-2.288c-0.069-1.04-0.265-4.227-0.265-4.989c0-0.763-1.052-0.626-0.913-1.042
				c0.139-0.416,0.277-2.426,0.208-2.634s-0.624-0.555-0.416-1.04s0.485-1.248,0.416-2.981c-0.069-1.733-0.763-2.109-0.347-2.912
				c0.711-1.369,2.894-3.709,3.622-4.593s1.56-1.508,1.664-2.444c0.104-0.936,0.832-3.848,0.52-4.783
				c-0.312-0.936-1.196-3.38-2.496-5.771c-1.3-2.392-3.692-8.163-5.719-9.879c0,0,0.104-1.924,0.416-5.927
				c0.312-4.004,0.208-11.855,0.468-15.962c0.26-4.108,0.208-11.127,0.26-14.974s-1.04-12.687-1.508-15.026
				c-0.468-2.34,0.728-5.147,1.248-8.007c0.52-2.86,0.988-6.395,0.988-9.203c0-2.808-0.156-8.267-0.728-10.191
				s-1.508-6.447-1.664-8.527c-0.156-2.08-0.156-4.16,0.156-4.212s1.612,5.303,2.08,7.591c0.468,2.288,1.56,7.747,2.236,9.983
				c0.676,2.236,1.092,5.511,1.872,7.383s0.468,4.264,1.196,6.811c0.728,2.548,0.468,10.295,0.728,12.167
				c0.26,1.872,1.208,3.006,1.3,6.083c0.104,3.484,1.196,9.151,1.3,12.323s0.26,11.439,0.572,16.17
				c0.312,4.732,1.664,12.167,2.756,16.586s4.316,13.207,5.199,13.987c0.883,0.78,4.212,1.976,4.42,2.34
				c0.208,0.364,0,0.416-1.092,1.092s-3.172,1.768-3.432,2.288c-0.26,0.52-0.936,2.34-2.392,4.576
				c-1.456,2.236-1.976,2.444-1.976,3.068c0,0.624,0,3.12,0.416,3.952c0.416,0.832,3.744,4.887,5.199,6.395
				c1.456,1.508,2.132,2.444,2.496,3.068c0.364,0.624,2.652,2.08,2.652,2.08s0.208,0.78-0.364,1.924
				c-0.572,1.144-1.04,3.674-0.676,4.593c0.364,0.919,0.26,2.01,0,2.634c-0.26,0.624-0.988,0.52-1.144,1.248
				c-0.156,0.728-0.156,4.524,0.416,4.784s2.184,0.832,7.955,0.832s12.999-0.52,15.338-0.988c2.34-0.468,3.068-0.988,3.328-1.976
				c0.26-0.988,0.208-4.368,0-4.991s-1.092-1.612-0.676-2.288c0.416-0.676,0.468-3.38,0.052-4.524s-1.664-2.548-1.04-2.86
				c0.624-0.312,0.78-0.156,1.196-1.3s1.82-4.472,1.872-4.991c0.052-0.52-0.208-1.196,0.416-1.924
				c0.624-0.728,2.86-4.731,3.38-5.563C142.716,401.989,141.94,401.264,141.472,400.536z"/>
		</defs>
		<clipPath id="SVGID_2_">
			<use xlink:href="#SVGID_1_"  overflow="visible"/>
		</clipPath>
		<rect x="-0.094" y="2.634" clip-path="url(#SVGID_2_)" fill="#C7D7DB" width="154" height="446.765"/>
	</g>
	<g>
		<defs>
			<path id="SVGID_3_" d="M141.472,400.536c-0.468-0.728-0.78-0.78-0.988-2.496s-0.468-13.987-1.248-21.474
				s-3.744-30.157-4.368-35.408s-1.664-15.39-1.664-20.538c0-5.148,0.572-5.823-1.092-8.787s-2.392-4.991-2.392-4.991
				s0.208-19.862,0.104-23.761s-2.34-14.87-3.068-20.538c-0.728-5.667-1.768-11.595-1.716-17.678s-0.052-6.655-0.728-7.227
				c0,0-0.468-7.643-0.676-9.151s-0.624-2.236-0.104-3.64s0.728-3.536,0.728-6.083s-1.04-6.395-1.768-9.099
				s-2.236-5.355-2.028-6.187s0-2.34-0.572-2.652s-0.884-1.352-0.832-2.392s-1.196-3.016-1.664-4.524s-0.26-3.328-0.884-4.576
				s-1.3-2.236-1.3-2.964c0-0.728-0.52-0.936-0.676-1.664s-0.676-5.719-0.676-5.719l0.832-0.156c0,0,0.624,3.9,0.572,4.16
				c-0.052,0.26,1.924-0.676,2.808-1.404c0.884-0.728-0.052-0.884,0.884-1.664c0.936-0.78,3.406-2.807,4.68-4.628
				c0.248-0.354,0.312-0.884-1.3-1.768s-2.288-2.392-2.86-3.796s-2.236-6.447-2.236-6.447c-0.468-1.768-0.572-15.858-0.572-15.858
				s1.352-5.355,2.548-9.047s5.355-13.311,5.875-14.506c0.52-1.196,0.416-3.796,0.936-4.783c0.52-0.988,1.768-2.34,1.872-3.068
				c0.104-0.728-0.416-3.016-0.104-3.848s0.624-1.456,0.312-2.86s-2.86-12.375-2.86-12.375s0.468-7.331-0.156-9.775
				s-1.144-3.172-2.132-4.316c-0.988-1.144-1.56-2.08-2.548-3.9s-1.872-3.276-4.264-4.316S111.831,73.956,111,73.8
				s-2.288-1.352-4.16-1.82s-3.848-0.676-5.771-1.144s-2.6-0.572-3.64-1.456s-2.548-0.208-2.548-0.208s-0.624-2.6-1.3-4.108
				c-0.676-1.508-0.728-3.692-0.988-4.108s-1.3-0.364-1.3-0.364s1.352-7.279,1.508-11.283c0,0,2.548,0.416,4.056-2.704
				s2.028-5.823,1.716-8.423s-1.092-3.796-2.288-4.004c0,0,0.988-7.539-1.768-11.855s-7.889-9.619-17.463-9.619
				s-13.681,4.939-16.541,9.619s-2.392,13.207-2.184,15.39c0.208,2.184,0.52,9.931,0.52,13.311s0.572,6.551,2.964,9.619
				c2.392,3.068,3.588,3.449,3.588,3.449s0,1.248,0,1.595s-0.763,0.832-0.763,2.01c0,1.179,0.624,4.16,0,4.437
				s-2.912,1.109-4.645,2.288s-3.328,3.12-4.021,3.397s-3.12,0.347-5.269,0c-2.149-0.347-4.714,0.347-5.893,1.109
				c-1.179,0.763-2.149,0.971-3.12,0.901c-0.971-0.069-2.08-0.693-3.882,0.485c-1.802,1.179-2.426,2.288-3.536,2.288
				c-1.109,0-1.317,0-2.149,1.317c-0.832,1.317-2.01,2.288-2.08,3.189c-0.069,0.901-0.416,0.485-1.248,0.971
				c-0.832,0.485-1.109,2.08-1.248,2.981s-0.693,4.576-1.387,5.546c-0.693,0.971-2.842,1.595-3.813,4.16
				c-0.971,2.565,0.139,2.773-0.832,5.754c-0.971,2.981-4.437,10.607-5.477,13.172c-1.04,2.565-1.664,3.744-2.149,5.823
				c-0.485,2.08-0.971,4.298-1.594,6.586c-0.624,2.288-0.555,3.952-0.555,7.557c0,3.605,0.139,7.141,0.832,8.111
				c0.693,0.971,1.941,2.357,3.397,2.773s7.21,0.832,9.012,1.109c1.802,0.277,6.517,2.288,9.151,2.496
				c2.634,0.208,4.853-0.347,4.853-0.347s-1.387,15.529-1.525,18.163c-0.139,2.634-0.139,7.626,0.139,8.874
				c0.277,1.248,1.802,2.912,3.12,3.605c1.317,0.693,2.01,0.693,2.01,0.693l0.208,3.397c0,0-0.624-0.069-0.277,1.802
				c0.347,1.872,0,2.357,0,2.357s-1.664-0.416-1.664,0.971s-0.139,4.645,0.208,4.783c0.347,0.139,0.416,0.763,0.416,0.763
				s-1.109,0.901-1.248,2.496c-0.139,1.594-0.347,3.12-0.347,3.12s-0.208,3.466-1.109,5.685c-0.901,2.218-3.258,6.725-3.189,11.3
				c0.069,4.576,0.555,7.557,1.387,10.746s1.315,5.546,1.455,6.933c0.14,1.387-0.415,3.258-0.345,8.042
				c0.069,4.783,0.347,8.804,0.971,11.785s2.426,9.775,3.05,11.785s1.317,3.882,1.317,3.882s0.347,6.517,0.763,10.191
				s2.149,21.352,2.704,28.285c0.555,6.933,2.218,17.817,4.021,24.819c1.802,7.002,2.565,11.508,3.189,13.588
				c0.624,2.08,4.437,12.063,4.853,13.033c0.416,0.971,0.832,2.357,0.485,3.189c-0.347,0.832-2.149,3.674-3.605,6.586
				s-1.525,3.882-1.941,5.407s-0.069,3.189-0.624,4.16s-2.149,3.12-2.357,3.674s0.347,2.912,0.971,3.258
				c0.624,0.347,2.426,0.763,3.12,0.763c0.693,0,0.693,0,0.693,0l0.139,1.248c0,0-0.555,1.109-2.149,2.912
				c-1.594,1.802-3.05,4.784-3.605,6.586s-0.069,1.317-1.387,2.704c-1.317,1.387-1.456,1.872-2.634,2.496
				c-1.179,0.624-7.349,1.733-10.399,2.773c-3.05,1.04-2.842,0.971-3.605,1.456s-2.634,4.09-2.634,4.09l-0.763,0.693
				c0,0-0.208,2.773-0.069,3.12s2.149,1.456,6.378,2.357c2.19,0.467,4.866,0.725,7.628,0.792c0.158-0.302,0.432-0.515,0.76-0.515
				c0.335,0,0.616,0.22,0.771,0.533c0.718-0.001,1.436-0.013,2.149-0.04c0.16-0.29,0.428-0.494,0.748-0.494
				c0.291,0,0.537,0.169,0.702,0.415c0.505-0.032,0.999-0.071,1.491-0.116c0.129-0.391,0.452-0.672,0.837-0.672
				c0.327,0,0.6,0.211,0.758,0.511c0.537-0.064,1.076-0.132,1.614-0.205c0.165-0.224,0.403-0.375,0.678-0.375
				c0.194,0,0.365,0.086,0.512,0.207c0.615-0.09,1.216-0.182,1.796-0.275c0.16-0.169,0.369-0.279,0.604-0.279
				c0.143,0,0.274,0.047,0.395,0.116c2.558-0.426,4.493-0.813,4.693-0.853c0.347-0.069-0.139-1.179,0.624-1.456
				c0.763-0.277,9.012-2.565,10.052-2.565s3.744,2.08,5.13,2.218c0.537,0.054,1.981,0.013,3.702-0.133
				c0.06-0.494,0.366-0.879,0.752-0.879c0.348,0,0.632,0.312,0.73,0.734c0.432-0.048,0.868-0.104,1.303-0.165
				c0.079-0.462,0.374-0.815,0.743-0.815c0.307,0,0.567,0.244,0.693,0.59c0.601-0.107,1.176-0.228,1.706-0.361
				c0.133-0.318,0.377-0.541,0.668-0.541c0.169,0,0.318,0.088,0.446,0.211c0.279-0.097,0.542-0.197,0.763-0.305
				c2.704-1.317,2.218-1.248,2.149-2.288c-0.069-1.04-0.265-4.227-0.265-4.989c0-0.763-1.052-0.626-0.913-1.042
				c0.139-0.416,0.277-2.426,0.208-2.634s-0.624-0.555-0.416-1.04s0.485-1.248,0.416-2.981c-0.069-1.733-0.763-2.109-0.347-2.912
				c0.711-1.369,2.894-3.709,3.622-4.593s1.56-1.508,1.664-2.444c0.104-0.936,0.832-3.848,0.52-4.783
				c-0.312-0.936-1.196-3.38-2.496-5.771c-1.3-2.392-3.692-8.163-5.719-9.879c0,0,0.104-1.924,0.416-5.927
				c0.312-4.004,0.208-11.855,0.468-15.962c0.26-4.108,0.208-11.127,0.26-14.974s-1.04-12.687-1.508-15.026
				c-0.468-2.34,0.728-5.147,1.248-8.007c0.52-2.86,0.988-6.395,0.988-9.203c0-2.808-0.156-8.267-0.728-10.191
				s-1.508-6.447-1.664-8.527c-0.156-2.08-0.156-4.16,0.156-4.212s1.612,5.303,2.08,7.591c0.468,2.288,1.56,7.747,2.236,9.983
				c0.676,2.236,1.092,5.511,1.872,7.383s0.468,4.264,1.196,6.811c0.728,2.548,0.468,10.295,0.728,12.167
				c0.26,1.872,1.208,3.006,1.3,6.083c0.104,3.484,1.196,9.151,1.3,12.323s0.26,11.439,0.572,16.17
				c0.312,4.732,1.664,12.167,2.756,16.586s4.316,13.207,5.199,13.987c0.883,0.78,4.212,1.976,4.42,2.34
				c0.208,0.364,0,0.416-1.092,1.092s-3.172,1.768-3.432,2.288c-0.26,0.52-0.936,2.34-2.392,4.576
				c-1.456,2.236-1.976,2.444-1.976,3.068c0,0.624,0,3.12,0.416,3.952c0.416,0.832,3.744,4.887,5.199,6.395
				c1.456,1.508,2.132,2.444,2.496,3.068c0.364,0.624,2.652,2.08,2.652,2.08s0.208,0.78-0.364,1.924
				c-0.572,1.144-1.04,3.674-0.676,4.593c0.364,0.919,0.26,2.01,0,2.634c-0.26,0.624-0.988,0.52-1.144,1.248
				c-0.156,0.728-0.156,4.524,0.416,4.784s2.184,0.832,7.955,0.832s12.999-0.52,15.338-0.988c2.34-0.468,3.068-0.988,3.328-1.976
				c0.26-0.988,0.208-4.368,0-4.991s-1.092-1.612-0.676-2.288c0.416-0.676,0.468-3.38,0.052-4.524s-1.664-2.548-1.04-2.86
				c0.624-0.312,0.78-0.156,1.196-1.3s1.82-4.472,1.872-4.991c0.052-0.52-0.208-1.196,0.416-1.924
				c0.624-0.728,2.86-4.731,3.38-5.563C142.716,401.989,141.94,401.264,141.472,400.536z"/>
		</defs>
		<clipPath id="SVGID_5_">
			<use xlink:href="#SVGID_3_"  overflow="visible"/>
		</clipPath>
		<path opacity="0.2" clip-path="url(#SVGID_5_)" fill="#010202" enable-background="new    " d="M-0.094-4.536v456.103h154V-4.536
			H-0.094z M142.2,404.993c-0.52,0.832-2.756,4.836-3.38,5.563c-0.624,0.728-0.364,1.404-0.416,1.924
			c-0.052,0.52-1.456,3.848-1.872,4.992c-0.416,1.144-0.572,0.988-1.196,1.3s0.624,1.716,1.04,2.86s0.364,3.848-0.052,4.523
			c-0.416,0.676,0.468,1.664,0.676,2.288c0.208,0.624,0.26,4.004,0,4.991c-0.26,0.988-0.988,1.508-3.328,1.976
			c-2.34,0.468-9.567,0.988-15.338,0.988s-7.383-0.572-7.955-0.832s-0.572-4.056-0.416-4.784c0.156-0.728,0.884-0.624,1.144-1.248
			c0.26-0.624,0.364-1.716,0-2.634c-0.364-0.919,0.104-3.449,0.676-4.593c0.572-1.144,0.364-1.924,0.364-1.924
			s-2.288-1.456-2.652-2.08c-0.364-0.624-1.04-1.56-2.496-3.068s-4.784-5.563-5.199-6.395c-0.415-0.832-0.416-3.328-0.416-3.952
			c0-0.624,0.52-0.832,1.976-3.068c1.456-2.236,2.132-4.056,2.392-4.576c0.26-0.52,2.34-1.612,3.432-2.288
			c1.092-0.676,1.3-0.728,1.092-1.092s-3.536-1.56-4.419-2.34c-0.883-0.78-4.108-9.567-5.199-13.987
			c-1.092-4.42-2.444-11.855-2.756-16.586c-0.312-4.732-0.468-12.999-0.572-16.17c-0.104-3.172-1.196-8.839-1.3-12.323
			c-0.092-3.077-1.04-4.212-1.3-6.083c-0.26-1.872,0-9.619-0.728-12.167c-0.728-2.548-0.416-4.939-1.196-6.811
			s-1.196-5.147-1.872-7.383c-0.676-2.236-1.768-7.695-2.236-9.983c-0.468-2.288-1.768-7.643-2.08-7.591s-0.312,2.132-0.156,4.212
			c0.156,2.08,1.092,6.603,1.664,8.527s0.728,7.383,0.728,10.191c0,2.808-0.468,6.343-0.988,9.203
			c-0.52,2.86-1.716,5.667-1.248,8.007c0.468,2.34,1.56,11.179,1.508,15.026c-0.052,3.847,0,10.867-0.26,14.974
			c-0.26,4.108-0.156,11.959-0.468,15.962c-0.312,4.004-0.416,5.927-0.416,5.927c2.028,1.716,4.42,7.487,5.719,9.879
			c1.3,2.392,2.184,4.835,2.496,5.771c0.312,0.936-0.416,3.848-0.52,4.784c-0.104,0.936-0.936,1.56-1.664,2.444
			c-0.728,0.884-2.912,3.224-3.622,4.593c-0.416,0.802,0.277,1.179,0.347,2.912c0.069,1.733-0.208,2.496-0.416,2.981
			s0.347,0.832,0.416,1.04s-0.069,2.218-0.208,2.634s0.913,0.279,0.913,1.042s0.196,3.949,0.265,4.989
			c0.069,1.04,0.555,0.971-2.149,2.288c-0.222,0.108-0.484,0.208-0.763,0.305c-0.128-0.123-0.276-0.211-0.446-0.211
			c-0.291,0-0.535,0.224-0.668,0.541c-0.53,0.133-1.105,0.254-1.706,0.361c-0.126-0.346-0.386-0.59-0.693-0.59
			c-0.369,0-0.664,0.352-0.743,0.815c-0.436,0.061-0.872,0.117-1.303,0.165c-0.099-0.422-0.383-0.734-0.73-0.734
			c-0.386,0-0.692,0.384-0.752,0.879c-1.721,0.145-3.166,0.187-3.702,0.133c-1.387-0.139-4.09-2.218-5.13-2.218
			s-9.29,2.288-10.052,2.565c-0.763,0.277-0.277,1.387-0.624,1.456c-0.2,0.04-2.136,0.427-4.693,0.853
			c-0.12-0.069-0.251-0.116-0.395-0.116c-0.234,0-0.443,0.109-0.604,0.279c-0.581,0.093-1.182,0.185-1.796,0.275
			c-0.147-0.121-0.317-0.207-0.512-0.207c-0.275,0-0.513,0.15-0.678,0.375c-0.538,0.073-1.077,0.142-1.614,0.205
			c-0.158-0.3-0.431-0.511-0.758-0.511c-0.385,0-0.707,0.281-0.837,0.672c-0.491,0.044-0.986,0.084-1.491,0.116
			c-0.165-0.246-0.411-0.415-0.702-0.415c-0.32,0-0.588,0.204-0.748,0.494c-0.713,0.027-1.431,0.038-2.149,0.04
			c-0.155-0.313-0.436-0.534-0.771-0.534c-0.328,0-0.602,0.213-0.76,0.515c-2.763-0.067-5.438-0.325-7.628-0.792
			c-4.229-0.901-6.239-2.01-6.378-2.357s0.069-3.12,0.069-3.12l0.763-0.693c0,0,1.872-3.605,2.634-4.09
			c0.763-0.485,0.555-0.416,3.605-1.456c3.05-1.04,9.22-2.149,10.399-2.773c1.178-0.624,1.317-1.109,2.634-2.496
			c1.317-1.387,0.832-0.901,1.387-2.704c0.555-1.803,2.01-4.784,3.605-6.586s2.149-2.912,2.149-2.912l-0.139-1.248c0,0,0,0-0.693,0
			s-2.496-0.416-3.12-0.763c-0.624-0.347-1.179-2.704-0.971-3.258c0.208-0.554,1.802-2.704,2.357-3.674
			c0.555-0.971,0.208-2.634,0.624-4.16c0.416-1.525,0.485-2.496,1.941-5.407c1.456-2.912,3.258-5.754,3.605-6.586
			c0.347-0.832-0.069-2.218-0.485-3.189s-4.229-10.953-4.853-13.033c-0.624-2.08-1.386-6.586-3.189-13.588
			s-3.466-17.886-4.021-24.819c-0.555-6.933-2.288-24.611-2.704-28.285s-0.763-10.191-0.763-10.191s-0.693-1.872-1.317-3.882
			s-2.426-8.804-3.05-11.785s-0.901-7.002-0.971-11.785c-0.069-4.784,0.485-6.655,0.345-8.042c-0.14-1.386-0.623-3.744-1.455-6.933
			s-1.317-6.17-1.387-10.746s2.288-9.082,3.189-11.3c0.901-2.218,1.109-5.685,1.109-5.685s0.208-1.525,0.347-3.12
			s1.248-2.496,1.248-2.496s-0.069-0.624-0.416-0.763s-0.208-3.397-0.208-4.783s1.664-0.971,1.664-0.971s0.347-0.485,0-2.357
			s0.277-1.802,0.277-1.802l-0.208-3.397c0,0-0.693,0-2.01-0.693c-1.317-0.693-2.842-2.357-3.12-3.605
			c-0.277-1.248-0.277-6.239-0.139-8.874c0.139-2.634,1.525-18.163,1.525-18.163s-2.218,0.555-4.853,0.347
			c-2.634-0.208-7.349-2.218-9.151-2.496c-1.802-0.277-7.557-0.693-9.012-1.109c-1.456-0.416-2.704-1.802-3.397-2.773
			c-0.693-0.971-0.832-4.506-0.832-8.111s-0.069-5.269,0.555-7.557c0.624-2.288,1.109-4.506,1.594-6.586s1.109-3.258,2.149-5.823
			c1.04-2.565,4.506-10.191,5.477-13.172s-0.139-3.189,0.832-5.754c0.971-2.565,3.12-3.189,3.813-4.16s1.248-4.645,1.387-5.546
			s0.416-2.496,1.248-2.981c0.832-0.485,1.179-0.069,1.248-0.971c0.069-0.901,1.248-1.872,2.08-3.189s1.04-1.317,2.149-1.317
			c1.109,0,1.733-1.109,3.536-2.288c1.802-1.179,2.912-0.555,3.882-0.485s1.941-0.139,3.12-0.901
			c1.179-0.763,3.744-1.456,5.893-1.109c2.149,0.347,4.576,0.277,5.269,0s2.288-2.219,4.021-3.397
			c1.733-1.179,4.021-2.01,4.645-2.288c0.624-0.277,0-3.258,0-4.437c0-1.179,0.763-1.664,0.763-2.01s0-1.594,0-1.594
			s-1.196-0.381-3.588-3.449c-2.392-3.068-2.964-6.239-2.964-9.619s-0.312-11.127-0.52-13.311s-0.676-10.711,2.184-15.39
			c2.86-4.68,6.967-9.619,16.541-9.619s14.708,5.303,17.463,9.619c2.756,4.315,1.768,11.855,1.768,11.855
			c1.196,0.208,1.976,1.404,2.288,4.004s-0.208,5.303-1.716,8.423s-4.056,2.704-4.056,2.704c-0.156,4.004-1.508,11.283-1.508,11.283
			s1.04-0.052,1.3,0.364c0.26,0.416,0.312,2.6,0.988,4.108s1.3,4.108,1.3,4.108s1.508-0.676,2.548,0.208
			c1.04,0.884,1.716,0.988,3.64,1.456c1.924,0.468,3.9,0.676,5.771,1.144c1.872,0.468,3.328,1.664,4.16,1.82
			s2.756-0.208,5.147,0.832c2.392,1.04,3.276,2.496,4.264,4.316s1.56,2.756,2.548,3.9c0.988,1.144,1.508,1.872,2.132,4.316
			s0.156,9.775,0.156,9.775s2.548,10.971,2.86,12.375s0,2.028-0.312,2.86s0.208,3.12,0.104,3.848s-1.352,2.08-1.872,3.068
			c-0.52,0.988-0.416,3.588-0.936,4.783c-0.52,1.196-4.68,10.815-5.875,14.506c-1.196,3.692-2.548,9.047-2.548,9.047
			s0.104,14.091,0.572,15.858c0,0,1.664,5.044,2.236,6.447c0.572,1.404,1.248,2.912,2.86,3.796s1.548,1.414,1.3,1.768
			c-1.273,1.82-3.744,3.848-4.68,4.628s0,0.936-0.884,1.664s-2.86,1.664-2.808,1.404s-0.572-4.16-0.572-4.16l-0.832,0.156
			c0,0,0.52,4.992,0.676,5.719c0.156,0.728,0.676,0.936,0.676,1.664s0.676,1.716,1.3,2.964s0.416,3.068,0.884,4.576
			c0.468,1.508,1.716,3.484,1.664,4.524c-0.052,1.04,0.26,2.08,0.832,2.392s0.78,1.82,0.572,2.652
			c-0.208,0.832,1.3,3.484,2.028,6.187c0.728,2.704,1.768,6.551,1.768,9.099s-0.208,4.68-0.728,6.083
			c-0.52,1.404-0.104,2.132,0.104,3.64c0.208,1.508,0.676,9.151,0.676,9.151c0.676,0.572,0.78,1.144,0.728,7.227
			s0.988,12.011,1.716,17.678c0.728,5.667,2.964,16.638,3.068,20.538c0.104,3.9-0.104,23.761-0.104,23.761s0.728,2.028,2.392,4.991
			c1.664,2.963,1.092,3.64,1.092,8.787s1.04,15.286,1.664,20.538c0.624,5.251,3.588,27.921,4.367,35.408s1.04,19.758,1.248,21.474
			c0.208,1.716,0.52,1.768,0.988,2.496C141.94,403.433,142.719,404.161,142.2,404.993z"/>
	</g>
</g>
<g>
	<defs>
		<path id="SVGID_4_" d="M141.566,400.138c-0.468-0.728-0.78-0.78-0.988-2.496s-0.468-13.987-1.248-21.474
			s-3.744-30.157-4.368-35.408c-0.624-5.251-1.664-15.39-1.664-20.538c0-5.147,0.572-5.823-1.092-8.787s-2.392-4.991-2.392-4.991
			s0.208-19.862,0.104-23.761c-0.104-3.9-2.34-14.87-3.068-20.538s-1.768-11.595-1.716-17.678s-0.052-6.655-0.728-7.227
			c0,0-0.468-7.643-0.676-9.151s-0.624-2.236-0.104-3.64c0.52-1.404,0.728-3.536,0.728-6.083s-1.04-6.395-1.768-9.099
			c-0.728-2.704-2.236-5.355-2.028-6.187s0-2.34-0.572-2.652c-0.572-0.312-0.884-1.352-0.832-2.392
			c0.052-1.04-1.196-3.016-1.664-4.524c-0.468-1.508-0.26-3.328-0.884-4.576c-0.624-1.248-1.3-2.236-1.3-2.964
			s-0.52-0.936-0.676-1.664s-0.676-5.719-0.676-5.719l0.832-0.156c0,0,0.624,3.9,0.572,4.16c-0.052,0.26,1.924-0.676,2.808-1.404
			c0.884-0.728-0.052-0.884,0.884-1.664s3.406-2.807,4.68-4.628c0.248-0.354,0.312-0.884-1.3-1.768
			c-1.612-0.884-2.288-2.392-2.86-3.796s-2.236-6.447-2.236-6.447c-0.468-1.768-0.572-15.858-0.572-15.858s1.352-5.355,2.548-9.047
			c1.196-3.692,5.355-13.311,5.875-14.506c0.52-1.196,0.416-3.796,0.936-4.783c0.52-0.988,1.768-2.34,1.872-3.068
			c0.104-0.728-0.416-3.016-0.104-3.848c0.312-0.832,0.624-1.456,0.312-2.86c-0.312-1.404-2.86-12.375-2.86-12.375
			s0.468-7.331-0.156-9.775c-0.624-2.444-1.144-3.172-2.132-4.316c-0.988-1.144-1.56-2.08-2.548-3.9
			c-0.988-1.82-1.872-3.276-4.264-4.316c-2.392-1.04-4.316-0.676-5.147-0.832s-2.288-1.352-4.16-1.82
			c-1.872-0.468-3.848-0.676-5.771-1.144s-2.6-0.572-3.64-1.456c-1.04-0.884-2.548-0.208-2.548-0.208s-0.624-2.6-1.3-4.108
			c-0.676-1.508-0.728-3.692-0.988-4.108s-1.3-0.364-1.3-0.364s1.352-7.279,1.508-11.283c0,0,2.548,0.416,4.056-2.704
			c1.508-3.12,2.028-5.823,1.716-8.423s-1.092-3.796-2.288-4.004c0,0,0.988-7.539-1.768-11.855s-7.889-9.619-17.463-9.619
			c-9.574,0-13.681,4.939-16.541,9.619c-2.86,4.68-2.392,13.207-2.184,15.39s0.52,9.931,0.52,13.311c0,3.38,0.572,6.551,2.964,9.619
			c2.392,3.068,3.588,3.449,3.588,3.449s0,1.248,0,1.595c0,0.347-0.763,0.832-0.763,2.01c0,1.179,0.624,4.16,0,4.437
			c-0.624,0.277-2.912,1.109-4.645,2.288c-1.733,1.179-3.328,3.12-4.021,3.397c-0.693,0.277-3.12,0.347-5.269,0
			c-2.149-0.347-4.714,0.347-5.893,1.109c-1.179,0.763-2.149,0.971-3.12,0.901c-0.971-0.069-2.08-0.693-3.882,0.485
			c-1.802,1.179-2.426,2.288-3.536,2.288c-1.109,0-1.317,0-2.149,1.317c-0.832,1.317-2.01,2.288-2.08,3.189
			c-0.069,0.901-0.416,0.485-1.248,0.971c-0.832,0.485-1.109,2.08-1.248,2.981c-0.139,0.901-0.693,4.576-1.387,5.546
			c-0.693,0.971-2.842,1.595-3.813,4.16c-0.971,2.565,0.139,2.773-0.832,5.754c-0.971,2.981-4.437,10.607-5.477,13.172
			c-1.04,2.565-1.664,3.744-2.149,5.823c-0.485,2.08-0.971,4.298-1.594,6.586c-0.624,2.288-0.555,3.952-0.555,7.557
			c0,3.605,0.139,7.141,0.832,8.111c0.693,0.971,1.941,2.357,3.397,2.773c1.456,0.416,7.21,0.832,9.012,1.109
			c1.802,0.277,6.517,2.288,9.151,2.496c2.634,0.208,4.853-0.347,4.853-0.347s-1.387,15.529-1.525,18.163
			c-0.139,2.634-0.139,7.626,0.139,8.874c0.277,1.248,1.802,2.912,3.12,3.605c1.317,0.693,2.01,0.693,2.01,0.693l0.208,3.397
			c0,0-0.624-0.069-0.277,1.802c0.347,1.872,0,2.357,0,2.357s-1.664-0.416-1.664,0.971s-0.139,4.645,0.208,4.783
			c0.347,0.139,0.416,0.763,0.416,0.763s-1.109,0.901-1.248,2.496c-0.139,1.594-0.347,3.12-0.347,3.12s-0.208,3.466-1.109,5.685
			c-0.901,2.218-3.258,6.725-3.189,11.3c0.069,4.576,0.555,7.557,1.387,10.746c0.832,3.189,1.315,5.546,1.455,6.933
			c0.14,1.387-0.415,3.258-0.345,8.042c0.069,4.783,0.347,8.804,0.971,11.785c0.624,2.981,2.426,9.775,3.05,11.785
			c0.624,2.01,1.317,3.882,1.317,3.882s0.347,6.517,0.763,10.191s2.149,21.352,2.704,28.285c0.555,6.933,2.218,17.817,4.021,24.819
			c1.802,7.002,2.565,11.508,3.189,13.588c0.624,2.08,4.437,12.063,4.853,13.033c0.416,0.971,0.832,2.357,0.485,3.189
			c-0.347,0.832-2.149,3.674-3.605,6.586c-1.456,2.912-1.525,3.882-1.941,5.407c-0.416,1.525-0.069,3.189-0.624,4.16
			c-0.555,0.971-2.149,3.12-2.357,3.674s0.347,2.912,0.971,3.258c0.624,0.347,2.426,0.763,3.12,0.763c0.693,0,0.693,0,0.693,0
			l0.139,1.248c0,0-0.555,1.109-2.149,2.912c-1.594,1.802-3.05,4.783-3.605,6.586c-0.555,1.802-0.069,1.317-1.387,2.704
			c-1.317,1.387-1.456,1.872-2.634,2.496c-1.179,0.624-7.349,1.733-10.399,2.773c-3.05,1.04-2.842,0.971-3.605,1.456
			c-0.763,0.485-2.634,4.09-2.634,4.09l-0.763,0.693c0,0-0.208,2.773-0.069,3.12c0.139,0.347,2.149,1.456,6.378,2.357
			c2.19,0.467,4.866,0.725,7.628,0.792c0.158-0.302,0.432-0.515,0.76-0.515c0.335,0,0.616,0.22,0.771,0.534
			c0.718-0.001,1.436-0.013,2.149-0.04c0.16-0.29,0.428-0.494,0.748-0.494c0.291,0,0.537,0.169,0.702,0.415
			c0.505-0.032,0.999-0.071,1.491-0.116c0.129-0.391,0.452-0.672,0.837-0.672c0.327,0,0.6,0.211,0.758,0.511
			c0.537-0.064,1.076-0.132,1.614-0.205c0.165-0.224,0.403-0.375,0.678-0.375c0.194,0,0.365,0.086,0.512,0.207
			c0.615-0.09,1.216-0.182,1.796-0.275c0.16-0.169,0.369-0.279,0.604-0.279c0.143,0,0.274,0.047,0.395,0.116
			c2.558-0.426,4.493-0.813,4.693-0.853c0.347-0.069-0.139-1.179,0.624-1.456c0.763-0.277,9.012-2.565,10.052-2.565
			c1.04,0,3.744,2.08,5.13,2.218c0.537,0.054,1.981,0.013,3.702-0.133c0.06-0.495,0.366-0.879,0.752-0.879
			c0.348,0,0.632,0.312,0.73,0.734c0.432-0.048,0.868-0.104,1.303-0.165c0.079-0.462,0.374-0.814,0.743-0.814
			c0.307,0,0.567,0.244,0.693,0.59c0.601-0.107,1.176-0.228,1.706-0.361c0.133-0.318,0.377-0.541,0.668-0.541
			c0.169,0,0.318,0.088,0.446,0.211c0.279-0.097,0.542-0.197,0.763-0.305c2.704-1.317,2.218-1.248,2.149-2.288
			c-0.069-1.04-0.265-4.227-0.265-4.989c0-0.763-1.052-0.626-0.913-1.042c0.139-0.416,0.277-2.426,0.208-2.634
			c-0.069-0.208-0.624-0.555-0.416-1.04s0.485-1.248,0.416-2.981c-0.069-1.733-0.763-2.109-0.347-2.912
			c0.711-1.369,2.894-3.709,3.622-4.593s1.56-1.508,1.664-2.444c0.104-0.936,0.832-3.848,0.52-4.784
			c-0.312-0.936-1.196-3.38-2.496-5.771c-1.3-2.392-3.692-8.163-5.719-9.879c0,0,0.104-1.924,0.416-5.927s0.208-11.855,0.468-15.962
			s0.208-11.127,0.26-14.974c0.052-3.848-1.04-12.687-1.508-15.026c-0.468-2.34,0.728-5.147,1.248-8.007
			c0.52-2.86,0.988-6.395,0.988-9.203c0-2.808-0.156-8.267-0.728-10.191c-0.572-1.924-1.508-6.447-1.664-8.527
			s-0.156-4.16,0.156-4.212c0.312-0.052,1.612,5.303,2.08,7.591c0.468,2.288,1.56,7.747,2.236,9.983
			c0.676,2.236,1.092,5.511,1.872,7.383s0.468,4.264,1.196,6.811c0.728,2.548,0.468,10.295,0.728,12.167
			c0.26,1.872,1.208,3.006,1.3,6.083c0.104,3.484,1.196,9.151,1.3,12.323s0.26,11.439,0.572,16.17
			c0.312,4.731,1.664,12.167,2.756,16.586c1.092,4.42,4.316,13.207,5.199,13.987c0.884,0.78,4.212,1.976,4.42,2.34
			c0.208,0.364,0,0.416-1.092,1.092c-1.092,0.676-3.172,1.768-3.432,2.288c-0.26,0.52-0.936,2.34-2.392,4.576
			c-1.456,2.236-1.976,2.444-1.976,3.068c0,0.624,0,3.12,0.416,3.952c0.416,0.832,3.744,4.887,5.199,6.395
			c1.456,1.508,2.132,2.444,2.496,3.068c0.364,0.624,2.652,2.08,2.652,2.08s0.208,0.78-0.364,1.924
			c-0.572,1.144-1.04,3.674-0.676,4.593s0.26,2.01,0,2.634s-0.988,0.52-1.144,1.248c-0.156,0.728-0.156,4.523,0.416,4.783
			s2.184,0.832,7.955,0.832s12.999-0.52,15.338-0.988s3.068-0.988,3.328-1.976s0.208-4.368,0-4.991
			c-0.208-0.624-1.092-1.612-0.676-2.288c0.416-0.676,0.468-3.38,0.052-4.523c-0.416-1.144-1.664-2.548-1.04-2.86
			c0.624-0.312,0.78-0.156,1.196-1.3c0.416-1.144,1.82-4.472,1.872-4.991c0.052-0.52-0.208-1.196,0.416-1.924
			c0.624-0.728,2.86-4.732,3.38-5.563S142.034,400.866,141.566,400.138z"/>
	</defs>
	<clipPath id="SVGID_6_">
		<use xlink:href="#SVGID_4_"  overflow="visible"/>
	</clipPath>
	<linearGradient id="SVGID_7_" gradientUnits="userSpaceOnUse" x1="77" y1="449" x2="77" y2="2.2353">
		<stop  offset="0" style="stop-color:#24194C"/>
		<stop  offset="1" style="stop-color:#76213D"/>
	</linearGradient>
	<rect x="0" y="2.235" clip-path="url(#SVGID_6_)" fill="url(#SVGID_7_)" width="154" height="446.765"/>
	<path opacity="0.2" clip-path="url(#SVGID_6_)" d="M0-9.434v456.103h154V-9.434H0z M142.294,400.095
		c-0.52,0.832-2.756,4.836-3.38,5.563c-0.624,0.728-0.364,1.404-0.416,1.924c-0.052,0.52-1.456,3.848-1.872,4.992
		c-0.416,1.144-0.572,0.988-1.196,1.3c-0.624,0.312,0.624,1.716,1.04,2.86s0.364,3.848-0.052,4.523
		c-0.416,0.676,0.468,1.664,0.676,2.288c0.208,0.624,0.26,4.004,0,4.991c-0.26,0.988-0.988,1.508-3.328,1.976
		c-2.34,0.468-9.567,0.988-15.338,0.988c-5.771,0-7.383-0.572-7.955-0.832c-0.572-0.26-0.572-4.056-0.416-4.784
		c0.156-0.728,0.884-0.624,1.144-1.248c0.26-0.624,0.364-1.716,0-2.634c-0.364-0.919,0.104-3.449,0.676-4.593
		c0.572-1.144,0.364-1.924,0.364-1.924s-2.288-1.456-2.652-2.08c-0.364-0.624-1.04-1.56-2.496-3.068
		c-1.456-1.508-4.784-5.563-5.199-6.395s-0.416-3.328-0.416-3.952c0-0.624,0.52-0.832,1.976-3.068
		c1.456-2.236,2.132-4.056,2.392-4.576c0.26-0.52,2.34-1.612,3.432-2.288c1.092-0.676,1.3-0.728,1.092-1.092
		c-0.208-0.364-3.536-1.56-4.419-2.34s-4.108-9.567-5.199-13.987c-1.092-4.42-2.444-11.855-2.756-16.586
		c-0.312-4.732-0.468-12.999-0.572-16.17c-0.104-3.172-1.196-8.839-1.3-12.323c-0.092-3.077-1.04-4.212-1.3-6.083
		c-0.26-1.872,0-9.619-0.728-12.167s-0.416-4.939-1.196-6.811c-0.78-1.872-1.196-5.147-1.872-7.383
		c-0.676-2.236-1.768-7.695-2.236-9.983s-1.768-7.643-2.08-7.591s-0.312,2.132-0.156,4.212c0.156,2.08,1.092,6.603,1.664,8.527
		c0.572,1.924,0.728,7.383,0.728,10.191c0,2.808-0.468,6.343-0.988,9.203s-1.716,5.667-1.248,8.007
		c0.468,2.34,1.56,11.179,1.508,15.026s0,10.867-0.26,14.974c-0.26,4.108-0.156,11.959-0.468,15.962
		c-0.312,4.004-0.416,5.927-0.416,5.927c2.028,1.716,4.42,7.487,5.719,9.879c1.3,2.392,2.184,4.835,2.496,5.771
		s-0.416,3.848-0.52,4.784s-0.936,1.56-1.664,2.444s-2.912,3.224-3.622,4.593c-0.416,0.802,0.277,1.179,0.347,2.912
		c0.069,1.733-0.208,2.496-0.416,2.981c-0.208,0.485,0.347,0.832,0.416,1.04c0.069,0.208-0.069,2.218-0.208,2.634
		s0.913,0.279,0.913,1.042c0,0.763,0.196,3.949,0.265,4.989c0.069,1.04,0.555,0.971-2.149,2.288
		c-0.222,0.108-0.484,0.208-0.763,0.305c-0.128-0.123-0.276-0.211-0.446-0.211c-0.291,0-0.535,0.224-0.668,0.541
		c-0.53,0.133-1.105,0.254-1.706,0.361c-0.126-0.346-0.386-0.59-0.693-0.59c-0.369,0-0.664,0.352-0.743,0.815
		c-0.436,0.061-0.872,0.117-1.303,0.165c-0.099-0.422-0.383-0.734-0.73-0.734c-0.386,0-0.692,0.384-0.752,0.879
		c-1.721,0.145-3.166,0.187-3.702,0.133c-1.387-0.139-4.09-2.218-5.13-2.218c-1.04,0-9.29,2.288-10.052,2.565
		c-0.763,0.277-0.277,1.387-0.624,1.456c-0.2,0.04-2.136,0.427-4.693,0.853c-0.12-0.069-0.251-0.116-0.395-0.116
		c-0.234,0-0.443,0.109-0.604,0.279c-0.581,0.093-1.182,0.185-1.796,0.275c-0.147-0.121-0.317-0.207-0.512-0.207
		c-0.275,0-0.513,0.15-0.678,0.375c-0.538,0.073-1.077,0.142-1.614,0.205c-0.158-0.3-0.431-0.511-0.758-0.511
		c-0.385,0-0.707,0.281-0.837,0.672c-0.491,0.044-0.986,0.084-1.491,0.116c-0.165-0.246-0.411-0.415-0.702-0.415
		c-0.32,0-0.588,0.204-0.748,0.494c-0.713,0.027-1.431,0.038-2.149,0.04c-0.155-0.313-0.436-0.534-0.771-0.534
		c-0.328,0-0.602,0.213-0.76,0.515c-2.763-0.067-5.438-0.325-7.628-0.792c-4.229-0.901-6.239-2.01-6.378-2.357
		c-0.139-0.347,0.069-3.12,0.069-3.12l0.763-0.693c0,0,1.872-3.605,2.634-4.09c0.763-0.485,0.555-0.416,3.605-1.456
		c3.05-1.04,9.22-2.149,10.399-2.773c1.178-0.624,1.317-1.109,2.634-2.496s0.832-0.901,1.387-2.704s2.01-4.784,3.605-6.586
		c1.595-1.802,2.149-2.912,2.149-2.912l-0.139-1.248c0,0,0,0-0.693,0c-0.693,0-2.496-0.416-3.12-0.763s-1.179-2.704-0.971-3.258
		s1.802-2.704,2.357-3.674c0.555-0.971,0.208-2.634,0.624-4.16c0.416-1.525,0.485-2.496,1.941-5.407
		c1.456-2.912,3.258-5.754,3.605-6.586c0.347-0.832-0.069-2.218-0.485-3.189c-0.416-0.971-4.229-10.953-4.853-13.033
		c-0.624-2.08-1.386-6.586-3.189-13.588s-3.466-17.886-4.021-24.819c-0.555-6.933-2.288-24.611-2.704-28.285
		s-0.763-10.191-0.763-10.191s-0.693-1.872-1.317-3.882c-0.624-2.01-2.426-8.804-3.05-11.785c-0.624-2.981-0.901-7.002-0.971-11.785
		c-0.069-4.784,0.485-6.655,0.345-8.042c-0.14-1.386-0.623-3.744-1.455-6.933s-1.317-6.17-1.387-10.746s2.288-9.082,3.189-11.3
		c0.901-2.218,1.109-5.685,1.109-5.685s0.208-1.525,0.347-3.12c0.139-1.595,1.248-2.496,1.248-2.496s-0.069-0.624-0.416-0.763
		s-0.208-3.397-0.208-4.783s1.664-0.971,1.664-0.971s0.347-0.485,0-2.357c-0.347-1.872,0.277-1.802,0.277-1.802l-0.208-3.397
		c0,0-0.693,0-2.01-0.693c-1.317-0.693-2.842-2.357-3.12-3.605c-0.277-1.248-0.277-6.239-0.139-8.874
		c0.139-2.634,1.525-18.163,1.525-18.163s-2.218,0.555-4.853,0.347c-2.634-0.208-7.349-2.218-9.151-2.496
		c-1.802-0.277-7.557-0.693-9.012-1.109c-1.456-0.416-2.704-1.802-3.397-2.773c-0.693-0.971-0.832-4.506-0.832-8.111
		s-0.069-5.269,0.555-7.557c0.624-2.288,1.109-4.506,1.594-6.586c0.485-2.08,1.109-3.258,2.149-5.823
		c1.04-2.565,4.506-10.191,5.477-13.172s-0.139-3.189,0.832-5.754c0.971-2.565,3.12-3.189,3.813-4.16
		c0.693-0.971,1.248-4.645,1.387-5.546c0.139-0.901,0.416-2.496,1.248-2.981c0.832-0.485,1.179-0.069,1.248-0.971
		c0.069-0.901,1.248-1.872,2.08-3.189s1.04-1.317,2.149-1.317c1.109,0,1.733-1.109,3.536-2.288c1.802-1.179,2.912-0.555,3.882-0.485
		s1.941-0.139,3.12-0.901c1.179-0.763,3.744-1.456,5.893-1.109c2.149,0.347,4.576,0.277,5.269,0
		c0.693-0.277,2.288-2.219,4.021-3.397c1.733-1.179,4.021-2.01,4.645-2.288c0.624-0.277,0-3.258,0-4.437
		c0-1.179,0.763-1.664,0.763-2.01s0-1.594,0-1.594s-1.196-0.381-3.588-3.449c-2.392-3.068-2.964-6.239-2.964-9.619
		s-0.312-11.127-0.52-13.311c-0.208-2.184-0.676-10.711,2.184-15.39c2.86-4.68,6.967-9.619,16.541-9.619s14.708,5.303,17.463,9.619
		c2.756,4.315,1.768,11.855,1.768,11.855c1.196,0.208,1.976,1.404,2.288,4.004s-0.208,5.303-1.716,8.423
		c-1.508,3.12-4.056,2.704-4.056,2.704c-0.156,4.004-1.508,11.283-1.508,11.283s1.04-0.052,1.3,0.364
		c0.26,0.416,0.312,2.6,0.988,4.108c0.676,1.508,1.3,4.108,1.3,4.108s1.508-0.676,2.548,0.208c1.04,0.884,1.716,0.988,3.64,1.456
		c1.924,0.468,3.9,0.676,5.771,1.144c1.872,0.468,3.328,1.664,4.16,1.82c0.832,0.156,2.756-0.208,5.147,0.832
		c2.392,1.04,3.276,2.496,4.264,4.316c0.988,1.82,1.56,2.756,2.548,3.9c0.988,1.144,1.508,1.872,2.132,4.316
		c0.624,2.444,0.156,9.775,0.156,9.775s2.548,10.971,2.86,12.375c0.312,1.404,0,2.028-0.312,2.86s0.208,3.12,0.104,3.848
		s-1.352,2.08-1.872,3.068c-0.52,0.988-0.416,3.588-0.936,4.783c-0.52,1.196-4.68,10.815-5.875,14.506
		c-1.196,3.692-2.548,9.047-2.548,9.047s0.104,14.091,0.572,15.858c0,0,1.664,5.044,2.236,6.447c0.572,1.404,1.248,2.912,2.86,3.796
		s1.548,1.414,1.3,1.768c-1.273,1.82-3.744,3.848-4.68,4.628s0,0.936-0.884,1.664c-0.884,0.728-2.86,1.664-2.808,1.404
		s-0.572-4.16-0.572-4.16l-0.832,0.156c0,0,0.52,4.992,0.676,5.719c0.156,0.728,0.676,0.936,0.676,1.664s0.676,1.716,1.3,2.964
		c0.624,1.248,0.416,3.068,0.884,4.576c0.468,1.508,1.716,3.484,1.664,4.524c-0.052,1.04,0.26,2.08,0.832,2.392
		c0.572,0.312,0.78,1.82,0.572,2.652c-0.208,0.832,1.3,3.484,2.028,6.187c0.728,2.704,1.768,6.551,1.768,9.099
		s-0.208,4.68-0.728,6.083c-0.52,1.404-0.104,2.132,0.104,3.64c0.208,1.508,0.676,9.151,0.676,9.151
		c0.676,0.572,0.78,1.144,0.728,7.227c-0.052,6.083,0.988,12.011,1.716,17.678c0.728,5.667,2.964,16.638,3.068,20.538
		c0.104,3.9-0.104,23.761-0.104,23.761s0.728,2.028,2.392,4.991s1.092,3.64,1.092,8.787s1.04,15.286,1.664,20.538
		c0.624,5.251,3.588,27.921,4.367,35.408s1.04,19.758,1.248,21.474c0.208,1.716,0.52,1.768,0.988,2.496
		C142.034,398.535,142.814,399.263,142.294,400.095z"/>
</g>
</svg>
